<svg width="17" height="10" viewBox="0 0 17 10" fill="none" xmlns="http://www.w3.org/2000/svg">
<path d="M13.7422 7.375L9.75 3.38281L6.85156 6.25391C6.52344 6.60938 5.94922 6.60938 5.62109 6.25391L1.24609 1.87891C0.890625 1.55078 0.890625 0.976562 1.24609 0.648438C1.57422 0.292969 2.14844 0.292969 2.47656 0.648438L6.22266 4.39453L9.12109 1.52344C9.44922 1.16797 10.0234 1.16797 10.3516 1.52344L15 6.14453V3.875C15 3.41016 15.3828 3 15.875 3C16.3398 3 16.75 3.41016 16.75 3.875V8.25C16.75 8.74219 16.3398 9.125 15.875 9.125H11.5C11.0078 9.125 10.625 8.74219 10.625 8.25C10.625 7.78516 11.0078 7.375 11.5 7.375H13.7422Z" fill="#039855"/>
</svg>
