<svg width="24" height="24" viewBox="0 0 24 24" fill="none" xmlns="http://www.w3.org/2000/svg">
<path d="M20.1484 13.6641C19.6406 13.5078 19.1328 13.7812 18.9766 14.2891C18.1562 17.2188 15.4219 19.25 12.375 19.25C9.75781 19.25 7.41406 17.7656 6.24219 15.5H10.1875C10.6953 15.5 11.125 15.1094 11.125 14.5625C11.125 14.0547 10.7344 13.625 10.1875 13.625H3.9375C3.42969 13.625 3 14.0547 3 14.5625V20.8125C3 21.3594 3.42969 21.75 3.9375 21.75C4.48438 21.75 4.875 21.3594 4.875 20.8125V16.8281C6.4375 19.4453 9.28906 21.125 12.375 21.125C16.2422 21.125 19.6797 18.5469 20.7734 14.8359C20.9297 14.3281 20.6562 13.8203 20.1484 13.6641ZM20.8516 3C20.3047 3 19.9141 3.42969 19.9141 3.9375V7.96094C18.3516 5.34375 15.5 3.625 12.4141 3.625C8.54688 3.625 5.07031 6.24219 3.97656 9.95312C3.85938 10.4219 4.13281 10.9688 4.64062 11.0859C5.14844 11.2422 5.65625 10.9688 5.77344 10.4609C6.63281 7.57031 9.36719 5.5 12.4141 5.5C14.9922 5.5 17.3359 7.02344 18.5078 9.25H14.6016C14.0547 9.25 13.6641 9.67969 13.6641 10.1875C13.6641 10.7344 14.0547 11.125 14.6016 11.125H20.8516C21.3594 11.125 21.7891 10.7344 21.7891 10.1875V3.9375C21.7891 3.42969 21.3594 3 20.8516 3Z" fill="#7C879C"/>
</svg>
