<svg width="17" height="10" viewBox="0 0 17 10" fill="none" xmlns="http://www.w3.org/2000/svg">
<path d="M11.5 2.125C11.0078 2.125 10.625 1.74219 10.625 1.25C10.625 0.785156 11.0078 0.375 11.5 0.375H15.875C16.3398 0.375 16.75 0.785156 16.75 1.25V5.625C16.75 6.11719 16.3398 6.5 15.875 6.5C15.3828 6.5 15 6.11719 15 5.625V3.38281L10.3516 8.00391C10.0234 8.35938 9.44922 8.35938 9.12109 8.00391L6.22266 5.13281L2.47656 8.87891C2.14844 9.23438 1.57422 9.23438 1.24609 8.87891C0.890625 8.55078 0.890625 7.97656 1.24609 7.64844L5.62109 3.27344C5.94922 2.91797 6.52344 2.91797 6.85156 3.27344L9.75 6.14453L13.7422 2.125H11.5Z" fill="#F04438"/>
</svg>
