<svg width="12" height="12" viewBox="0 0 12 12" fill="none" xmlns="http://www.w3.org/2000/svg">
<path d="M10.8312 7.05469L6.45618 11.638C6.32597 11.7682 6.16972 11.8203 6.01347 11.8203C5.83118 11.8203 5.67493 11.7682 5.54472 11.638L1.16972 7.05469C0.93535 6.79427 0.93535 6.40365 1.19577 6.16927C1.43014 5.9349 1.84681 5.9349 2.08118 6.19531L5.38847 9.65885V0.804688C5.38847 0.440104 5.64889 0.179688 5.98743 0.179688C6.29993 0.179688 6.63847 0.440104 6.63847 0.804688V9.65885L9.91973 6.19531C10.1541 5.9349 10.5708 5.9349 10.8051 6.16927C11.0656 6.40365 11.0656 6.79427 10.8312 7.05469Z" fill="#626B7F"/>
</svg>
