<svg width="12" height="18" viewBox="0 0 12 18" fill="none" xmlns="http://www.w3.org/2000/svg">
<path d="M10.5 0.75C11.3125 0.75 12 1.45898 12 2.29688V15.7031C12 16.5732 11.3125 17.25 10.5 17.25H7.5V14.6719C7.5 13.834 6.8125 13.125 6 13.125C5.15625 13.125 4.5 13.834 4.5 14.6719V17.25H1.5C0.65625 17.25 0 16.5732 0 15.7031V2.29688C0 1.45898 0.65625 0.75 1.5 0.75H10.5ZM2 9.51562C2 9.80566 2.21875 10.0312 2.5 10.0312H3.5C3.75 10.0312 4 9.80566 4 9.51562V8.48438C4 8.22656 3.75 7.96875 3.5 7.96875H2.5C2.21875 7.96875 2 8.22656 2 8.48438V9.51562ZM5.5 7.96875C5.21875 7.96875 5 8.22656 5 8.48438V9.51562C5 9.80566 5.21875 10.0312 5.5 10.0312H6.5C6.75 10.0312 7 9.80566 7 9.51562V8.48438C7 8.22656 6.75 7.96875 6.5 7.96875H5.5ZM8 9.51562C8 9.80566 8.21875 10.0312 8.5 10.0312H9.5C9.75 10.0312 10 9.80566 10 9.51562V8.48438C10 8.22656 9.75 7.96875 9.5 7.96875H8.5C8.21875 7.96875 8 8.22656 8 8.48438V9.51562ZM2.5 3.84375C2.21875 3.84375 2 4.10156 2 4.35938V5.39062C2 5.68066 2.21875 5.90625 2.5 5.90625H3.5C3.75 5.90625 4 5.68066 4 5.39062V4.35938C4 4.10156 3.75 3.84375 3.5 3.84375H2.5ZM5 5.39062C5 5.68066 5.21875 5.90625 5.5 5.90625H6.5C6.75 5.90625 7 5.68066 7 5.39062V4.35938C7 4.10156 6.75 3.84375 6.5 3.84375H5.5C5.21875 3.84375 5 4.10156 5 4.35938V5.39062ZM8.5 3.84375C8.21875 3.84375 8 4.10156 8 4.35938V5.39062C8 5.68066 8.21875 5.90625 8.5 5.90625H9.5C9.75 5.90625 10 5.68066 10 5.39062V4.35938C10 4.10156 9.75 3.84375 9.5 3.84375H8.5Z" fill="#667085"/>
</svg>
