<svg width="14" height="15" viewBox="0 0 14 15" fill="none" xmlns="http://www.w3.org/2000/svg">
<path d="M9.08337 8.7487C9.08337 8.54036 9.26567 8.33203 9.50004 8.33203H10.3334C10.5417 8.33203 10.75 8.54036 10.75 8.7487V9.58203C10.75 9.81641 10.5417 9.9987 10.3334 9.9987H9.50004C9.26567 9.9987 9.08337 9.81641 9.08337 9.58203V8.7487ZM9.08337 3.7487C9.08337 3.54036 9.26567 3.33203 9.50004 3.33203H10.3334C10.5417 3.33203 10.75 3.54036 10.75 3.7487V4.58203C10.75 4.81641 10.5417 4.9987 10.3334 4.9987H9.50004C9.26567 4.9987 9.08337 4.81641 9.08337 4.58203V3.7487ZM9.50004 7.4987C9.26567 7.4987 9.08337 7.31641 9.08337 7.08203V6.2487C9.08337 6.04036 9.26567 5.83203 9.50004 5.83203H10.3334C10.5417 5.83203 10.75 6.04036 10.75 6.2487V7.08203C10.75 7.31641 10.5417 7.4987 10.3334 7.4987H9.50004ZM12 0.832031C12.9115 0.832031 13.6667 1.58724 13.6667 2.4987V12.4987C13.6667 13.4362 12.9115 14.1654 12 14.1654H7.83337C6.89587 14.1654 6.16671 13.4362 6.16671 12.4987V2.4987C6.16671 1.58724 6.89587 0.832031 7.83337 0.832031H12ZM12 2.08203H7.83337C7.599 2.08203 7.41671 2.29036 7.41671 2.4987V12.4987C7.41671 12.7331 7.599 12.9154 7.83337 12.9154H12C12.2084 12.9154 12.4167 12.7331 12.4167 12.4987V2.4987C12.4167 2.29036 12.2084 2.08203 12 2.08203ZM5.33337 5.41536H2.20837C1.84379 5.41536 1.58337 5.70182 1.58337 6.04036V12.2904C1.58337 12.6549 1.84379 12.9154 2.20837 12.9154H5.35942C5.43754 13.4102 5.64587 13.8268 5.95837 14.1654H2.20837C1.16671 14.1654 0.333374 13.332 0.333374 12.2904V6.04036C0.333374 5.02474 1.16671 4.16536 2.20837 4.16536H5.33337V5.41536ZM4.08337 9.16537C4.29171 9.16537 4.50004 9.3737 4.50004 9.58203V10.4154C4.50004 10.6497 4.29171 10.832 4.08337 10.832H3.25004C3.01567 10.832 2.83337 10.6497 2.83337 10.4154V9.58203C2.83337 9.3737 3.01567 9.16537 3.25004 9.16537H4.08337ZM4.08337 6.66536C4.29171 6.66536 4.50004 6.8737 4.50004 7.08203V7.91536C4.50004 8.14974 4.29171 8.33203 4.08337 8.33203H3.25004C3.01567 8.33203 2.83337 8.14974 2.83337 7.91536V7.08203C2.83337 6.8737 3.01567 6.66536 3.25004 6.66536H4.08337Z" fill="#475467"/>
</svg>
