<svg width="24" height="24" viewBox="0 0 24 24" fill="none" xmlns="http://www.w3.org/2000/svg">
<path d="M15.2609 10.2062C14.8312 10.5968 14.2062 10.5968 13.7375 10.2453L9.51871 7.08121L4.0109 11.4562C3.50309 11.8859 2.72184 11.8078 2.29215 11.2609C1.8234 10.7531 1.94059 9.97184 2.48746 9.50309L8.73746 4.54215C9.16715 4.15152 9.79215 4.15152 10.2609 4.50309L14.4796 7.66715L19.9875 3.29215C20.4953 2.8234 21.2765 2.94059 21.7062 3.48746C22.175 3.99527 22.0578 4.77652 21.5109 5.20621L15.2609 10.2062ZM8.26871 11.7296C8.26871 11.0656 8.81559 10.4796 9.51871 10.4796C10.1828 10.4796 10.7687 11.0656 10.7687 11.7296V19.2296C10.7687 19.9328 10.1828 20.4796 9.51871 20.4796C8.81559 20.4796 8.26871 19.9328 8.26871 19.2296V11.7296ZM3.26871 15.4796C3.26871 14.8156 3.81559 14.2296 4.51871 14.2296C5.18277 14.2296 5.76871 14.8156 5.76871 15.4796V19.2296C5.76871 19.9328 5.18277 20.4796 4.51871 20.4796C3.81559 20.4796 3.26871 19.9328 3.26871 19.2296V15.4796ZM15.7687 14.2296V19.2296C15.7687 19.9328 15.1828 20.4796 14.5187 20.4796C13.8156 20.4796 13.2687 19.9328 13.2687 19.2296V14.2296C13.2687 13.5656 13.8156 12.9796 14.5187 12.9796C15.1828 12.9796 15.7687 13.5656 15.7687 14.2296ZM18.2687 11.7296C18.2687 11.0656 18.8156 10.4796 19.5187 10.4796C20.1828 10.4796 20.7687 11.0656 20.7687 11.7296V19.2296C20.7687 19.9328 20.1828 20.4796 19.5187 20.4796C18.8156 20.4796 18.2687 19.9328 18.2687 19.2296V11.7296Z" fill="#7C879C"/>
</svg>
