<svg width="14" height="14" viewBox="0 0 14 14" fill="none" xmlns="http://www.w3.org/2000/svg">
<path d="M6.66211 9.1875C6.37565 9.47395 5.93294 9.47395 5.64648 9.1875L3.97982 7.52083C3.69336 7.23437 3.69336 6.79166 3.97982 6.5052C4.26628 6.21875 4.70898 6.21875 4.99544 6.5052L6.16732 7.65104L8.97982 4.83854C9.26628 4.55208 9.70898 4.55208 9.99544 4.83854C10.2819 5.125 10.2819 5.5677 9.99544 5.85416L6.66211 9.1875ZM13.6673 7C13.6673 10.6979 10.6725 13.6667 7.00065 13.6667C3.30273 13.6667 0.333984 10.6979 0.333984 7C0.333984 3.32812 3.30273 0.333328 7.00065 0.333328C10.6725 0.333328 13.6673 3.32812 13.6673 7ZM7.00065 1.58333C4.00586 1.58333 1.58398 4.03124 1.58398 7C1.58398 9.99479 4.00586 12.4167 7.00065 12.4167C9.9694 12.4167 12.4173 9.99479 12.4173 7C12.4173 4.03124 9.9694 1.58333 7.00065 1.58333Z" fill="#444CE7"/>
</svg>
