<svg width="16" height="18" viewBox="0 0 16 18" fill="none" xmlns="http://www.w3.org/2000/svg">
<path d="M14.3021 3.27067C14.7253 3.27067 15.0833 3.62874 15.0833 4.05192C15.0833 4.50765 14.7253 4.83317 14.3021 4.83317H13.9115L13.1302 15.4126C13.0326 16.5194 12.1536 17.3332 11.0469 17.3332H4.50391C3.39714 17.3332 2.51823 16.5194 2.42057 15.4126L1.63932 4.83317H1.28125C0.825521 4.83317 0.5 4.50765 0.5 4.05192C0.5 3.62874 0.825521 3.27067 1.28125 3.27067H3.52734L4.73177 1.48031C5.05729 0.992025 5.64323 0.666504 6.26172 0.666504H9.28906C9.90755 0.666504 10.4935 0.992025 10.819 1.48031L12.0234 3.27067H14.3021ZM6.26172 2.229C6.16406 2.229 6.06641 2.29411 6.03385 2.35921L5.41536 3.27067H10.1354L9.51693 2.35921C9.48438 2.29411 9.38672 2.229 9.28906 2.229H6.26172ZM12.349 4.83317H3.20182L3.98307 15.3149C4.01563 15.5754 4.24349 15.7707 4.50391 15.7707H11.0469C11.3073 15.7707 11.5352 15.5754 11.5677 15.3149L12.349 4.83317Z" fill="#7C879C"/>
</svg>
