<svg width="18" height="18" viewBox="0 0 18 18" fill="none" xmlns="http://www.w3.org/2000/svg">
<path d="M15.2498 10.5623H13.492L11.9295 12.1248H15.2498C15.5103 12.1248 15.7707 12.3853 15.7707 12.6457V15.2498C15.7707 15.5428 15.5103 15.7707 15.2498 15.7707H2.74984C2.45687 15.7707 2.229 15.5428 2.229 15.2498V12.6457C2.229 12.3853 2.45687 12.1248 2.74984 12.1248H6.0376L4.4751 10.5623H2.74984C1.57796 10.5623 0.666504 11.5063 0.666504 12.6457V15.2498C0.666504 16.4217 1.57796 17.3332 2.74984 17.3332H15.2498C16.3892 17.3332 17.3332 16.4217 17.3332 15.2498V12.6457C17.3332 11.5063 16.3892 10.5623 15.2498 10.5623ZM14.729 13.9478C14.729 13.5246 14.3709 13.1665 13.9478 13.1665C13.492 13.1665 13.1665 13.5246 13.1665 13.9478C13.1665 14.4035 13.492 14.729 13.9478 14.729C14.3709 14.729 14.729 14.4035 14.729 13.9478ZM8.44645 12.6782C8.57666 12.841 8.77197 12.9061 8.99984 12.9061C9.19515 12.9061 9.39046 12.841 9.52067 12.6782L13.9478 8.25114C14.2733 7.95817 14.2733 7.46989 13.9478 7.17692C13.6548 6.8514 13.1665 6.8514 12.8735 7.17692L9.78109 10.2694V1.44775C9.78109 1.02458 9.42301 0.666504 8.99984 0.666504C8.54411 0.666504 8.21859 1.02458 8.21859 1.44775V10.2694L5.09359 7.14437C4.76807 6.8514 4.27979 6.8514 3.98682 7.14437C3.6613 7.46989 3.6613 7.95817 3.98682 8.25114L8.44645 12.6782Z" fill="#1D2939"/>
</svg>
