<svg width="16" height="16" viewBox="0 0 18 18" fill="none" xmlns="http://www.w3.org/2000/svg">
<path d="M2.57894 11.1727L12.4748 1.27686C13.2886 0.463053 14.6232 0.463053 15.437 1.27686L16.7065 2.54639C16.8042 2.64404 16.9019 2.77425 16.967 2.87191C17.5203 3.68571 17.4227 4.79248 16.7065 5.50863L6.81071 15.4045C6.77816 15.437 6.71306 15.4696 6.6805 15.5347C6.35498 15.7951 5.99691 15.9904 5.60628 16.1206L1.66748 17.2599C1.40707 17.3576 1.1141 17.2925 0.918785 17.0646C0.69092 16.8693 0.625816 16.5763 0.69092 16.3159L1.86279 12.3771C1.993 11.9214 2.25342 11.4982 2.57894 11.1727ZM3.36019 12.8328L2.61149 15.3719L5.15056 14.6232C5.34587 14.5581 5.54118 14.4605 5.70394 14.2977L13.1584 6.84326L11.1076 4.82503L3.68571 12.2795C3.65316 12.2795 3.65316 12.312 3.62061 12.3446C3.4904 12.4748 3.4253 12.6375 3.36019 12.8328Z" fill="#626B7F"/>
</svg>
