<svg width="14" height="11" viewBox="0 0 14 11" fill="none" xmlns="http://www.w3.org/2000/svg">
<path d="M0.333374 1.83464C0.333374 0.923177 1.06254 0.167969 2.00004 0.167969H12C12.9115 0.167969 13.6667 0.923177 13.6667 1.83464V8.5013C13.6667 9.4388 12.9115 10.168 12 10.168H2.00004C1.06254 10.168 0.333374 9.4388 0.333374 8.5013V1.83464ZM1.58337 1.83464V2.43359L6.06254 6.10547C6.60942 6.54818 7.36462 6.54818 7.9115 6.10547L12.4167 2.43359V1.83464C12.4167 1.6263 12.2084 1.41797 12 1.41797H2.00004C1.76567 1.41797 1.58337 1.6263 1.58337 1.83464ZM1.58337 4.04818V8.5013C1.58337 8.73568 1.76567 8.91797 2.00004 8.91797H12C12.2084 8.91797 12.4167 8.73568 12.4167 8.5013V4.04818L8.71879 7.06901C7.70317 7.90234 6.27087 7.90234 5.25525 7.06901L1.58337 4.04818Z" fill="#475467"/>
</svg>
