<svg width="14" height="13" viewBox="0 0 14 13" fill="none" xmlns="http://www.w3.org/2000/svg">
<path d="M11.6667 0.5H2.33337C1.80294 0.5 1.29423 0.710714 0.919161 1.08579C0.544088 1.46086 0.333374 1.96957 0.333374 2.5V7.83333C0.333374 8.36377 0.544088 8.87247 0.919161 9.24755C1.29423 9.62262 1.80294 9.83333 2.33337 9.83333H6.33337V11.1667H3.66671C3.4899 11.1667 3.32033 11.2369 3.1953 11.3619C3.07028 11.487 3.00004 11.6565 3.00004 11.8333C3.00004 12.0101 3.07028 12.1797 3.1953 12.3047C3.32033 12.4298 3.4899 12.5 3.66671 12.5H10.3334C10.5102 12.5 10.6798 12.4298 10.8048 12.3047C10.9298 12.1797 11 12.0101 11 11.8333C11 11.6565 10.9298 11.487 10.8048 11.3619C10.6798 11.2369 10.5102 11.1667 10.3334 11.1667H7.66671V9.83333H11.6667C12.1971 9.83333 12.7058 9.62262 13.0809 9.24755C13.456 8.87247 13.6667 8.36377 13.6667 7.83333V2.5C13.6667 1.96957 13.456 1.46086 13.0809 1.08579C12.7058 0.710714 12.1971 0.5 11.6667 0.5ZM12.3334 7.83333C12.3334 8.01014 12.2631 8.17971 12.1381 8.30474C12.0131 8.42976 11.8435 8.5 11.6667 8.5H2.33337C2.15656 8.5 1.98699 8.42976 1.86197 8.30474C1.73695 8.17971 1.66671 8.01014 1.66671 7.83333V2.5C1.66671 2.32319 1.73695 2.15362 1.86197 2.0286C1.98699 1.90357 2.15656 1.83333 2.33337 1.83333H11.6667C11.8435 1.83333 12.0131 1.90357 12.1381 2.0286C12.2631 2.15362 12.3334 2.32319 12.3334 2.5V7.83333Z" fill="#475467"/>
</svg>
