<svg width="16" height="16" viewBox="0 0 16 16" fill="none" xmlns="http://www.w3.org/2000/svg">
<path d="M8 0.75C3.83984 0.75 0.5 4.11914 0.5 8.25C0.5 12.4102 3.83984 15.75 8 15.75C12.1309 15.75 15.5 12.4102 15.5 8.25C15.5 4.11914 12.1309 0.75 8 0.75ZM8 14.3438C4.63086 14.3438 1.90625 11.6191 1.90625 8.25C1.90625 4.91016 4.63086 2.15625 8 2.15625C11.3398 2.15625 14.0938 4.91016 14.0938 8.25C14.0938 11.6191 11.3398 14.3438 8 14.3438ZM8 9.65625C8.38086 9.65625 8.70312 9.36328 8.70312 8.95312V5.20312C8.70312 4.82227 8.38086 4.5 8 4.5C7.58984 4.5 7.29688 4.82227 7.29688 5.20312V8.95312C7.29688 9.36328 7.58984 9.65625 8 9.65625ZM8 10.6523C7.47266 10.6523 7.0625 11.0625 7.0625 11.5605C7.0625 12.0586 7.47266 12.4688 8 12.4688C8.49805 12.4688 8.9082 12.0586 8.9082 11.5605C8.9082 11.0625 8.49805 10.6523 8 10.6523Z" fill="#F04438"/>
</svg>
