<svg width="19" height="14" viewBox="0 0 19 14" fill="none" xmlns="http://www.w3.org/2000/svg">
<path fill-rule="evenodd" clip-rule="evenodd" d="M2.10556 7.00513C2.18752 7.14678 2.29619 7.32729 2.43081 7.53573C2.77658 8.07111 3.28862 8.78307 3.9534 9.49217C5.29664 10.925 7.17463 12.2551 9.5 12.2551C11.8254 12.2551 13.7034 10.925 15.0466 9.49217C15.7114 8.78307 16.2234 8.07111 16.5692 7.53573C16.7038 7.32729 16.8125 7.14678 16.8944 7.00513C16.8125 6.86348 16.7038 6.68296 16.5692 6.47452C16.2234 5.93914 15.7114 5.22718 15.0466 4.51808C13.7034 3.0853 11.8254 1.75513 9.5 1.75513C7.17463 1.75513 5.29664 3.0853 3.9534 4.51808C3.28862 5.22718 2.77658 5.93914 2.43081 6.47452C2.29619 6.68296 2.18752 6.86348 2.10556 7.00513ZM17.75 7.00513C18.4208 6.66972 18.4207 6.66946 18.4206 6.66919L18.4193 6.66678L18.4168 6.66166L18.4082 6.645C18.4011 6.63108 18.391 6.61161 18.3779 6.58696C18.3518 6.53765 18.314 6.46755 18.2645 6.37962C18.1657 6.20386 18.0201 5.95626 17.8292 5.66073C17.4485 5.07111 16.8824 4.28307 16.1409 3.49217C14.6716 1.92496 12.4246 0.255127 9.5 0.255127C6.57537 0.255127 4.32836 1.92496 2.8591 3.49217C2.11763 4.28307 1.55155 5.07111 1.17075 5.66073C0.979888 5.95626 0.834344 6.20386 0.735479 6.37962C0.686018 6.46755 0.648155 6.53765 0.622065 6.58696C0.609018 6.61161 0.598906 6.63108 0.591753 6.645L0.583242 6.66166L0.580654 6.66678L0.579778 6.66852C0.57964 6.6688 0.57918 6.66972 1.25 7.00513L0.57918 6.66972C0.473607 6.88086 0.473607 7.12939 0.57918 7.34054L1.25 7.00513C0.57918 7.34054 0.579042 7.34026 0.57918 7.34054L0.580654 7.34348L0.583242 7.3486L0.591753 7.36526C0.598906 7.37917 0.609018 7.39864 0.622065 7.4233C0.648155 7.4726 0.686018 7.5427 0.735479 7.63064C0.834344 7.8064 0.979888 8.05399 1.17075 8.34952C1.55155 8.93914 2.11763 9.72718 2.8591 10.5181C4.32836 12.0853 6.57537 13.7551 9.5 13.7551C12.4246 13.7551 14.6716 12.0853 16.1409 10.5181C16.8824 9.72718 17.4485 8.93914 17.8292 8.34952C18.0201 8.05399 18.1657 7.8064 18.2645 7.63064C18.314 7.5427 18.3518 7.4726 18.3779 7.4233C18.391 7.39864 18.4011 7.37917 18.4082 7.36526L18.4168 7.3486L18.4193 7.34348L18.4202 7.34173C18.4204 7.34146 18.4208 7.34054 17.75 7.00513ZM17.75 7.00513L18.4208 7.34054C18.5264 7.12939 18.5261 6.88033 18.4206 6.66919L17.75 7.00513ZM9.5 5.50513C8.67157 5.50513 8 6.1767 8 7.00513C8 7.83355 8.67157 8.50513 9.5 8.50513C10.3284 8.50513 11 7.83355 11 7.00513C11 6.1767 10.3284 5.50513 9.5 5.50513ZM6.5 7.00513C6.5 5.34827 7.84315 4.00513 9.5 4.00513C11.1569 4.00513 12.5 5.34827 12.5 7.00513C12.5 8.66198 11.1569 10.0051 9.5 10.0051C7.84315 10.0051 6.5 8.66198 6.5 7.00513Z" fill="#344054"/>
</svg>
