<svg width="24" height="24" viewBox="0 0 24 24" fill="none" xmlns="http://www.w3.org/2000/svg">
<path d="M2 4.64062C2 3.74219 2.70312 3 3.60156 3H20.3594C21.2578 3 22 3.74219 22 4.64062C22 5.03125 21.8438 5.38281 21.6094 5.65625L15.125 13.6641V19.25C15.125 19.9531 14.5391 20.5 13.8359 20.5C13.5625 20.5 13.2891 20.4219 13.0547 20.2266L9.46094 17.375C9.07031 17.0625 8.875 16.6328 8.875 16.1641V13.6641L2.35156 5.65625C2.11719 5.38281 2 5.03125 2 4.64062ZM4.10938 4.875L10.5156 12.7266C10.6719 12.9219 10.75 13.1172 10.75 13.3125V16.0078L13.25 18V13.3125C13.25 13.1172 13.2891 12.9219 13.4453 12.7266L19.8516 4.875H4.10938Z" fill="#7C879C"/>
</svg>
