<svg width="24" height="24" viewBox="0 0 24 24" fill="none" xmlns="http://www.w3.org/2000/svg">
<path fill-rule="evenodd" clip-rule="evenodd" d="M20 7C21.6569 7 23 5.65685 23 4C23 2.34315 21.6569 1 20 1C18.3432 1 17 2.34315 17 4C17 5.65685 18.3432 7 20 7ZM2 4.64062C2 3.74219 2.70312 3 3.60156 3H15.5C15.3473 3.71331 15.3332 4.12736 15.5 4.875H4.10938L10.5156 12.7266C10.6719 12.9219 10.75 13.1172 10.75 13.3125V16.0078L13.25 18V13.3125C13.25 13.1172 13.2891 12.9219 13.4453 12.7266L17.4501 7.8183C18.0726 8.28628 18.4841 8.42897 19.3066 8.5L15.125 13.6641V19.25C15.125 19.9531 14.5391 20.5 13.8359 20.5C13.5625 20.5 13.2891 20.4219 13.0547 20.2266L9.46094 17.375C9.07031 17.0625 8.875 16.6328 8.875 16.1641V13.6641L2.35156 5.65625C2.11719 5.38281 2 5.03125 2 4.64062Z" fill="#444CE7"/>
</svg>
