<svg width="16" height="16" viewBox="0 0 16 16" fill="none" xmlns="http://www.w3.org/2000/svg">
<path d="M8 0.75C3.83984 0.75 0.5 4.11914 0.5 8.25C0.5 12.4102 3.83984 15.75 8 15.75C12.1309 15.75 15.5 12.4102 15.5 8.25C15.5 4.11914 12.1309 0.75 8 0.75ZM8 14.3438C4.63086 14.3438 1.90625 11.6191 1.90625 8.25C1.90625 4.91016 4.63086 2.15625 8 2.15625C11.3398 2.15625 14.0938 4.91016 14.0938 8.25C14.0938 11.6191 11.3398 14.3438 8 14.3438ZM8 10.5938C7.47266 10.5938 7.0625 11.0039 7.0625 11.5312C7.0625 12.0586 7.44336 12.4688 8 12.4688C8.49805 12.4688 8.9375 12.0586 8.9375 11.5312C8.9375 11.0039 8.49805 10.5938 8 10.5938ZM8.9668 4.5H7.47266C6.33008 4.5 5.42188 5.4082 5.42188 6.55078C5.42188 6.93164 5.74414 7.25391 6.125 7.25391C6.50586 7.25391 6.82812 6.93164 6.82812 6.55078C6.82812 6.19922 7.0918 5.90625 7.44336 5.90625H8.9375C9.31836 5.90625 9.64062 6.19922 9.64062 6.55078C9.64062 6.78516 9.52344 6.99023 9.31836 7.10742L7.64844 8.10352C7.41406 8.25 7.29688 8.48438 7.29688 8.71875V9.1875C7.29688 9.56836 7.61914 9.89062 8 9.89062C8.38086 9.89062 8.70312 9.56836 8.70312 9.1875V9.12891L10.0215 8.30859C10.6367 7.92773 11.0176 7.25391 11.0176 6.55078C11.0469 5.4082 10.1387 4.5 8.9668 4.5Z" fill="#7C879C"/>
</svg>
