<svg width="24" height="24" viewBox="0 0 24 24" fill="none" xmlns="http://www.w3.org/2000/svg">
<path d="M6.66894 7.23945C8.7163 5.65846 11.6616 5.79899 13.5294 7.62592C15.0739 9.13664 15.4331 11.4203 14.571 13.2824L16.2233 14.5472L19.6356 11.2095C20.9646 9.87444 20.9646 7.76645 19.6356 6.43139C18.3425 5.20172 16.2951 5.13146 14.9302 6.29085L14.7147 6.46652C14.3555 6.78272 13.8168 6.74759 13.4935 6.39625C13.1702 6.04492 13.2061 5.51792 13.5653 5.20172L13.7808 5.02606C15.8282 3.2694 18.9172 3.3748 20.8568 5.23686C22.8683 7.20432 22.8683 10.4014 20.8568 12.404L17.5882 15.6012L22.6527 19.5009C23.0478 19.782 23.1197 20.309 22.7964 20.6603C22.5091 21.0468 21.9703 21.1171 21.6111 20.8009L0.347258 4.49906C-0.0478467 4.218 -0.119684 3.691 0.203584 3.33966C0.490933 2.9532 1.02971 2.88293 1.3889 3.19913L6.66894 7.23945ZM8.10569 8.32858L13.1702 12.1932C13.5294 11.0338 13.2421 9.73391 12.3082 8.82045C11.1588 7.69618 9.39876 7.52052 8.10569 8.32858ZM9.4706 16.3741C8.39304 15.3201 7.89018 13.9148 7.96201 12.5094L9.90162 14.0202C10.0812 14.4418 10.3326 14.8282 10.6918 15.1796C11.2306 15.7417 11.949 16.0579 12.6674 16.1282L14.607 17.6389C12.8469 18.1659 10.8714 17.7443 9.4706 16.3741ZM4.19055 9.59338L5.55546 10.6474L3.36443 12.7905C2.03544 14.1256 2.03544 16.2336 3.36443 17.5686C4.6575 18.7983 6.70486 18.8685 8.06977 17.7091L8.28528 17.5335C8.64447 17.2173 9.18325 17.2524 9.50651 17.6037C9.82978 17.9551 9.79386 18.4821 9.43468 18.7983L9.21917 18.9739C7.1718 20.7306 4.0828 20.6252 2.14319 18.7631C0.131747 16.7957 0.131747 13.5634 2.14319 11.596L4.19055 9.59338Z" fill="#7C879C"/>
</svg>
