<svg width="4" height="16" viewBox="0 0 4 16" fill="none" xmlns="http://www.w3.org/2000/svg">
<path fill-rule="evenodd" clip-rule="evenodd" d="M0.333008 2.16667C0.333008 1.24619 1.0792 0.5 1.99967 0.5C2.92015 0.5 3.66634 1.24619 3.66634 2.16667C3.66634 3.08714 2.92015 3.83333 1.99967 3.83333C1.0792 3.83333 0.333008 3.08714 0.333008 2.16667ZM0.333008 8C0.333008 7.07953 1.0792 6.33333 1.99967 6.33333C2.92015 6.33333 3.66634 7.07953 3.66634 8C3.66634 8.92047 2.92015 9.66667 1.99967 9.66667C1.0792 9.66667 0.333008 8.92047 0.333008 8ZM0.333008 13.8333C0.333008 12.9129 1.0792 12.1667 1.99967 12.1667C2.92015 12.1667 3.66634 12.9129 3.66634 13.8333C3.66634 14.7538 2.92015 15.5 1.99967 15.5C1.0792 15.5 0.333008 14.7538 0.333008 13.8333Z" fill="#626B7F"/>
</svg>
