<svg width="24" height="24" viewBox="0 0 24 24" fill="none" xmlns="http://www.w3.org/2000/svg">
<path d="M3 7.75C2.375 7.40625 2 6.75 2 6C2 4.90625 2.875 4 4 4C4.71875 4 5.375 4.40625 5.71875 5H12.25C12.5938 4.40625 13.25 4 14 4C15.0938 4 16 4.90625 16 6C16 6.75 15.5938 7.40625 15 7.75V11.2812C15.5938 11.625 16 12.2812 16 13C16 14.125 15.0938 15 14 15C13.25 15 12.5938 14.625 12.25 14H5.71875C5.375 14.625 4.71875 15 4 15C2.875 15 2 14.125 2 13C2 12.2812 2.375 11.625 3 11.2812V7.75ZM5 7.75V11.2812C5.28125 11.4688 5.53125 11.7188 5.71875 12H12.25C12.4375 11.7188 12.6875 11.4688 13 11.2812V7.75C12.6875 7.5625 12.4375 7.3125 12.25 7H5.71875C5.53125 7.3125 5.28125 7.5625 5 7.75ZM11.7188 19C11.375 19.625 10.7188 20 10 20C8.875 20 8 19.125 8 18C8 17.2812 8.375 16.625 9 16.2812V15H11V16.2812C11.2812 16.4688 11.5312 16.7188 11.7188 17H18.25C18.4375 16.7188 18.6875 16.4688 19 16.2812V12.75C18.6875 12.5625 18.4375 12.3125 18.25 12H16.8125C16.6562 11.5312 16.3438 11.125 16 10.7812V10H18.25C18.5938 9.40625 19.25 9 20 9C21.0938 9 22 9.90625 22 11C22 11.75 21.5938 12.4062 21 12.75V16.2812C21.5938 16.625 22 17.2812 22 18C22 19.125 21.0938 20 20 20C19.25 20 18.5938 19.625 18.25 19H11.7188Z" fill="#7C879C"/>
</svg>
