<svg width="24" height="24" viewBox="0 0 24 24" fill="none" xmlns="http://www.w3.org/2000/svg">
<path d="M5.75 8C5.75 7.33594 6.29688 6.75 7 6.75H12C12.6641 6.75 13.25 7.33594 13.25 8V11.75C13.25 12.4531 12.6641 13 12 13H7C6.29688 13 5.75 12.4531 5.75 11.75V8ZM12 14.25C13.3672 14.25 14.5 13.1562 14.5 11.75V10.5H17C17.6641 10.5 18.25 11.0859 18.25 11.75V15.5C18.25 16.2031 17.6641 16.75 17 16.75H12C11.2969 16.75 10.75 16.2031 10.75 15.5V14.25H12ZM2.625 6.28125C2.23438 5.92969 2 5.46094 2 4.875C2 3.85938 2.82031 3 3.875 3C4.42188 3 4.89062 3.27344 5.24219 3.625H18.7188C19.0703 3.27344 19.5391 3 20.125 3C21.1406 3 22 3.85938 22 4.875C22 5.46094 21.7266 5.92969 21.375 6.28125V17.2578C21.7266 17.5703 22 18.0781 22 18.625C22 19.6797 21.1406 20.5 20.125 20.5C19.5391 20.5 19.0703 20.2656 18.7188 19.875H5.24219C4.89062 20.2656 4.42188 20.5 3.875 20.5C2.82031 20.5 2 19.6797 2 18.625C2 18.0781 2.23438 17.5703 2.625 17.2578V6.28125ZM4.5 6.67188V16.8672C5.00781 17.0625 5.4375 17.4922 5.63281 18H18.3281C18.5234 17.4922 18.9531 17.0625 19.5 16.8672V6.67188C18.9531 6.47656 18.5234 6.04688 18.3281 5.5H5.63281C5.4375 6.04688 5.00781 6.47656 4.5 6.67188Z" fill="#7C879C"/>
</svg>
