<svg width="18" height="18" viewBox="0 0 18 18" fill="none" xmlns="http://www.w3.org/2000/svg">
<path d="M2.57845 11.1727L12.4743 1.27686C13.2881 0.463053 14.6227 0.463053 15.4365 1.27686L16.7061 2.54639C16.8037 2.64404 16.9014 2.77425 16.9665 2.87191C17.5199 3.68571 17.4222 4.79248 16.7061 5.50863L6.81022 15.4045C6.77767 15.437 6.71257 15.4696 6.68002 15.5347C6.35449 15.7951 5.99642 15.9904 5.6058 16.1206L1.66699 17.2599C1.40658 17.3576 1.11361 17.2925 0.918296 17.0646C0.690432 16.8693 0.625328 16.5763 0.690432 16.3159L1.86231 12.3771C1.99252 11.9214 2.25293 11.4982 2.57845 11.1727ZM3.3597 12.8328L2.611 15.3719L5.15007 14.6232C5.34538 14.5581 5.54069 14.4605 5.70345 14.2977L13.1579 6.84326L11.1071 4.82503L3.68522 12.2795C3.65267 12.2795 3.65267 12.312 3.62012 12.3446C3.48991 12.4748 3.42481 12.6375 3.3597 12.8328Z" fill="#1D2939"/>
</svg>
