<svg width="20" height="20" viewBox="0 0 20 20" fill="none" xmlns="http://www.w3.org/2000/svg">
<path fill-rule="evenodd" clip-rule="evenodd" d="M10 3.33334C10.4603 3.33334 10.8334 3.70644 10.8334 4.16668V9.16668H15.8334C16.2936 9.16668 16.6667 9.53977 16.6667 10C16.6667 10.4602 16.2936 10.8333 15.8334 10.8333H10.8334V15.8333C10.8334 16.2936 10.4603 16.6667 10 16.6667C9.5398 16.6667 9.16671 16.2936 9.16671 15.8333V10.8333H4.16671C3.70647 10.8333 3.33337 10.4602 3.33337 10C3.33337 9.53977 3.70647 9.16668 4.16671 9.16668H9.16671V4.16668C9.16671 3.70644 9.5398 3.33334 10 3.33334Z" fill="#626B7F"/>
</svg>
