<svg width="14" height="14" viewBox="0 0 14 14" fill="none" xmlns="http://www.w3.org/2000/svg">
<path d="M12.0625 0.4375C12.9854 0.4375 13.75 1.20215 13.75 2.125V12.25C13.75 13.1992 12.9854 13.9375 12.0625 13.9375H1.9375C0.988281 13.9375 0.25 13.1992 0.25 12.25V5.5C0.25 4.57715 0.988281 3.8125 1.9375 3.8125H5.3125V2.125C5.3125 1.20215 6.05078 0.4375 7 0.4375H12.0625ZM1.9375 9.29688C1.9375 9.53418 2.12207 9.71875 2.35938 9.71875H3.20312C3.41406 9.71875 3.625 9.53418 3.625 9.29688V8.45312C3.625 8.24219 3.41406 8.03125 3.20312 8.03125H2.35938C2.12207 8.03125 1.9375 8.24219 1.9375 8.45312V9.29688ZM8.26562 8.875C8.47656 8.875 8.6875 8.69043 8.6875 8.45312V7.60938C8.6875 7.39844 8.47656 7.1875 8.26562 7.1875H7.42188C7.18457 7.1875 7 7.39844 7 7.60938V8.45312C7 8.69043 7.18457 8.875 7.42188 8.875H8.26562ZM10.375 8.45312C10.375 8.69043 10.5596 8.875 10.7969 8.875H11.6406C11.8516 8.875 12.0625 8.69043 12.0625 8.45312V7.60938C12.0625 7.39844 11.8516 7.1875 11.6406 7.1875H10.7969C10.5596 7.1875 10.375 7.39844 10.375 7.60938V8.45312ZM2.35938 5.5C2.12207 5.5 1.9375 5.71094 1.9375 5.92188V6.76562C1.9375 7.00293 2.12207 7.1875 2.35938 7.1875H3.20312C3.41406 7.1875 3.625 7.00293 3.625 6.76562V5.92188C3.625 5.71094 3.41406 5.5 3.20312 5.5H2.35938ZM7 3.39062C7 3.62793 7.18457 3.8125 7.42188 3.8125H8.26562C8.47656 3.8125 8.6875 3.62793 8.6875 3.39062V2.54688C8.6875 2.33594 8.47656 2.125 8.26562 2.125H7.42188C7.18457 2.125 7 2.33594 7 2.54688V3.39062ZM10.7969 2.125C10.5596 2.125 10.375 2.33594 10.375 2.54688V3.39062C10.375 3.62793 10.5596 3.8125 10.7969 3.8125H11.6406C11.8516 3.8125 12.0625 3.62793 12.0625 3.39062V2.54688C12.0625 2.33594 11.8516 2.125 11.6406 2.125H10.7969ZM7 5.92188C7 6.15918 7.18457 6.34375 7.42188 6.34375H8.26562C8.47656 6.34375 8.6875 6.15918 8.6875 5.92188V5.07812C8.6875 4.86719 8.47656 4.65625 8.26562 4.65625H7.42188C7.18457 4.65625 7 4.86719 7 5.07812V5.92188ZM11.6406 6.34375C11.8516 6.34375 12.0625 6.15918 12.0625 5.92188V5.07812C12.0625 4.86719 11.8516 4.65625 11.6406 4.65625H10.7969C10.5596 4.65625 10.375 4.86719 10.375 5.07812V5.92188C10.375 6.15918 10.5596 6.34375 10.7969 6.34375H11.6406Z" fill="#667085"/>
</svg>
