<svg width="16" height="18" viewBox="0 0 16 18" fill="none" xmlns="http://www.w3.org/2000/svg">
<path fill-rule="evenodd" clip-rule="evenodd" d="M8 2.33329C6.61929 2.33329 5.5 3.45258 5.5 4.83329C5.5 6.214 6.61929 7.33329 8 7.33329C9.38071 7.33329 10.5 6.214 10.5 4.83329C10.5 3.45258 9.38071 2.33329 8 2.33329ZM3.83333 4.83329C3.83333 2.53211 5.69881 0.666626 8 0.666626C10.3012 0.666626 12.1667 2.53211 12.1667 4.83329C12.1667 7.13448 10.3012 8.99996 8 8.99996C5.69881 8.99996 3.83333 7.13448 3.83333 4.83329ZM1.72039 11.887C2.50179 11.1056 3.5616 10.6666 4.66667 10.6666H11.3333C12.4384 10.6666 13.4982 11.1056 14.2796 11.887C15.061 12.6684 15.5 13.7282 15.5 14.8333V16.5C15.5 16.9602 15.1269 17.3333 14.6667 17.3333C14.2064 17.3333 13.8333 16.9602 13.8333 16.5V14.8333C13.8333 14.1703 13.5699 13.5344 13.1011 13.0655C12.6323 12.5967 11.9964 12.3333 11.3333 12.3333H4.66667C4.00363 12.3333 3.36774 12.5967 2.8989 13.0655C2.43006 13.5344 2.16667 14.1703 2.16667 14.8333V16.5C2.16667 16.9602 1.79357 17.3333 1.33333 17.3333C0.873096 17.3333 0.5 16.9602 0.5 16.5V14.8333C0.5 13.7282 0.938987 12.6684 1.72039 11.887Z" fill="#7C879C"/>
</svg>
