<svg width="19" height="18" viewBox="0 0 19 18" fill="none" xmlns="http://www.w3.org/2000/svg">
<path d="M17.9934 16.3486L13.4088 11.7686C14.401 10.5723 14.9484 9.03418 14.9484 7.35938C14.9484 3.46289 11.7324 0.25 7.83211 0.25C3.89761 0.25 0.75 3.46289 0.75 7.35938C0.75 11.29 3.93182 14.4688 7.83211 14.4688C9.47434 14.4688 11.0139 13.9219 12.2456 12.9307L16.8302 17.5107C17.0012 17.6816 17.2065 17.75 17.446 17.75C17.6513 17.75 17.8566 17.6816 17.9934 17.5107C18.3355 17.2031 18.3355 16.6904 17.9934 16.3486ZM2.39223 7.35938C2.39223 4.35156 4.82136 1.89062 7.86632 1.89062C10.8771 1.89062 13.3404 4.35156 13.3404 7.35938C13.3404 10.4014 10.8771 12.8281 7.86632 12.8281C4.82136 12.8281 2.39223 10.4014 2.39223 7.35938Z" fill="#7C879C"/>
</svg>
