<svg width="20" height="18" viewBox="0 0 20 18" fill="none" xmlns="http://www.w3.org/2000/svg">
<path d="M19.9515 7.68397L17.2934 0.978246C17.1683 0.717829 16.8869 0.587621 16.6367 0.717829L12.9466 2.28033C12.6964 2.41054 12.5713 2.70351 12.6964 2.96392L12.7902 3.22434L2.31413 8.49778C2.03268 8.62799 1.90759 8.92095 2.03268 9.18137L2.28285 9.86496L0.281448 10.7439C0.125088 10.809 0 11.0368 0 11.2322C0 11.2647 0 11.3624 0.031272 11.4275L0.656711 12.99C0.719255 13.1853 0.938159 13.3155 1.12579 13.3155C1.15706 13.3155 1.25088 13.3155 1.31342 13.2829L3.31483 12.404L3.565 13.0876C3.69009 13.348 3.97154 13.4782 4.25299 13.3806L8.22453 11.9483C8.22453 11.9809 8.22453 11.9809 8.22453 11.9809L6.78602 16.2452C6.62966 16.6358 6.84856 17.0915 7.25509 17.2217C7.31764 17.2868 7.41145 17.2868 7.474 17.2868C7.75545 17.2868 8.06817 17.0915 8.16198 16.766L9.50668 12.8272C9.66304 12.8598 9.8194 12.8598 9.97575 12.8598C10.1321 12.8598 10.2572 12.8598 10.4136 12.8272L11.7583 16.766C11.8833 17.0915 12.1961 17.2868 12.4775 17.2868C12.5401 17.2868 12.6339 17.2868 12.7277 17.2543C13.103 17.1241 13.3219 16.6684 13.1655 16.2452L11.727 11.9809C12.0397 11.5902 12.2273 11.0694 12.2273 10.5486C12.2273 10.516 12.2273 10.516 12.2273 10.516L15.2294 9.40924L15.3233 9.66965C15.4483 9.93007 15.7298 10.0603 15.98 9.96262L19.6701 8.36757C19.9515 8.26991 20.0766 7.94439 19.9515 7.68397ZM9.97575 11.2973C9.53795 11.2973 9.22523 10.9392 9.22523 10.516C9.22523 10.0603 9.53795 9.73476 9.97575 9.73476C10.3823 9.73476 10.7263 10.0603 10.7263 10.516C10.7263 10.9392 10.4136 11.2973 9.97575 11.2973ZM11.727 9.05116C11.2892 8.53033 10.695 8.17226 9.97575 8.17226C8.75615 8.17226 7.78672 9.21392 7.75545 10.4835L4.59698 11.5902L3.78391 9.50689L13.3531 4.62408L14.6978 7.97694L11.727 9.05116ZM16.3552 8.10715L14.4164 3.28944L16.2614 2.50819L18.169 7.3259L16.3552 8.10715Z" fill="#1D2939"/>
</svg>
