<svg width="6" height="7" viewBox="0 0 6 7" fill="none" xmlns="http://www.w3.org/2000/svg">
<g clip-path="url(#clip0_14628_403983)">
<path d="M2 1.75C2 1.48478 2.10536 1.23043 2.29289 1.04289C2.48043 0.855357 2.73478 0.75 3 0.75C3.26522 0.75 3.51957 0.855357 3.70711 1.04289C3.89464 1.23043 4 1.48478 4 1.75V3.06375C4.30575 3.27664 4.53557 3.58156 4.65602 3.93412C4.77647 4.28667 4.78126 4.66847 4.66969 5.02394C4.55813 5.37941 4.33603 5.68999 4.03572 5.91049C3.73541 6.13099 3.37257 6.24989 3 6.24989C2.62744 6.24989 2.26459 6.13099 1.96428 5.91049C1.66398 5.68999 1.44187 5.37941 1.33031 5.02394C1.21874 4.66847 1.22353 4.28667 1.34398 3.93412C1.46443 3.58156 1.69425 3.27664 2 3.06375V1.75ZM2.286 3.47375C2.06754 3.62577 1.90331 3.84356 1.81721 4.09539C1.73112 4.34723 1.72765 4.61997 1.80731 4.87392C1.88697 5.12786 2.04561 5.34975 2.26013 5.50728C2.47465 5.66482 2.73385 5.74976 3 5.74976C3.26615 5.74976 3.52535 5.66482 3.73987 5.50728C3.95439 5.34975 4.11303 5.12786 4.19269 4.87392C4.27235 4.61997 4.26888 4.34723 4.18279 4.09539C4.09669 3.84356 3.93246 3.62577 3.714 3.47375L3.5 3.3245V1.75C3.5 1.61739 3.44732 1.49021 3.35355 1.39645C3.25979 1.30268 3.13261 1.25 3 1.25C2.86739 1.25 2.74022 1.30268 2.64645 1.39645C2.55268 1.49021 2.5 1.61739 2.5 1.75V3.3245L2.286 3.47375ZM2 4.5H4C4 4.76522 3.89464 5.01957 3.70711 5.20711C3.51957 5.39464 3.26522 5.5 3 5.5C2.73478 5.5 2.48043 5.39464 2.29289 5.20711C2.10536 5.01957 2 4.76522 2 4.5Z" fill="#5F8EFC"/>
</g>
<defs>
<clipPath id="clip0_14628_403983">
<rect width="6" height="6" fill="white" transform="translate(0 0.5)"/>
</clipPath>
</defs>
</svg>
