<svg width="14" height="15" viewBox="0 0 14 15" fill="none" xmlns="http://www.w3.org/2000/svg">
<path d="M11.2259 8.42285L7.39782 12.4333C7.28389 12.5472 7.14717 12.5928 7.01045 12.5928C6.85094 12.5928 6.71422 12.5472 6.60029 12.4333L2.77217 8.42285C2.56709 8.19499 2.56709 7.85319 2.79495 7.64811C3.00003 7.44303 3.36461 7.44303 3.56969 7.6709L6.46357 10.7015V2.9541C6.46357 2.63509 6.69144 2.40723 6.98766 2.40723C7.2611 2.40723 7.55732 2.63509 7.55732 2.9541V10.7015L10.4284 7.6709C10.6335 7.44303 10.9981 7.44303 11.2032 7.64811C11.431 7.85319 11.431 8.19499 11.2259 8.42285Z" fill="#2955E7"/>
</svg>
