<svg width="10" height="11" viewBox="0 0 10 11" fill="none" xmlns="http://www.w3.org/2000/svg">
<path d="M0.772167 4.57715L4.60029 0.566732C4.71422 0.452799 4.85094 0.407227 5.01045 0.407227C5.14717 0.407227 5.28389 0.452799 5.39782 0.566732L9.22594 4.57715C9.43102 4.80501 9.43102 5.14681 9.20316 5.35189C8.99808 5.55697 8.63349 5.55697 8.42842 5.3291L5.55732 2.2985V10.0459C5.55732 10.3649 5.30667 10.5928 5.01045 10.5928C4.73701 10.5928 4.46357 10.3649 4.46357 10.0459V2.2985L1.56969 5.3291C1.36461 5.55697 1.00003 5.55697 0.794953 5.35189C0.567088 5.14681 0.567088 4.78223 0.772167 4.57715Z" fill="#C01048"/>
</svg>
