<svg width="12" height="12" viewBox="0 0 12 12" fill="none" xmlns="http://www.w3.org/2000/svg">
<path d="M6 0C2.67188 0 0 2.69531 0 6C0 9.32812 2.67188 12 6 12C9.30469 12 12 9.32812 12 6C12 2.69531 9.30469 0 6 0ZM6 10.875C3.30469 10.875 1.125 8.69531 1.125 6C1.125 3.32812 3.30469 1.125 6 1.125C8.67188 1.125 10.875 3.32812 10.875 6C10.875 8.69531 8.67188 10.875 6 10.875ZM6.9375 7.875H6.5625V5.8125C6.5625 5.50781 6.30469 5.25 6 5.25H5.25C4.92188 5.25 4.6875 5.50781 4.6875 5.8125C4.6875 6.14062 4.92188 6.375 5.25 6.375H5.4375V7.875H5.0625C4.73438 7.875 4.5 8.13281 4.5 8.4375C4.5 8.76562 4.73438 9 5.0625 9H6.9375C7.24219 9 7.5 8.76562 7.5 8.4375C7.5 8.13281 7.24219 7.875 6.9375 7.875ZM6 4.5C6.39844 4.5 6.75 4.17188 6.75 3.75C6.75 3.35156 6.39844 3 6 3C5.57812 3 5.25 3.35156 5.25 3.75C5.25 4.17188 5.57812 4.5 6 4.5Z" fill="#626B7F"/>
</svg>
