<svg width="24" height="24" viewBox="0 0 24 24" fill="none" xmlns="http://www.w3.org/2000/svg">
<path d="M21.8072 18.0391L13.4868 3.82031C13.1353 3.27344 12.5884 3 12.0415 3C11.4556 3 10.9087 3.27344 10.5572 3.82031L2.19778 18.0391C1.61185 19.1328 2.3931 20.5 3.68216 20.5H20.3618C21.6509 20.5 22.4322 19.1328 21.8072 18.0391ZM4.07278 18.625L12.0025 5.07031L19.9712 18.625H4.07278ZM12.0415 14.9531C11.3384 14.9531 10.7915 15.5 10.7915 16.1641C10.7915 16.8281 11.3384 17.375 12.0415 17.375C12.7056 17.375 13.2525 16.8281 13.2525 16.1641C13.2525 15.5 12.7056 14.9531 12.0415 14.9531ZM11.104 8.9375V12.6875C11.104 13.2344 11.4947 13.625 12.0415 13.625C12.5493 13.625 12.979 13.2344 12.979 12.6875V8.9375C12.979 8.42969 12.5493 8 12.0415 8C11.4947 8 11.104 8.42969 11.104 8.9375Z" fill="#7C879C"/>
</svg>
