<svg width="17" height="16" viewBox="0 0 17 16" fill="none" xmlns="http://www.w3.org/2000/svg">
    <g opacity="0.5" clip-path="url(#clip0_15170_160539)">
        <path d="M6.931 8.00016C7.28433 8.0935 7.49767 8.46016 7.40433 8.8135L6.53767 12.0335C6.44433 12.3935 6.07767 12.6002 5.72433 12.5068C5.63955 12.4856 5.55998 12.4473 5.49045 12.3944C5.42091 12.3415 5.36287 12.2749 5.31984 12.1988C5.27682 12.1228 5.24971 12.0387 5.24017 11.9519C5.23063 11.865 5.23885 11.7771 5.26433 11.6935L6.11767 8.4735C6.211 8.1135 6.57767 7.90683 6.931 8.00016M9.59767 8.00016C9.951 8.0935 10.1643 8.46016 10.071 8.8135L8.691 13.9668C8.59767 14.3335 8.231 14.5335 7.871 14.4402C7.51767 14.3335 7.30433 13.9802 7.39767 13.6202L8.78433 8.4735C8.87767 8.1135 9.24433 7.90683 9.59767 8.00016ZM12.2643 8.00016C12.6177 8.0935 12.831 8.46016 12.7377 8.8135L11.871 12.0335C11.7777 12.3935 11.411 12.6002 11.0577 12.5068C10.9729 12.4856 10.8933 12.4473 10.8238 12.3944C10.7542 12.3415 10.6962 12.2749 10.6532 12.1988C10.6102 12.1228 10.583 12.0387 10.5735 11.9519C10.564 11.865 10.5722 11.7771 10.5977 11.6935L11.451 8.4735C11.5443 8.1135 11.911 7.90683 12.2643 8.00016M12.2643 6.66683V6.00016C12.2643 5.11611 11.9131 4.26826 11.288 3.64314C10.6629 3.01802 9.81505 2.66683 8.931 2.66683C7.26433 2.66683 5.89767 3.88016 5.63767 5.46016C5.41767 5.38016 5.17767 5.3335 4.931 5.3335C4.40057 5.3335 3.89186 5.54421 3.51678 5.91928C3.14171 6.29436 2.931 6.80306 2.931 7.3335C2.931 8.0735 3.331 8.72016 3.931 9.06683V9.06016C4.26433 9.24683 4.35767 9.66683 4.17766 9.9735C3.991 10.2868 3.59767 10.4002 3.26433 10.2135V10.2202C2.7567 9.92865 2.33517 9.5081 2.04247 9.00115C1.74978 8.4942 1.59632 7.91887 1.59766 7.3335C1.59766 6.44944 1.94885 5.60159 2.57398 4.97647C3.1991 4.35135 4.04694 4.00016 4.931 4.00016C5.59767 2.4335 7.131 1.3335 8.931 1.3335C11.2177 1.3335 13.091 3.10683 13.2643 5.3535L13.5977 5.3335C14.3049 5.3335 14.9832 5.61445 15.4833 6.11454C15.9834 6.61464 16.2643 7.29292 16.2643 8.00016C16.2643 9.00016 15.731 9.84683 14.931 10.3068C14.5977 10.4868 14.2043 10.3802 14.0177 10.0602C13.8377 9.74016 13.931 9.3335 14.2643 9.14683V9.1535C14.6643 8.92683 14.931 8.4935 14.931 8.00016C14.931 7.64654 14.7905 7.3074 14.5405 7.05735C14.2904 6.80731 13.9513 6.66683 13.5977 6.66683H12.2643V6.66683Z"
              fill="#065986"/>
    </g>
    <defs>
        <clipPath id="clip0_15170_160539">
            <rect width="16" height="16" fill="white" transform="translate(0.931641)"/>
        </clipPath>
    </defs>
</svg>
