<svg width="20" height="14" viewBox="0 0 20 14" fill="none" xmlns="http://www.w3.org/2000/svg">
<path d="M9.98641 10.3335C9.0491 10.3335 8.26801 11.1073 8.26801 12.0002C8.26801 12.9228 9.0491 13.6668 9.98641 13.6668C10.9237 13.6668 11.7673 12.9228 11.7673 12.0002C11.7673 11.1073 10.955 10.3335 9.98641 10.3335ZM19.7657 3.87516C17.2974 1.64302 13.7356 0.333496 10.0177 0.333496C6.26841 0.333496 2.70664 1.64302 0.238387 3.87516C-0.0740495 4.14302 -0.0740495 4.58945 0.207143 4.88707C0.488336 5.18469 0.956991 5.18469 1.26943 4.91683C3.45648 2.92278 6.64334 1.76207 10.0177 1.76207C13.3607 1.76207 16.5476 2.92278 18.7346 4.91683C18.8909 5.03588 19.0783 5.0954 19.2345 5.0954C19.422 5.0954 19.6095 5.03588 19.7657 4.88707C20.0781 4.58945 20.0781 4.14302 19.7657 3.87516ZM10.0177 5.57159C7.61189 5.57159 5.39359 6.40492 3.73768 7.92278C3.42524 8.19064 3.42524 8.66683 3.70643 8.93469C3.98763 9.23231 4.48752 9.23231 4.76872 8.96445C6.14344 7.71445 7.98681 7.00016 10.0177 7.00016C12.0172 7.00016 13.8606 7.71445 15.2353 8.96445C15.3916 9.0835 15.5478 9.14302 15.7352 9.14302C15.9227 9.14302 16.1102 9.0835 16.2664 8.93469C16.5476 8.66683 16.5476 8.19064 16.2351 7.92278C14.6105 6.40492 12.3922 5.57159 10.0177 5.57159Z" fill="#626B7F"/>
</svg>
