<svg width="20" height="18" viewBox="0 0 20 18" fill="none" xmlns="http://www.w3.org/2000/svg">
<path d="M3.74351 10.0042C3.43068 10.2974 3.43068 10.8185 3.71222 11.1117C3.99377 11.4374 4.49429 11.4374 4.77583 11.1443C5.43276 10.4602 6.2461 9.93905 7.09073 9.58075L5.77687 8.50583C5.02609 8.89671 4.33787 9.41788 3.74351 10.0042ZM0.239871 5.57424C-0.0729534 5.8674 -0.0729534 6.356 0.208589 6.68173C0.490131 7.00746 0.959368 7.00746 1.27219 6.7143C1.6163 6.356 1.99169 6.06284 2.39836 5.76968L1.17835 4.75991C0.834238 5.0205 0.521413 5.28108 0.239871 5.57424ZM10 12.6426C9.06153 12.6426 8.27946 13.4895 8.27946 14.4667C8.27946 15.4765 9.06153 16.2908 10 16.2908C10.9698 16.2908 11.7831 15.4765 11.7831 14.4667C11.7831 13.4895 10.9698 12.6426 10 12.6426ZM11.3764 9.12472C12.8467 9.38531 14.1919 10.0693 15.2555 11.1443C15.4119 11.2746 15.5683 11.3397 15.756 11.3397C15.9437 11.3397 16.1314 11.2746 16.2878 11.1117C16.5693 10.8185 16.5693 10.2974 16.2565 10.0042C14.6298 8.34297 12.4087 7.43091 10.0313 7.43091C9.81231 7.43091 9.59333 7.46349 9.37435 7.49606L5.30763 4.17359C6.77791 3.58728 8.37331 3.26154 10.0313 3.26154C13.3785 3.26154 16.5693 4.5319 18.7591 6.7143C18.9155 6.8446 19.1032 6.90974 19.2596 6.90974C19.4473 6.90974 19.635 6.8446 19.7914 6.68173C20.073 6.356 20.073 5.8674 19.7601 5.57424C17.3201 3.13125 13.7539 1.69803 10 1.69803C7.87279 1.69803 5.77687 2.18663 3.9312 3.0661L1.20963 0.851126C0.896803 0.557967 0.427566 0.623114 0.177306 0.981419C-0.104236 1.30715 -0.0416709 1.79575 0.302436 2.05633L18.8217 17.1703C18.9468 17.3006 19.1032 17.3332 19.2596 17.3332C19.4786 17.3332 19.6976 17.2355 19.8227 17.04C20.1042 16.7143 20.0417 16.2257 19.6976 15.9651L11.3764 9.12472Z" fill="#626B7F"/>
</svg>
