<svg width="743" height="60" viewBox="0 0 743 60" fill="none" xmlns="http://www.w3.org/2000/svg">
<rect width="728" height="60" transform="translate(8)" fill="white"/>
<rect x="59.4756" y="59" width="59" height="1.04862" transform="rotate(-90 59.4756 59)" fill="#EAECF0"/>
<rect x="8" y="59" width="104" height="1" fill="#EAECF0"/>
<rect x="163.476" y="59" width="59" height="1.04862" transform="rotate(-90 163.476 59)" fill="#EAECF0"/>
<rect x="112" y="59" width="104" height="1" fill="#EAECF0"/>
<rect x="267.476" y="59" width="59" height="1.04862" transform="rotate(-90 267.476 59)" fill="#EAECF0"/>
<rect x="216" y="59" width="104" height="1" fill="#EAECF0"/>
<rect x="371.476" y="59" width="59" height="1.04862" transform="rotate(-90 371.476 59)" fill="#EAECF0"/>
<rect x="320" y="59" width="104" height="1" fill="#EAECF0"/>
<rect x="475.476" y="59" width="59" height="1.04862" transform="rotate(-90 475.476 59)" fill="#EAECF0"/>
<rect x="424" y="59" width="104" height="1" fill="#EAECF0"/>
<rect x="579.476" y="59" width="59" height="1.04862" transform="rotate(-90 579.476 59)" fill="#EAECF0"/>
<rect x="528" y="59" width="104" height="1" fill="#EAECF0"/>
<rect x="683.476" y="59" width="59" height="1.04862" transform="rotate(-90 683.476 59)" fill="#EAECF0"/>
<rect x="632" y="59" width="104" height="1" fill="#EAECF0"/>
<rect x="6" width="731" height="60" fill="#101828" fill-opacity="0.2"/>
<rect x="1" y="18" width="10" height="24" rx="1" fill="white" stroke="#98A2B3"/>
<rect x="732" y="18" width="10" height="24" rx="1" fill="white" stroke="#98A2B3"/>
</svg>