<svg width="32" height="87" viewBox="0 0 32 87" fill="none" xmlns="http://www.w3.org/2000/svg">
<mask id="path-1-inside-1_24055_767269" fill="white">
<path fill-rule="evenodd" clip-rule="evenodd" d="M0.502491 5.15618C0.414327 2.33493 2.67743 0 5.50005 0H26.1827C29.0053 0 31.2684 2.33493 31.1802 5.15617L30.4927 27.1562C30.4236 29.3686 28.9247 31.2083 26.8993 31.8L24.3414 48H21.3414L20.1539 83.5043C20.0887 85.4536 18.4897 87 16.5394 87C14.6047 87 13.0126 85.4773 12.9264 83.5445L11.3414 48H8.34136L4.93988 31.843C2.83559 31.3022 1.2609 29.4252 1.18999 27.1562L0.502491 5.15618Z"/>
</mask>
<path fill-rule="evenodd" clip-rule="evenodd" d="M0.502491 5.15618C0.414327 2.33493 2.67743 0 5.50005 0H26.1827C29.0053 0 31.2684 2.33493 31.1802 5.15617L30.4927 27.1562C30.4236 29.3686 28.9247 31.2083 26.8993 31.8L24.3414 48H21.3414L20.1539 83.5043C20.0887 85.4536 18.4897 87 16.5394 87C14.6047 87 13.0126 85.4773 12.9264 83.5445L11.3414 48H8.34136L4.93988 31.843C2.83559 31.3022 1.2609 29.4252 1.18999 27.1562L0.502491 5.15618Z" fill="#475467"/>
<path d="M31.1802 5.15617L32.1797 5.18741L31.1802 5.15617ZM30.4927 27.1562L31.4922 27.1874L30.4927 27.1562ZM26.8993 31.8L26.6188 30.8401L26.0104 31.0179L25.9115 31.6441L26.8993 31.8ZM24.3414 48V49H25.1959L25.3291 48.156L24.3414 48ZM21.3414 48V47H20.3743L20.3419 47.9666L21.3414 48ZM20.1539 83.5043L19.1545 83.4709L20.1539 83.5043ZM12.9264 83.5445L13.9254 83.5L12.9264 83.5445ZM11.3414 48L12.3404 47.9555L12.2978 47H11.3414V48ZM8.34136 48L7.36281 48.206L7.52997 49H8.34136V48ZM4.93988 31.843L5.91843 31.6369L5.79045 31.029L5.18877 30.8744L4.93988 31.843ZM5.50005 -1C2.1129 -1 -0.602817 1.80192 -0.497021 5.18741L1.502 5.12494C1.43147 2.86794 3.24195 1 5.50005 1V-1ZM26.1827 -1H5.50005V1H26.1827V-1ZM32.1797 5.18741C32.2855 1.80191 29.5698 -1 26.1827 -1V1C28.4408 1 30.2512 2.86794 30.1807 5.12494L32.1797 5.18741ZM31.4922 27.1874L32.1797 5.18741L30.1807 5.12494L29.4932 27.1249L31.4922 27.1874ZM27.1797 32.7599C29.6096 32.0501 31.4092 29.8436 31.4922 27.1874L29.4932 27.1249C29.4379 28.8936 28.2399 30.3666 26.6188 30.8401L27.1797 32.7599ZM25.3291 48.156L27.887 31.956L25.9115 31.6441L23.3536 47.844L25.3291 48.156ZM21.3414 49H24.3414V47H21.3414V49ZM20.3419 47.9666L19.1545 83.4709L21.1534 83.5378L22.3408 48.0334L20.3419 47.9666ZM19.1545 83.4709C19.1073 84.8811 17.9504 86 16.5394 86V88C19.029 88 21.0702 86.026 21.1534 83.5378L19.1545 83.4709ZM16.5394 86C15.1396 86 13.9878 84.8984 13.9254 83.5L11.9274 83.5891C12.0374 86.0563 14.0697 88 16.5394 88V86ZM13.9254 83.5L12.3404 47.9555L10.3424 48.0445L11.9274 83.5891L13.9254 83.5ZM8.34136 49H11.3414V47H8.34136V49ZM3.96133 32.049L7.36281 48.206L9.31991 47.794L5.91843 31.6369L3.96133 32.049ZM0.190479 27.1874C0.275606 29.9115 2.16607 32.1626 4.69098 32.8115L5.18877 30.8744C3.50511 30.4417 2.24619 28.9389 2.1895 27.1249L0.190479 27.1874ZM-0.497021 5.18741L0.190479 27.1874L2.1895 27.1249L1.502 5.12494L-0.497021 5.18741Z" fill="#475467" mask="url(#path-1-inside-1_24055_767269)"/>
</svg>
