<svg width="13" height="14" viewBox="0 0 13 14" fill="none" xmlns="http://www.w3.org/2000/svg">
<path d="M7.08333 7.20898C7.08333 7.57357 6.79688 7.83398 6.45833 7.83398C6.09375 7.83398 5.83333 7.57357 5.83333 7.20898V0.958984C5.83333 0.620443 6.09375 0.333984 6.45833 0.333984C6.79688 0.333984 7.08333 0.620443 7.08333 0.958984V7.20898ZM1.25 7.1569C1.25 9.91732 3.46354 12.1569 6.25 12.1569C9.01042 12.1569 11.25 9.91732 11.25 7.1569C11.25 5.51628 10.4427 4.05794 9.19271 3.14648C8.93229 2.93815 8.85417 2.54753 9.0625 2.26107C9.27083 2.00065 9.66146 1.92253 9.94792 2.13086C11.4844 3.27669 12.5 5.09961 12.5 7.1569C12.5 10.6204 9.6875 13.4069 6.25 13.4069C2.78646 13.4069 0 10.6204 0 7.1569C0 5.09961 0.989583 3.27669 2.52604 2.13086C2.8125 1.92253 3.20312 2.00065 3.41146 2.26107C3.61979 2.54753 3.54167 2.93815 3.28125 3.14648C2.03125 4.05794 1.22396 5.51628 1.22396 7.1569H1.25Z" fill="#D9DDE2"/>
</svg>
