<svg width="19" height="21" viewBox="0 0 19 21" fill="none" xmlns="http://www.w3.org/2000/svg">
<g clip-path="url(#clip0_9687_62538)">
<path d="M2.71108 2.70206H13.6031V7.49232e-05H1.36257C1.17579 -0.00185098 0.990498 0.0333698 0.817542 0.103675C0.656291 0.167816 0.509284 0.262956 0.384895 0.383673C0.264036 0.511054 0.168683 0.660256 0.103955 0.82327C0.0348663 0.992161 -0.000447553 1.17288 4.28158e-06 1.35526V13.5632C-0.000447553 13.7456 0.0348663 13.9263 0.103955 14.0952C0.168683 14.2582 0.264036 14.4074 0.384895 14.5348C0.509284 14.6555 0.656291 14.7506 0.817542 14.8148C0.990498 14.8851 1.17579 14.9203 1.36257 14.9184H13.6031V12.208H2.71108V2.70206Z" fill="#475467"/>
<path d="M16.2889 18.298H5.39685V21H17.6374C17.8242 21.002 18.0095 20.9667 18.1824 20.8964C18.3442 20.8333 18.4914 20.738 18.6151 20.6164C18.7352 20.4896 18.8305 20.3414 18.896 20.1796C18.9647 20.0106 19 19.83 19 19.6476V7.43132C19 7.24898 18.9647 7.06834 18.896 6.89933C18.8305 6.73755 18.7352 6.58941 18.6151 6.46253C18.4914 6.34093 18.3442 6.24566 18.1824 6.18253C18.0095 6.11223 17.8242 6.07701 17.6374 6.07893H5.39685V8.78651H16.2889V18.298Z" fill="#475467"/>
</g>
<defs>
<clipPath id="clip0_9687_62538">
<rect width="19" height="21" fill="white"/>
</clipPath>
</defs>
</svg>
