<svg width="12" height="10" viewBox="0 0 12 10" fill="none" xmlns="http://www.w3.org/2000/svg">
<path d="M4.6875 8.69531C4.6875 8.98242 4.46191 9.1875 4.19531 9.1875H2.71875C1.61133 9.1875 0.75 8.32617 0.75 7.21875V1.96875C0.75 0.881836 1.61133 0 2.71875 0H4.19531C4.46191 0 4.6875 0.225586 4.6875 0.492188C4.6875 0.779297 4.46191 0.984375 4.19531 0.984375H2.71875C2.16504 0.984375 1.73438 1.43555 1.73438 1.96875V7.21875C1.73438 7.77246 2.16504 8.20312 2.71875 8.20312H4.19531C4.46191 8.20312 4.6875 8.42871 4.6875 8.69531ZM11.1064 4.26562L8.50195 1.47656C8.31738 1.27148 8.00977 1.27148 7.80469 1.45605C7.59961 1.64062 7.59961 1.94824 7.78418 2.15332L9.60938 4.10156H4.50293C4.23633 4.10156 4.03125 4.32715 4.03125 4.59375C4.03125 4.88086 4.23633 5.08594 4.50293 5.08594H9.58887L7.74316 7.05469C7.55859 7.25977 7.55859 7.56738 7.76367 7.75195C7.88672 7.83398 8.00977 7.875 8.11231 7.875C8.23535 7.875 8.3584 7.83398 8.46094 7.73145L11.0654 4.94238C11.291 4.75781 11.291 4.4502 11.1064 4.26562Z" fill="white"/>
</svg>
