<svg width="31" height="87" viewBox="0 0 31 87" fill="none" xmlns="http://www.w3.org/2000/svg">
<mask id="path-1-inside-1_5591_49990" fill="white">
<path fill-rule="evenodd" clip-rule="evenodd" d="M0.00249131 5.15618C-0.0856726 2.33493 2.17743 0 5.00005 0H25.6827C28.5053 0 30.7684 2.33493 30.6802 5.15617L29.9927 27.1562C29.9236 29.3686 28.4247 31.2083 26.3993 31.8L23.8414 48H20.8414L19.537 87H12.5805L10.8414 48H7.84136L4.43988 31.843C2.33559 31.3022 0.760898 29.4252 0.689991 27.1562L0.00249131 5.15618Z"/>
</mask>
<path fill-rule="evenodd" clip-rule="evenodd" d="M0.00249131 5.15618C-0.0856726 2.33493 2.17743 0 5.00005 0H25.6827C28.5053 0 30.7684 2.33493 30.6802 5.15617L29.9927 27.1562C29.9236 29.3686 28.4247 31.2083 26.3993 31.8L23.8414 48H20.8414L19.537 87H12.5805L10.8414 48H7.84136L4.43988 31.843C2.33559 31.3022 0.760898 29.4252 0.689991 27.1562L0.00249131 5.15618Z" fill="#EAECF0"/>
<path d="M0.00249131 5.15618L1.002 5.12494L0.00249131 5.15618ZM30.6802 5.15617L29.6807 5.12494V5.12494L30.6802 5.15617ZM29.9927 27.1562L28.9932 27.1249L29.9927 27.1562ZM26.3993 31.8L26.1188 30.8401L25.5104 31.0179L25.4115 31.6441L26.3993 31.8ZM23.8414 48V49H24.6959L24.8291 48.156L23.8414 48ZM20.8414 48V47H19.8743L19.8419 47.9666L20.8414 48ZM19.537 87V88H20.5041L20.5365 87.0334L19.537 87ZM12.5805 87L11.5815 87.0445L11.6241 88H12.5805V87ZM10.8414 48L11.8404 47.9555L11.7978 47H10.8414V48ZM7.84136 48L6.86281 48.206L7.02997 49H7.84136V48ZM4.43988 31.843L5.41843 31.6369L5.29045 31.029L4.68877 30.8744L4.43988 31.843ZM0.689991 27.1562L-0.309521 27.1874L0.689991 27.1562ZM5.00005 -1C1.6129 -1 -1.10282 1.80192 -0.997021 5.18741L1.002 5.12494C0.931472 2.86794 2.74195 1 5.00005 1V-1ZM25.6827 -1H5.00005V1H25.6827V-1ZM31.6797 5.18741C31.7855 1.80191 29.0698 -1 25.6827 -1V1C27.9408 1 29.7512 2.86794 29.6807 5.12494L31.6797 5.18741ZM30.9922 27.1874L31.6797 5.18741L29.6807 5.12494L28.9932 27.1249L30.9922 27.1874ZM26.6797 32.7599C29.1096 32.0501 30.9092 29.8436 30.9922 27.1874L28.9932 27.1249C28.9379 28.8936 27.7399 30.3666 26.1188 30.8401L26.6797 32.7599ZM24.8291 48.156L27.387 31.956L25.4115 31.6441L22.8536 47.844L24.8291 48.156ZM20.8414 49H23.8414V47H20.8414V49ZM19.8419 47.9666L18.5376 86.9666L20.5365 87.0334L21.8408 48.0334L19.8419 47.9666ZM19.537 86H12.5805V88H19.537V86ZM13.5795 86.9555L11.8404 47.9555L9.84236 48.0445L11.5815 87.0445L13.5795 86.9555ZM7.84136 49H10.8414V47H7.84136V49ZM3.46133 32.049L6.86281 48.206L8.81991 47.794L5.41843 31.6369L3.46133 32.049ZM-0.309521 27.1874C-0.224394 29.9115 1.66607 32.1626 4.19098 32.8115L4.68877 30.8744C3.00511 30.4417 1.74619 28.9389 1.6895 27.1249L-0.309521 27.1874ZM-0.997021 5.18741L-0.309521 27.1874L1.6895 27.1249L1.002 5.12494L-0.997021 5.18741Z" fill="#EAECF0" mask="url(#path-1-inside-1_5591_49990)"/>
</svg>
