<svg width="24" height="24" viewBox="0 0 24 24" fill="none" xmlns="http://www.w3.org/2000/svg">
<path d="M13.2857 4.28571C13.2857 3.60268 13.8482 3 14.5714 3H19.6741C19.875 3 20.0357 3.04018 20.1964 3.12054C20.317 3.16071 20.4777 3.28125 20.5982 3.40179C20.8393 3.64286 20.9598 3.96429 21 4.28571V9.42857C21 10.1518 20.3973 10.7143 19.7143 10.7143C18.9911 10.7143 18.4286 10.1518 18.4286 9.42857V7.41964L11.5982 14.2098C11.1161 14.7321 10.2723 14.7321 9.79018 14.2098C9.26786 13.7277 9.26786 12.8839 9.79018 12.4018L16.5804 5.57143H14.5714C13.8482 5.57143 13.2857 5.00893 13.2857 4.28571ZM3 6.85714C3 5.45089 4.125 4.28571 5.57143 4.28571H9.42857C10.1116 4.28571 10.7143 4.88839 10.7143 5.57143C10.7143 6.29464 10.1116 6.85714 9.42857 6.85714H5.57143V18.4286H17.1429V14.5714C17.1429 13.8884 17.7054 13.2857 18.4286 13.2857C19.1116 13.2857 19.7143 13.8884 19.7143 14.5714V18.4286C19.7143 19.875 18.5491 21 17.1429 21H5.57143C4.125 21 3 19.875 3 18.4286V6.85714Z" fill="#7C879C"/>
</svg>
