<svg width="16" height="16" viewBox="0 0 16 16" fill="none" xmlns="http://www.w3.org/2000/svg">
<path d="M2.625 2C2.96354 2 3.25 2.28646 3.25 2.625V5.30729C4.26563 3.5625 6.16667 2.44271 8.25 2.44271C11.4531 2.44271 14.0833 5.04688 14.0833 8.25C14.0833 11.4792 11.4531 14.0833 8.25 14.0833C6.86979 14.0833 5.54167 13.6146 4.5 12.7552C4.23958 12.5208 4.21354 12.1302 4.42188 11.8698C4.65625 11.6094 5.04688 11.5573 5.30729 11.7917C6.11458 12.4688 7.15625 12.8333 8.25 12.8333C10.776 12.8333 12.8333 10.8021 12.8333 8.25C12.8333 5.72396 10.776 3.66667 8.25 3.66667C6.50521 3.66667 4.94271 4.68229 4.16146 6.16667H6.79167C7.13021 6.16667 7.41667 6.45313 7.41667 6.79167C7.41667 7.15625 7.13021 7.41667 6.79167 7.41667H2.625C2.26042 7.41667 2 7.15625 2 6.79167V2.625C2 2.28646 2.26042 2 2.625 2Z" fill="#7C879C"/>
</svg>
