<svg width="14" height="14" viewBox="0 0 14 14" fill="none" xmlns="http://www.w3.org/2000/svg">
<path d="M13.6663 7.00016C13.6663 10.6981 10.6715 13.6668 6.99967 13.6668C3.30176 13.6668 0.333008 10.6981 0.333008 7.00016C0.333008 3.32829 3.30176 0.333496 6.99967 0.333496C10.6715 0.333496 13.6663 3.32829 13.6663 7.00016ZM2.72884 3.64079C1.99967 4.57829 1.58301 5.75016 1.58301 7.00016C1.58301 9.99496 4.00488 12.4168 6.99967 12.4168C8.24967 12.4168 9.42155 12.0002 10.359 11.271L2.72884 3.64079ZM12.4163 7.00016C12.4163 4.03141 9.96842 1.5835 6.99967 1.5835C5.72363 1.5835 4.55176 2.0262 3.61426 2.75537L11.2445 10.3856C11.9736 9.44808 12.4163 8.2762 12.4163 7.00016Z" fill="#1D2939"/>
</svg>
