<svg width="24" height="24" viewBox="0 0 24 24" fill="none" xmlns="http://www.w3.org/2000/svg">
<path d="M13.3064 3.25V3.95312C16.2005 4.42188 18.4515 6.88281 18.4515 9.8125V11.1406C18.4515 12.8984 19.0545 14.6172 20.18 16.0234L20.7829 16.7266C21.0241 17.0391 21.0643 17.4297 20.9035 17.7422C20.7427 18.0547 20.4212 18.25 20.0594 18.25H3.98079C3.57883 18.25 3.25726 18.0547 3.09647 17.7422C2.93569 17.4297 2.97588 17.0391 3.21706 16.7266L3.82001 16.0234C4.94551 14.6172 5.58866 12.8984 5.58866 11.1406V9.8125C5.58866 6.88281 7.79946 4.42188 10.7338 3.95312V3.25C10.7338 2.58594 11.2966 2 12.0201 2C12.7034 2 13.3064 2.58594 13.3064 3.25ZM11.6985 5.75C9.36713 5.75 7.51809 7.58594 7.51809 9.8125V11.1406C7.51809 13.0156 6.95534 14.8125 5.91023 16.375H18.0898C17.0447 14.8125 16.5221 13.0156 16.5221 11.1406V9.8125C16.5221 7.58594 14.6329 5.75 12.3417 5.75H11.6985ZM14.5927 19.5C14.5927 20.1641 14.3113 20.8281 13.8289 21.2969C13.3466 21.7656 12.6632 22 12.0201 22C11.3368 22 10.6534 21.7656 10.1711 21.2969C9.6887 20.8281 9.44752 20.1641 9.44752 19.5H14.5927Z" fill="#7C879C"/>
</svg>
