<svg width="14" height="12" viewBox="0 0 14 12" fill="none" xmlns="http://www.w3.org/2000/svg">
<path d="M0.4375 1.52084C0.4375 1.0228 0.847656 0.583344 1.375 0.583344H12.625C13.123 0.583344 13.5625 1.0228 13.5625 1.52084C13.5625 2.04819 13.123 2.45834 12.625 2.45834H1.375C0.847656 2.45834 0.4375 2.04819 0.4375 1.52084ZM0.4375 6.20834C0.4375 5.7103 0.847656 5.27084 1.375 5.27084H12.625C13.123 5.27084 13.5625 5.7103 13.5625 6.20834C13.5625 6.73569 13.123 7.14584 12.625 7.14584H1.375C0.847656 7.14584 0.4375 6.73569 0.4375 6.20834ZM12.625 11.8333H1.375C0.847656 11.8333 0.4375 11.4232 0.4375 10.8958C0.4375 10.3978 0.847656 9.95834 1.375 9.95834H12.625C13.123 9.95834 13.5625 10.3978 13.5625 10.8958C13.5625 11.4232 13.123 11.8333 12.625 11.8333Z" fill="#1D2939"/>
</svg>
