<svg width="18" height="14" viewBox="0 0 18 14" fill="none" xmlns="http://www.w3.org/2000/svg">
<path d="M7.70922 7.31714H6.67824C6.6645 7.21242 6.63632 7.1179 6.5937 7.03358C6.55109 6.94926 6.49473 6.87718 6.42462 6.81734C6.35452 6.7575 6.27135 6.71194 6.17513 6.68066C6.08028 6.64802 5.97512 6.6317 5.85965 6.6317C5.65483 6.6317 5.47819 6.68134 5.32973 6.78062C5.18264 6.8799 5.06924 7.02338 4.98951 7.21106C4.91115 7.39874 4.87198 7.62586 4.87198 7.89242C4.87198 8.16986 4.91184 8.40242 4.99157 8.59011C5.07267 8.77643 5.18608 8.91719 5.33179 9.01239C5.47888 9.10623 5.65277 9.15315 5.85346 9.15315C5.96618 9.15315 6.06859 9.13887 6.16069 9.11031C6.25417 9.08175 6.33596 9.04027 6.40607 8.98587C6.47755 8.93011 6.53597 8.86279 6.58133 8.78391C6.62807 8.70367 6.66037 8.61322 6.67824 8.51258L7.70922 8.5187C7.69135 8.70367 7.63705 8.88591 7.54633 9.06543C7.45697 9.24495 7.33394 9.40883 7.17724 9.55707C7.02053 9.70395 6.82945 9.82091 6.60401 9.90795C6.37995 9.99499 6.12289 10.0385 5.83284 10.0385C5.4507 10.0385 5.10841 9.95555 4.80599 9.78963C4.50495 9.62235 4.26714 9.37891 4.09256 9.05931C3.91798 8.73971 3.83069 8.35074 3.83069 7.89242C3.83069 7.43274 3.91935 7.0431 4.09668 6.7235C4.27401 6.4039 4.51388 6.16113 4.8163 5.99521C5.11872 5.82929 5.45757 5.74633 5.83284 5.74633C6.08853 5.74633 6.32496 5.78169 6.54216 5.85241C6.75935 5.92177 6.95042 6.02377 7.11538 6.15841C7.28033 6.29169 7.41436 6.45558 7.51746 6.65006C7.62056 6.84454 7.68448 7.0669 7.70922 7.31714Z" fill="white"/>
<path fill-rule="evenodd" clip-rule="evenodd" d="M12.3951 7.89242C12.3951 8.3521 12.3058 8.74175 12.1271 9.06135C11.9484 9.38095 11.7065 9.62371 11.4013 9.78963C11.0975 9.95555 10.7566 10.0385 10.3786 10.0385C9.99916 10.0385 9.65756 9.95487 9.35377 9.78759C9.04998 9.62031 8.80873 9.37755 8.63002 9.05931C8.4527 8.73971 8.36403 8.35074 8.36403 7.89242C8.36403 7.43274 8.4527 7.0431 8.63002 6.7235C8.80873 6.4039 9.04998 6.16113 9.35377 5.99521C9.65756 5.82929 9.99916 5.74633 10.3786 5.74633C10.7566 5.74633 11.0975 5.82929 11.4013 5.99521C11.7065 6.16113 11.9484 6.4039 12.1271 6.7235C12.3058 7.0431 12.3951 7.43274 12.3951 7.89242ZM11.3518 7.89242C11.3518 7.62042 11.3126 7.39058 11.2343 7.2029C11.1573 7.01522 11.0459 6.8731 10.9002 6.77654C10.7559 6.67998 10.582 6.6317 10.3786 6.6317C10.1765 6.6317 10.0026 6.67998 9.85688 6.77654C9.71117 6.8731 9.59914 7.01522 9.52079 7.2029C9.44381 7.39058 9.40532 7.62042 9.40532 7.89242C9.40532 8.16442 9.44381 8.39426 9.52079 8.58195C9.59914 8.76963 9.71117 8.91175 9.85688 9.00831C10.0026 9.10487 10.1765 9.15315 10.3786 9.15315C10.582 9.15315 10.7559 9.10487 10.9002 9.00831C11.0459 8.91175 11.1573 8.76963 11.2343 8.58195C11.3126 8.39426 11.3518 8.16442 11.3518 7.89242Z" fill="white"/>
<path d="M13.1476 10.6995V10.3364L13.9178 9.66927C13.9755 9.61759 14.0246 9.57033 14.0652 9.52749C14.1057 9.48397 14.1367 9.44045 14.158 9.39693C14.1793 9.35273 14.1899 9.30479 14.1899 9.25311C14.1899 9.19531 14.1772 9.14601 14.1518 9.10521C14.1264 9.06373 14.0913 9.03177 14.0466 9.00933C14.0019 8.98689 13.9507 8.97567 13.893 8.97567C13.8346 8.97567 13.7834 8.98757 13.7394 9.01137C13.6954 9.03449 13.661 9.06815 13.6363 9.11235C13.6122 9.15655 13.6002 9.21027 13.6002 9.27351H13.1167C13.1167 9.13139 13.149 9.00865 13.2136 8.90529C13.2782 8.80193 13.3689 8.72237 13.4858 8.66661C13.6033 8.61017 13.7397 8.58195 13.8951 8.58195C14.0552 8.58195 14.1944 8.60847 14.3126 8.66151C14.4308 8.71455 14.5222 8.78867 14.5869 8.88387C14.6521 8.97839 14.6848 9.08821 14.6848 9.21333C14.6848 9.29289 14.6686 9.37177 14.6363 9.44997C14.604 9.52817 14.546 9.61453 14.4621 9.70905C14.3789 9.80357 14.2607 9.91679 14.1075 10.0487L13.8549 10.2792V10.2925H14.7106V10.6995H13.1476Z" fill="white"/>
<path fill-rule="evenodd" clip-rule="evenodd" d="M10.7367 0.886511C11.635 1.47001 12.287 2.2449 12.7397 2.91166C13.1199 2.86247 13.5384 2.86693 13.9518 2.94301C14.5545 3.05391 15.1927 3.32663 15.672 3.86157C16.1583 4.40448 16.3855 5.16571 16.4239 5.87315C16.448 6.31787 16.4002 6.78809 16.2637 7.2218C17.221 7.71289 18 8.73022 18 10.2188C18 12.39 16.1815 13.5 14.8984 13.5H4.28226C2.14434 13.5 0 11.764 0 9.26331C0 7.08627 1.37091 5.79797 2.13149 5.08323L2.18587 5.03209C2.28192 3.39876 3.22347 0.810393 6.39268 0.144822C8.19973 -0.23468 9.63846 0.173117 10.7367 0.886511ZM6.66396 1.4092C8.10762 1.10601 9.1932 1.43013 10.0197 1.96699C10.8664 2.51703 11.4682 3.30978 11.8707 3.9666C12.023 4.21499 12.324 4.33236 12.6066 4.2535C12.9045 4.17037 13.3122 4.14003 13.7129 4.21377C14.1112 4.28704 14.4565 4.45347 14.6942 4.71888C14.9249 4.97633 15.0911 5.42276 15.1193 5.94248C15.1475 6.4613 15.0314 6.93492 14.8358 7.22612C14.7168 7.40321 14.6935 7.62687 14.7734 7.82426C14.8534 8.02164 15.0263 8.16749 15.236 8.2143C15.9424 8.37199 16.6935 9.00444 16.6935 10.2188C16.6935 11.5608 15.5823 12.2074 14.8984 12.2074H4.28226C2.79114 12.2074 1.30645 10.9784 1.30645 9.26331C1.30645 7.67178 2.2557 6.76462 3.022 6.03229C3.11557 5.94287 3.20649 5.85597 3.29255 5.77084C3.41505 5.64964 3.48387 5.48525 3.48387 5.31385C3.48387 4.04064 4.15159 1.93683 6.66396 1.4092Z" fill="white"/>
</svg>
