<svg width="18" height="16" viewBox="0 0 18 16" fill="none" xmlns="http://www.w3.org/2000/svg">
<path d="M11.7177 6.50518C11.3597 6.8307 10.8388 6.8307 10.4482 6.53773L6.93258 3.90101L2.34274 7.54684C1.91956 7.90491 1.26852 7.83981 0.910449 7.38408C0.519824 6.9609 0.61748 6.30986 1.07321 5.91924L6.28154 1.78512C6.63962 1.4596 7.16045 1.4596 7.55107 1.75257L11.0667 4.38929L15.6565 0.743456C16.0797 0.352831 16.7308 0.450488 17.0888 0.906217C17.4795 1.32939 17.3818 1.98044 16.9261 2.33851L11.7177 6.50518ZM5.89092 7.77471C5.89092 7.22132 6.34665 6.73304 6.93258 6.73304C7.48597 6.73304 7.97425 7.22132 7.97425 7.77471V14.0247C7.97425 14.6106 7.48597 15.0664 6.93258 15.0664C6.34665 15.0664 5.89092 14.6106 5.89092 14.0247V7.77471ZM1.72425 10.8997C1.72425 10.3463 2.17998 9.85804 2.76592 9.85804C3.3193 9.85804 3.80758 10.3463 3.80758 10.8997V14.0247C3.80758 14.6106 3.3193 15.0664 2.76592 15.0664C2.17998 15.0664 1.72425 14.6106 1.72425 14.0247V10.8997ZM12.1409 9.85804V14.0247C12.1409 14.6106 11.6526 15.0664 11.0993 15.0664C10.5133 15.0664 10.0576 14.6106 10.0576 14.0247V9.85804C10.0576 9.30465 10.5133 8.81637 11.0993 8.81637C11.6526 8.81637 12.1409 9.30465 12.1409 9.85804ZM14.2243 7.77471C14.2243 7.22132 14.68 6.73304 15.2659 6.73304C15.8193 6.73304 16.3076 7.22132 16.3076 7.77471V14.0247C16.3076 14.6106 15.8193 15.0664 15.2659 15.0664C14.68 15.0664 14.2243 14.6106 14.2243 14.0247V7.77471Z" fill="#7C879C"/>
</svg>
