<svg width="56" height="56" viewBox="0 0 56 56" fill="none" xmlns="http://www.w3.org/2000/svg">
<rect width="56" height="56" rx="28" fill="#101828"/>
<path d="M15.0448 20.7748C15.0448 18.0718 17.2411 15.8806 19.9503 15.8806H36.0498C38.759 15.8806 40.9552 18.0718 40.9552 20.7748V33.2228C40.9552 35.9258 38.759 38.117 36.0498 38.117H33.2289C32.6001 38.117 31.9855 38.3033 31.463 38.6523L23.1629 43.4627V41.4066L30.4997 37.217C31.3072 36.6776 32.2571 36.3896 33.2289 36.3896H36.0498C37.8028 36.3896 39.2239 34.9718 39.2239 33.2228V20.7748C39.2239 19.0258 37.8028 17.608 36.0498 17.608H19.9503C18.1973 17.608 16.7761 19.0258 16.7761 20.7748V33.2228C16.7761 34.9718 18.1972 36.3896 19.9503 36.3896H23.1629V38.117H19.9503C17.2411 38.117 15.0448 35.9258 15.0448 33.2228V20.7748Z" fill="#F9FAFB"/>
<path d="M24.1176 23.237H30.3465V21.7314H23.3464C23.2396 21.7303 23.1336 21.75 23.0347 21.7891C22.9425 21.8249 22.8584 21.8779 22.7873 21.9451C22.7182 22.0161 22.6637 22.0993 22.6266 22.1901C22.5871 22.2842 22.5669 22.3849 22.5672 22.4865V29.289C22.5669 29.3906 22.5871 29.4913 22.6266 29.5854C22.6637 29.6762 22.7182 29.7594 22.7873 29.8303C22.8584 29.8976 22.9425 29.9506 23.0347 29.9864C23.1336 30.0255 23.2396 30.0452 23.3464 30.0441H30.3465V28.5338H24.1176V23.237Z" fill="#F9FAFB"/>
<path d="M25.6536 31.9272H31.8825V26.6273H25.6536V25.1186H32.6537C32.7605 25.1175 32.8664 25.1371 32.9654 25.1763C33.0579 25.2115 33.1421 25.2645 33.2128 25.3323C33.2815 25.403 33.336 25.4855 33.3734 25.5757C33.4127 25.6699 33.4329 25.7705 33.4329 25.8721V32.6792C33.4329 32.7808 33.4127 32.8815 33.3734 32.9757C33.336 33.0658 33.2815 33.1484 33.2128 33.2191C33.1421 33.2868 33.0579 33.3399 32.9654 33.3751C32.8664 33.4142 32.7605 33.4339 32.6537 33.4328H25.6536V31.9272Z" fill="#F9FAFB"/>
</svg>
