<svg width="16" height="17" viewBox="0 0 16 17" fill="none" xmlns="http://www.w3.org/2000/svg">
<path d="M5.89067 6.52262C6.12504 6.28825 6.51567 6.28825 6.75004 6.52262L7.974 7.77262L9.224 6.52262C9.45837 6.28825 9.849 6.28825 10.0834 6.52262C10.3438 6.78304 10.3438 7.17367 10.0834 7.40804L8.85942 8.632L10.0834 9.85596C10.3438 10.1164 10.3438 10.507 10.0834 10.7414C9.849 11.0018 9.45837 11.0018 9.224 10.7414L7.974 9.51742L6.75004 10.7414C6.51567 11.0018 6.12504 11.0018 5.89067 10.7414C5.63025 10.507 5.63025 10.1164 5.89067 9.85596L7.11462 8.632L5.89067 7.40804C5.63025 7.17367 5.63025 6.78304 5.89067 6.52262ZM14.6667 8.632C14.6667 12.3299 11.6719 15.2987 8.00004 15.2987C4.30212 15.2987 1.33337 12.3299 1.33337 8.632C1.33337 4.96012 4.30212 1.96533 8.00004 1.96533C11.6719 1.96533 14.6667 4.96012 14.6667 8.632ZM8.00004 3.21533C5.00525 3.21533 2.58337 5.66325 2.58337 8.632C2.58337 11.6268 5.00525 14.0487 8.00004 14.0487C10.9688 14.0487 13.4167 11.6268 13.4167 8.632C13.4167 5.66325 10.9688 3.21533 8.00004 3.21533Z" fill="#B42318"/>
</svg>
