<svg width="18" height="19" viewBox="0 0 18 19" fill="none" xmlns="http://www.w3.org/2000/svg">
<path d="M10.6699 5.86719C10.8457 5.98438 10.9043 6.21875 10.8164 6.42383L9.70312 9.03125H11.5781C11.7539 9.03125 11.9297 9.17773 12.0176 9.35352C12.0762 9.5293 12.0176 9.76367 11.8711 9.88086L7.88672 13.1621C7.71094 13.2793 7.47656 13.3086 7.30078 13.1621C7.125 13.0449 7.06641 12.8105 7.1543 12.6055L8.26758 9.96875H6.42188C6.2168 9.96875 6.04102 9.85156 5.95312 9.67578C5.89453 9.4707 5.95312 9.26562 6.09961 9.14844L10.084 5.86719C10.2598 5.7207 10.4941 5.7207 10.6699 5.86719ZM16.5 9.5C16.5 13.6602 13.1309 17 9 17C4.83984 17 1.5 13.6602 1.5 9.5C1.5 5.36914 4.83984 2 9 2C13.1309 2 16.5 5.36914 16.5 9.5ZM9 3.40625C5.63086 3.40625 2.90625 6.16016 2.90625 9.5C2.90625 12.8691 5.63086 15.5938 9 15.5938C12.3398 15.5938 15.0938 12.8691 15.0938 9.5C15.0938 6.16016 12.3398 3.40625 9 3.40625Z" fill="#F0F2F5"/>
</svg>
