<svg width="24" height="24" viewBox="0 0 24 24" fill="none" xmlns="http://www.w3.org/2000/svg">
<path d="M8.83594 8.83594C9.1875 8.48438 9.77344 8.48438 10.125 8.83594L11.9609 10.7109L13.8359 8.83594C14.1875 8.48438 14.7734 8.48438 15.125 8.83594C15.5156 9.22656 15.5156 9.8125 15.125 10.1641L13.2891 12L15.125 13.8359C15.5156 14.2266 15.5156 14.8125 15.125 15.1641C14.7734 15.5547 14.1875 15.5547 13.8359 15.1641L11.9609 13.3281L10.125 15.1641C9.77344 15.5547 9.1875 15.5547 8.83594 15.1641C8.44531 14.8125 8.44531 14.2266 8.83594 13.8359L10.6719 12L8.83594 10.1641C8.44531 9.8125 8.44531 9.22656 8.83594 8.83594ZM22 12C22 17.5469 17.5078 22 12 22C6.45312 22 2 17.5469 2 12C2 6.49219 6.45312 2 12 2C17.5078 2 22 6.49219 22 12ZM12 3.875C7.50781 3.875 3.875 7.54688 3.875 12C3.875 16.4922 7.50781 20.125 12 20.125C16.4531 20.125 20.125 16.4922 20.125 12C20.125 7.54688 16.4531 3.875 12 3.875Z" fill="#B42318"/>
</svg>
