<svg width="14" height="14" viewBox="0 0 14 14" fill="none" xmlns="http://www.w3.org/2000/svg">
<path d="M6.66113 9.18766C6.37467 9.47412 5.93197 9.47412 5.64551 9.18766L3.97884 7.521C3.69238 7.23454 3.69238 6.79183 3.97884 6.50537C4.2653 6.21891 4.70801 6.21891 4.99447 6.50537L6.16634 7.6512L8.97884 4.8387C9.2653 4.55225 9.70801 4.55225 9.99447 4.8387C10.2809 5.12516 10.2809 5.56787 9.99447 5.85433L6.66113 9.18766ZM13.6663 7.00016C13.6663 10.6981 10.6715 13.6668 6.99967 13.6668C3.30176 13.6668 0.333008 10.6981 0.333008 7.00016C0.333008 3.32829 3.30176 0.333496 6.99967 0.333496C10.6715 0.333496 13.6663 3.32829 13.6663 7.00016ZM6.99967 1.5835C4.00488 1.5835 1.58301 4.03141 1.58301 7.00016C1.58301 9.99496 4.00488 12.4168 6.99967 12.4168C9.96842 12.4168 12.4163 9.99496 12.4163 7.00016C12.4163 4.03141 9.96842 1.5835 6.99967 1.5835Z" fill="#027A48"/>
</svg>
