<svg width="16" height="17" viewBox="0 0 16 17" fill="none" xmlns="http://www.w3.org/2000/svg">
<path d="M5.89067 6.52214C6.12504 6.28776 6.51567 6.28776 6.75004 6.52214L7.974 7.77214L9.224 6.52214C9.45837 6.28776 9.849 6.28776 10.0834 6.52214C10.3438 6.78255 10.3438 7.17318 10.0834 7.40755L8.85942 8.63151L10.0834 9.85547C10.3438 10.1159 10.3438 10.5065 10.0834 10.7409C9.849 11.0013 9.45837 11.0013 9.224 10.7409L7.974 9.51693L6.75004 10.7409C6.51567 11.0013 6.12504 11.0013 5.89067 10.7409C5.63025 10.5065 5.63025 10.1159 5.89067 9.85547L7.11462 8.63151L5.89067 7.40755C5.63025 7.17318 5.63025 6.78255 5.89067 6.52214ZM14.6667 8.63151C14.6667 12.3294 11.6719 15.2982 8.00004 15.2982C4.30212 15.2982 1.33337 12.3294 1.33337 8.63151C1.33337 4.95964 4.30212 1.96484 8.00004 1.96484C11.6719 1.96484 14.6667 4.95964 14.6667 8.63151ZM8.00004 3.21484C5.00525 3.21484 2.58337 5.66276 2.58337 8.63151C2.58337 11.6263 5.00525 14.0482 8.00004 14.0482C10.9688 14.0482 13.4167 11.6263 13.4167 8.63151C13.4167 5.66276 10.9688 3.21484 8.00004 3.21484Z" fill="#B42318"/>
</svg>
