<svg width="17" height="17" viewBox="0 0 24 24" fill="none" xmlns="http://www.w3.org/2000/svg">
<path d="M11.0625 6.6875C11.0625 6.17969 11.4531 5.75 12 5.75C12.5078 5.75 12.9375 6.17969 12.9375 6.6875V11.5312L16.2578 13.7188C16.6875 14.0312 16.8047 14.6172 16.4922 15.0469C16.2188 15.4766 15.6328 15.5938 15.2031 15.2812L11.4531 12.7812C11.2188 12.625 11.0625 12.3125 11.0625 12V6.6875ZM12 2C17.5078 2 22 6.49219 22 12C22 17.5469 17.5078 22 12 22C6.45312 22 2 17.5469 2 12C2 6.49219 6.45312 2 12 2ZM3.875 12C3.875 16.4922 7.50781 20.125 12 20.125C16.4531 20.125 20.125 16.4922 20.125 12C20.125 7.54688 16.4531 3.875 12 3.875C7.50781 3.875 3.875 7.54688 3.875 12Z" fill="#b54708"/>
</svg>
