<svg width="16" height="18" viewBox="0 0 16 18" fill="none" xmlns="http://www.w3.org/2000/svg">
<path d="M14.3021 3.27018C14.7253 3.27018 15.0833 3.62826 15.0833 4.05143C15.0833 4.50716 14.7253 4.83268 14.3021 4.83268H13.9115L13.1302 15.4121C13.0326 16.5189 12.1536 17.3327 11.0469 17.3327H4.50391C3.39714 17.3327 2.51823 16.5189 2.42057 15.4121L1.63932 4.83268H1.28125C0.825521 4.83268 0.5 4.50716 0.5 4.05143C0.5 3.62826 0.825521 3.27018 1.28125 3.27018H3.52734L4.73177 1.47982C5.05729 0.991536 5.64323 0.666016 6.26172 0.666016H9.28906C9.90755 0.666016 10.4935 0.991536 10.819 1.47982L12.0234 3.27018H14.3021ZM6.26172 2.22852C6.16406 2.22852 6.06641 2.29362 6.03385 2.35872L5.41536 3.27018H10.1354L9.51693 2.35872C9.48438 2.29362 9.38672 2.22852 9.28906 2.22852H6.26172ZM12.349 4.83268H3.20182L3.98307 15.3145C4.01563 15.5749 4.24349 15.7702 4.50391 15.7702H11.0469C11.3073 15.7702 11.5352 15.5749 11.5677 15.3145L12.349 4.83268Z" fill="#B42318"/>
</svg>
