<svg width="24" height="24" viewBox="0 0 24 24" fill="none" xmlns="http://www.w3.org/2000/svg">
<path d="M19.5 13.875H17.3906L15.5156 15.75H19.5C19.8125 15.75 20.125 16.0625 20.125 16.375V19.5C20.125 19.8516 19.8125 20.125 19.5 20.125H4.5C4.14844 20.125 3.875 19.8516 3.875 19.5V16.375C3.875 16.0625 4.14844 15.75 4.5 15.75H8.44531L6.57031 13.875H4.5C3.09375 13.875 2 15.0078 2 16.375V19.5C2 20.9062 3.09375 22 4.5 22H19.5C20.8672 22 22 20.9062 22 19.5V16.375C22 15.0078 20.8672 13.875 19.5 13.875ZM18.875 17.9375C18.875 17.4297 18.4453 17 17.9375 17C17.3906 17 17 17.4297 17 17.9375C17 18.4844 17.3906 18.875 17.9375 18.875C18.4453 18.875 18.875 18.4844 18.875 17.9375ZM11.3359 16.4141C11.4922 16.6094 11.7266 16.6875 12 16.6875C12.2344 16.6875 12.4688 16.6094 12.625 16.4141L17.9375 11.1016C18.3281 10.75 18.3281 10.1641 17.9375 9.8125C17.5859 9.42188 17 9.42188 16.6484 9.8125L12.9375 13.5234V2.9375C12.9375 2.42969 12.5078 2 12 2C11.4531 2 11.0625 2.42969 11.0625 2.9375V13.5234L7.3125 9.77344C6.92188 9.42188 6.33594 9.42188 5.98438 9.77344C5.59375 10.1641 5.59375 10.75 5.98438 11.1016L11.3359 16.4141Z" fill="#7C879C"/>
</svg>
