<svg width="18" height="19" viewBox="0 0 18 19" fill="none" xmlns="http://www.w3.org/2000/svg">
<path d="M6.1877 9.875C6.1877 8.32227 7.41816 7.0625 9.0002 7.0625C10.5529 7.0625 11.8127 8.32227 11.8127 9.875C11.8127 11.4277 10.5529 12.6875 9.0002 12.6875C7.41816 12.6875 6.1877 11.4277 6.1877 9.875ZM9.0002 8.46875C8.20918 8.46875 7.59395 9.11328 7.59395 9.875C7.59395 10.666 8.20918 11.2812 9.0002 11.2812C9.76191 11.2812 10.4064 10.666 10.4064 9.875C10.4064 9.11328 9.76191 8.46875 9.0002 8.46875ZM10.0842 2.375C10.7287 2.375 11.2854 2.84375 11.4318 3.45898L11.6662 4.42578C11.9299 4.54297 12.1643 4.68945 12.3693 4.83594L13.3361 4.54297C13.9514 4.36719 14.6252 4.63086 14.9475 5.1875L16.0314 7.0918C16.3537 7.64844 16.2365 8.35156 15.7678 8.79102L15.0646 9.46484C15.0646 9.61133 15.0939 9.75781 15.0939 9.875C15.0939 10.0215 15.0646 10.168 15.0646 10.2852L15.7678 10.9883C16.2365 11.4277 16.3537 12.1309 16.0314 12.6875L14.9475 14.5918C14.6252 15.1484 13.9514 15.4121 13.3361 15.2363L12.3693 14.9434C12.1643 15.0898 11.9299 15.2363 11.6662 15.3535L11.4318 16.3203C11.2854 16.9355 10.7287 17.375 10.0842 17.375H7.88691C7.24238 17.375 6.68574 16.9355 6.53926 16.3203L6.30488 15.3535C6.04121 15.2363 5.80684 15.0898 5.60176 14.9434L4.63496 15.2363C4.01973 15.4121 3.3459 15.1484 3.02363 14.5918L1.93965 12.6875C1.61738 12.1309 1.73457 11.4277 2.20332 10.9883L2.90645 10.2852C2.90645 10.168 2.90645 10.0215 2.90645 9.875C2.90645 9.75781 2.90645 9.61133 2.90645 9.46484L2.20332 8.79102C1.73457 8.35156 1.61738 7.64844 1.93965 7.0918L3.02363 5.1875C3.3459 4.63086 4.01973 4.36719 4.63496 4.54297L5.60176 4.83594C5.80684 4.68945 6.04121 4.54297 6.30488 4.42578L6.53926 3.45898C6.68574 2.84375 7.24238 2.375 7.88691 2.375H10.0842ZM7.50605 5.42188L7.18379 5.56836C6.80293 5.71484 6.45137 5.91992 6.1584 6.1543L5.86543 6.38867L4.2541 5.89062L3.17012 7.79492L4.37129 8.9375L4.34199 9.28906C4.3127 9.49414 4.3127 9.69922 4.3127 9.875C4.3127 10.0801 4.3127 10.2852 4.34199 10.4902L4.37129 10.8418L3.17012 11.9844L4.2541 13.8887L5.86543 13.3906L6.1584 13.625C6.45137 13.8594 6.80293 14.0645 7.18379 14.2109L7.50605 14.3574L7.88691 15.9688H10.0842L10.465 14.3574L10.7873 14.2109C11.1682 14.0645 11.5197 13.8594 11.8127 13.625L12.1057 13.3906L13.717 13.8887L14.801 11.9844L13.5998 10.8418L13.6291 10.4902C13.6584 10.2852 13.6877 10.0801 13.6877 9.875C13.6877 9.69922 13.6584 9.49414 13.6291 9.28906L13.5998 8.9375L14.801 7.79492L13.717 5.89062L12.1057 6.38867L11.8127 6.1543C11.5197 5.91992 11.1682 5.71484 10.7873 5.56836L10.465 5.42188L10.0842 3.78125H7.88691L7.50605 5.42188Z" fill="white"/>
</svg>
