<svg width="24" height="24" viewBox="0 0 24 24" fill="none" xmlns="http://www.w3.org/2000/svg">
<path d="M12 2C6.45312 2 2 6.49219 2 12C2 17.5469 6.45312 22 12 22C17.5078 22 22 17.5469 22 12C22 6.49219 17.5078 2 12 2ZM12 20.125C7.50781 20.125 3.875 16.4922 3.875 12C3.875 7.54688 7.50781 3.875 12 3.875C16.4531 3.875 20.125 7.54688 20.125 12C20.125 16.4922 16.4531 20.125 12 20.125ZM13.5625 15.125H12.9375V11.6875C12.9375 11.1797 12.5078 10.75 12 10.75H10.75C10.2031 10.75 9.8125 11.1797 9.8125 11.6875C9.8125 12.2344 10.2031 12.625 10.75 12.625H11.0625V15.125H10.4375C9.89062 15.125 9.5 15.5547 9.5 16.0625C9.5 16.6094 9.89062 17 10.4375 17H13.5625C14.0703 17 14.5 16.6094 14.5 16.0625C14.5 15.5547 14.0703 15.125 13.5625 15.125ZM12 9.5C12.6641 9.5 13.25 8.95312 13.25 8.25C13.25 7.58594 12.6641 7 12 7C11.2969 7 10.75 7.58594 10.75 8.25C10.75 8.95312 11.2969 9.5 12 9.5Z" fill="#7C879C"/>
</svg>
