<svg width="28" height="11" viewBox="0 0 28 11" fill="none" xmlns="http://www.w3.org/2000/svg">
<path d="M1.16761 8.21591L1.14773 6.7642H1.38636L4.72727 3.36364H6.17898L2.61932 6.96307H2.51989L1.16761 8.21591ZM0.0738637 11V0.818182H1.24716V11H0.0738637ZM4.92614 11L1.94318 7.22159L2.77841 6.40625L6.41761 11H4.92614ZM9.69762 11L6.91353 0.818182H8.16637L10.2942 9.1108H10.3936L12.5613 0.818182H13.9533L16.1209 9.1108H16.2203L18.3482 0.818182H19.601L16.8169 11H15.5442L13.2971 2.88636H13.2175L10.9703 11H9.69762ZM22.1515 6.40625V11H20.9782V0.818182H22.1515V4.55682H22.2509C22.4299 4.16241 22.6983 3.84919 23.0563 3.61719C23.4176 3.38187 23.8981 3.2642 24.498 3.2642C25.0184 3.2642 25.4741 3.36861 25.8652 3.57741C26.2563 3.78291 26.5596 4.09943 26.775 4.52699C26.9938 4.95123 27.1032 5.49148 27.1032 6.14773V11H25.9299V6.22727C25.9299 5.62074 25.7724 5.15175 25.4576 4.82031C25.146 4.48556 24.7135 4.31818 24.16 4.31818C23.7755 4.31818 23.4308 4.39938 23.1259 4.56179C22.8243 4.72419 22.5856 4.96117 22.41 5.27273C22.2376 5.58428 22.1515 5.96212 22.1515 6.40625Z" fill="#626B7F"/>
</svg>
