<svg width="20" height="20" viewBox="0 0 20 20" fill="none" xmlns="http://www.w3.org/2000/svg">
<path d="M5.55745 6.03288C7.26359 4.71538 9.71803 4.83249 11.2745 6.35493C12.5616 7.61387 12.8609 9.51692 12.1425 11.0686L13.5194 12.1226L16.363 9.34125C17.4705 8.2287 17.4705 6.47204 16.363 5.35949C15.2854 4.33477 13.5793 4.27622 12.4419 5.24238L12.2623 5.38877C11.9629 5.65227 11.514 5.62299 11.2446 5.33021C10.9752 5.03743 11.0051 4.59827 11.3044 4.33477L11.484 4.18838C13.1902 2.7245 15.7643 2.81233 17.3807 4.36405C19.0569 6.0036 19.0569 8.66787 17.3807 10.3367L14.6568 13.001L18.8773 16.2508C19.2065 16.485 19.2664 16.9242 18.997 17.2169C18.7576 17.539 18.3086 17.5976 18.0093 17.3341L0.289382 3.74922C-0.0398722 3.515 -0.0997366 3.07583 0.169653 2.78305C0.409111 2.461 0.858094 2.40244 1.15742 2.66594L5.55745 6.03288ZM6.75474 6.94048L10.9752 10.161C11.2745 9.19486 11.035 8.11159 10.2568 7.35037C9.29898 6.41349 7.8323 6.2671 6.75474 6.94048ZM7.89216 13.6451C6.9942 12.7667 6.57515 11.5956 6.63501 10.4245L8.25135 11.6835C8.40101 12.0348 8.61054 12.3569 8.90986 12.6496C9.35884 13.1181 9.95749 13.3816 10.5561 13.4401L12.1725 14.6991C10.7058 15.1382 9.05952 14.7869 7.89216 13.6451ZM3.49213 7.99448L4.62955 8.87281L2.80369 10.6587C1.6962 11.7713 1.6962 13.528 2.80369 14.6405C3.88125 15.6652 5.58738 15.7238 6.72481 14.7576L6.9044 14.6112C7.20372 14.3477 7.65271 14.377 7.9221 14.6698C8.19149 14.9626 8.16155 15.4017 7.86223 15.6652L7.68264 15.8116C5.9765 17.2755 3.40233 17.1877 1.78599 15.636C0.109789 13.9964 0.109789 11.3029 1.78599 9.66331L3.49213 7.99448Z" fill="#7C879C"/>
</svg>
