<svg width="20" height="20" viewBox="0 0 20 20" fill="none" xmlns="http://www.w3.org/2000/svg">
<path d="M5.07812 6.07092C6.90104 4.248 9.86328 4.248 11.6862 6.07092C13.444 7.79618 13.5091 10.5957 11.9141 12.4511L11.7188 12.6464C11.4258 12.972 10.9375 13.0045 10.612 12.7441C10.2865 12.4511 10.2539 11.9628 10.5469 11.6373L10.7096 11.442C11.8164 10.205 11.7513 8.34957 10.5794 7.17769C9.375 5.94071 7.38932 5.94071 6.15234 7.17769L2.47396 10.8561C1.26953 12.0931 1.26953 14.0462 2.47396 15.2832C3.64583 16.4225 5.5013 16.4876 6.73828 15.4134L6.93359 15.2506C7.25911 14.9576 7.7474 14.9902 8.04036 15.3157C8.33333 15.6412 8.30078 16.1295 7.97526 16.4225L7.77995 16.5852C5.92448 18.2128 3.125 18.1152 1.36719 16.3899C-0.455729 14.567 -0.455729 11.5722 1.36719 9.74931L5.07812 6.07092ZM14.6484 14.1764C12.793 15.9993 9.83073 15.9993 8.00781 14.1764C6.25 12.4186 6.1849 9.65165 7.77995 7.79618L7.94271 7.60087C8.23568 7.27535 8.72396 7.2428 9.04948 7.53576C9.375 7.82873 9.40755 8.31701 9.11458 8.64254L8.98438 8.8053C7.8776 10.0423 7.94271 11.8977 9.11458 13.0696C10.319 14.274 12.3047 14.274 13.5417 13.0696L17.2201 9.39123C18.4245 8.15425 18.4245 6.20113 17.2201 4.96415C16.0482 3.82483 14.1927 3.75972 12.9557 4.83394L12.7604 4.9967C12.4349 5.28967 11.9466 5.25712 11.6536 4.9316C11.3607 4.60608 11.3932 4.1178 11.7188 3.82483L11.9141 3.66207C13.7695 2.03446 16.569 2.13212 18.3268 3.85738C20.1497 5.6803 20.1497 8.64254 18.3268 10.498L14.6484 14.1764Z" fill="#7C879C"/>
</svg>
