<svg width="278" height="141" viewBox="0 0 278 141" fill="none" xmlns="http://www.w3.org/2000/svg">
<g clip-path="url(#clip0_10279_12586)">
<g clip-path="url(#clip1_10279_12586)">
<path d="M182.96 116.412H163.25V123.492H182.96V116.412Z" fill="#5F8EFC"/>
<path d="M234.14 136.332C234.144 136.817 234.045 137.297 233.85 137.742C233.672 138.161 233.414 138.541 233.09 138.862C232.773 139.184 232.391 139.436 231.97 139.602C231.533 139.783 231.064 139.875 230.59 139.872C230.143 139.869 229.7 139.788 229.28 139.632C228.834 139.468 228.433 139.201 228.11 138.852L202.42 112.032V139.332H195.42V103.572C195.405 102.858 195.615 102.159 196.02 101.572C196.411 101.001 196.951 100.548 197.58 100.262C198.214 100.004 198.907 99.9308 199.58 100.052C200.274 100.186 200.907 100.536 201.39 101.052L227.11 127.862V100.562H234.11L234.14 136.332Z" fill="#222A34"/>
<path d="M8.28033 139.262C7.28176 139.279 6.28972 139.097 5.36243 138.726C4.43513 138.355 3.59126 137.803 2.88033 137.102C2.16841 136.429 1.6036 135.616 1.22152 134.714C0.839427 133.812 0.648347 132.841 0.660326 131.862V128.962H7.81033V131.862C7.80541 131.924 7.81437 131.986 7.83654 132.044C7.85872 132.103 7.89357 132.155 7.93856 132.198C7.98355 132.241 8.03755 132.274 8.09666 132.293C8.15577 132.313 8.21851 132.319 8.28033 132.312H32.7503C33.0103 132.312 33.1603 132.152 33.1603 131.862V123.862C33.1603 123.572 33.0103 123.412 32.7503 123.412H8.28033C7.28176 123.429 6.28972 123.247 5.36243 122.876C4.43513 122.505 3.59126 121.953 2.88033 121.252C2.16716 120.578 1.60162 119.763 1.21949 118.86C0.837363 117.956 0.646959 116.983 0.660326 116.002V108.002C0.646959 107.021 0.837363 106.047 1.21949 105.144C1.60162 104.24 2.16716 103.425 2.88033 102.752C3.59126 102.05 4.43513 101.498 5.36243 101.127C6.28972 100.756 7.28176 100.574 8.28033 100.592H32.7503C33.7436 100.58 34.7295 100.764 35.6512 101.135C36.5728 101.506 37.412 102.055 38.1203 102.752C38.8404 103.422 39.4125 104.235 39.8 105.139C40.1874 106.043 40.3817 107.018 40.3703 108.002V110.892H33.1603V108.002C33.1603 107.712 33.0103 107.552 32.7503 107.552H8.28033C8.21851 107.544 8.15577 107.55 8.09666 107.57C8.03755 107.59 7.98355 107.622 7.93856 107.665C7.89357 107.708 7.85872 107.761 7.83654 107.819C7.81437 107.877 7.80541 107.94 7.81033 108.002V116.002C7.80381 116.065 7.81158 116.128 7.83305 116.188C7.85452 116.247 7.88914 116.301 7.93432 116.345C7.9795 116.389 8.03408 116.423 8.09399 116.443C8.1539 116.463 8.2176 116.469 8.28033 116.462H32.7503C33.743 116.448 34.7286 116.631 35.6503 117C36.572 117.369 37.4115 117.917 38.1203 118.612C38.8404 119.282 39.4125 120.095 39.8 120.999C40.1874 121.903 40.3817 122.878 40.3703 123.862V131.862C40.3854 132.846 40.1929 133.822 39.8052 134.727C39.4175 135.631 38.8434 136.444 38.1203 137.112C37.412 137.808 36.5728 138.357 35.6512 138.728C34.7295 139.099 33.7436 139.284 32.7503 139.272L8.28033 139.262Z" fill="#222A34"/>
<path d="M132.27 116.792C132.289 118.246 132.09 119.696 131.68 121.092C131.315 122.277 130.772 123.399 130.07 124.422C129.418 125.36 128.629 126.195 127.73 126.902C126.059 128.198 124.112 129.094 122.04 129.522C121.129 129.714 120.201 129.814 119.27 129.822H103.37V122.822H119.27C120.107 122.762 120.93 122.577 121.71 122.272C122.41 121.994 123.048 121.583 123.59 121.062C124.124 120.55 124.54 119.929 124.81 119.242C125.109 118.471 125.256 117.649 125.24 116.822V113.632C125.163 112.796 124.971 111.975 124.67 111.192C124.407 110.492 124.01 109.85 123.5 109.302C122.99 108.774 122.377 108.356 121.7 108.072C120.929 107.762 120.102 107.612 119.27 107.632H103.43C103.043 107.603 102.654 107.653 102.286 107.779C101.918 107.904 101.58 108.102 101.29 108.362C101.033 108.644 100.835 108.976 100.71 109.337C100.584 109.698 100.533 110.08 100.56 110.462V139.362H93.5604V110.462C93.5163 108.873 93.8595 107.298 94.5604 105.872C95.1566 104.69 95.9948 103.648 97.0204 102.812C97.9754 102.058 99.0599 101.486 100.22 101.122C101.252 100.792 102.327 100.617 103.41 100.602H119.31C120.757 100.58 122.198 100.786 123.58 101.212C124.77 101.578 125.896 102.124 126.92 102.832C127.857 103.48 128.686 104.269 129.38 105.172C130.04 106.029 130.6 106.958 131.05 107.942C131.505 108.869 131.841 109.85 132.05 110.862C132.243 111.773 132.344 112.701 132.35 113.632L132.27 116.792Z" fill="#222A34"/>
<path d="M145.36 139.332H138.36V100.572H145.36V139.332Z" fill="#222A34"/>
<path d="M160.44 107.602H188.61V100.602H156.97C156.49 100.597 156.014 100.689 155.57 100.872C155.148 101.04 154.767 101.296 154.45 101.622C154.131 101.951 153.876 102.338 153.7 102.762C153.519 103.199 153.427 103.668 153.43 104.142V135.822C153.427 136.295 153.519 136.764 153.7 137.202C153.876 137.626 154.131 138.012 154.45 138.342C154.767 138.667 155.148 138.923 155.57 139.092C156.014 139.274 156.49 139.366 156.97 139.362H188.63V132.362H160.45L160.44 107.602Z" fill="#222A34"/>
<path d="M277.34 107.602H261.85V139.332H254.85V107.602H239.3V100.602H277.3L277.34 107.602Z" fill="#222A34"/>
<path d="M82.7802 102.322C82.0912 101.624 81.2683 101.073 80.3609 100.702C79.4536 100.331 78.4805 100.147 77.5002 100.162H53.7602C52.7856 100.156 51.8197 100.344 50.9183 100.715C50.0168 101.085 49.1979 101.631 48.5087 102.32C47.8196 103.009 47.274 103.828 46.9035 104.73C46.533 105.631 46.3449 106.597 46.3502 107.572V138.782H53.3502V123.492H77.9702V138.782H84.9702V107.572C84.9838 106.593 84.7965 105.623 84.4198 104.719C84.0431 103.816 83.485 103 82.7802 102.322ZM53.7802 107.122H77.5202C77.5816 107.114 77.644 107.12 77.7027 107.14C77.7615 107.159 77.815 107.192 77.8592 107.235C77.9035 107.278 77.9374 107.331 77.9583 107.39C77.9793 107.448 77.9868 107.51 77.9802 107.572V116.412H53.3102V107.572C53.3039 107.511 53.3113 107.45 53.3317 107.392C53.3521 107.335 53.385 107.283 53.4281 107.24C53.4712 107.196 53.5234 107.163 53.5809 107.143C53.6383 107.123 53.6996 107.115 53.7602 107.122H53.7802Z" fill="#222A34"/>
</g>
<g clip-path="url(#clip2_10279_12586)">
<path d="M114.31 10.6451H153.08V0.99508H109.51C108.845 0.988201 108.185 1.11399 107.57 1.36508C106.996 1.59416 106.472 1.93395 106.03 2.36508C105.599 2.82002 105.26 3.35289 105.03 3.93508C104.784 4.53827 104.658 5.18369 104.66 5.83508V49.4351C104.658 50.0865 104.784 50.7319 105.03 51.3351C105.26 51.9173 105.599 52.4501 106.03 52.9051C106.472 53.3362 106.996 53.676 107.57 53.9051C108.185 54.1562 108.845 54.282 109.51 54.2751H153.08V44.5951H114.31V10.6451Z" fill="#222A34"/>
<path d="M162.64 66.3451H123.87V75.9951H167.44C168.104 76.002 168.764 75.8762 169.38 75.6251C169.955 75.3996 170.479 75.0594 170.92 74.6251C171.347 74.172 171.686 73.6429 171.92 73.0651C172.164 72.4615 172.29 71.8163 172.29 71.1651V27.5351C172.29 26.8839 172.164 26.2387 171.92 25.6351C171.686 25.0573 171.347 24.5283 170.92 24.0751C170.479 23.6408 169.955 23.3006 169.38 23.0751C168.764 22.824 168.104 22.6982 167.44 22.7051H123.87V32.3751H162.64V66.3451Z" fill="#5F8EFC"/>
</g>
</g>
<defs>
<clipPath id="clip0_10279_12586">
<rect width="276.681" height="139.01" fill="white" transform="translate(0.659668 0.994812)"/>
</clipPath>
<clipPath id="clip1_10279_12586">
<rect width="276.681" height="39.8769" fill="white" transform="translate(0.659668 99.9948)"/>
</clipPath>
<clipPath id="clip2_10279_12586">
<rect width="67.63" height="75.0005" fill="white" transform="translate(104.66 0.994812)"/>
</clipPath>
</defs>
</svg>
