<svg width="20" height="21" viewBox="0 0 20 21" fill="none" xmlns="http://www.w3.org/2000/svg">
<path d="M18.0889 17.0513L13.7227 12.6893C14.6676 11.55 15.1889 10.0851 15.1889 8.49007C15.1889 4.77913 12.1261 1.71924 8.41149 1.71924C4.66435 1.71924 1.66663 4.77913 1.66663 8.49007C1.66663 12.2336 4.69693 15.2609 8.41149 15.2609C9.97552 15.2609 11.4418 14.7401 12.6148 13.7961L16.9811 18.158C17.144 18.3208 17.3395 18.3859 17.5676 18.3859C17.7631 18.3859 17.9586 18.3208 18.0889 18.158C18.4148 17.8651 18.4148 17.3768 18.0889 17.0513ZM3.23065 8.49007C3.23065 5.62549 5.54411 3.28174 8.44408 3.28174C11.3115 3.28174 13.6575 5.62549 13.6575 8.49007C13.6575 11.3872 11.3115 13.6984 8.44408 13.6984C5.54411 13.6984 3.23065 11.3872 3.23065 8.49007Z" fill="#7C879C"/>
</svg>
