<svg width="12" height="15" viewBox="0 0 12 15" fill="none" xmlns="http://www.w3.org/2000/svg">
<g clip-path="url(#clip0_514_162910)">
<path d="M1.83139 2.39101H8.51949V0.675463H1.00335C0.888662 0.67424 0.774888 0.696602 0.668686 0.74124C0.569673 0.781965 0.479405 0.842371 0.403026 0.919017C0.328814 0.999894 0.270264 1.09463 0.230519 1.19813C0.188096 1.30536 0.166412 1.4201 0.16669 1.5359V9.28696C0.166412 9.40276 0.188096 9.5175 0.230519 9.62473C0.270264 9.72823 0.328814 9.82297 0.403026 9.90384C0.479405 9.98049 0.569673 10.0409 0.668686 10.0816C0.774888 10.1263 0.888662 10.1486 1.00335 10.1474H8.51949V8.42652H1.83139V2.39101Z" fill="#2F3949"/>
<path d="M10.1686 12.2931H3.48053V14.0087H10.9967C11.1114 14.0099 11.2251 13.9875 11.3313 13.9429C11.4307 13.9028 11.5211 13.8423 11.597 13.7651C11.6708 13.6846 11.7293 13.5905 11.7695 13.4878C11.8117 13.3805 11.8333 13.2658 11.8333 13.15V5.39362C11.8333 5.27785 11.8117 5.16315 11.7695 5.05584C11.7293 4.95313 11.6708 4.85907 11.597 4.77851C11.5211 4.7013 11.4307 4.64082 11.3313 4.60074C11.2251 4.5561 11.1114 4.53374 10.9967 4.53496H3.48053V6.25406H10.1686V12.2931Z" fill="#2F3949"/>
</g>
<defs>
<clipPath id="clip0_514_162910">
<rect width="11.6667" height="13.3333" fill="white" transform="translate(0.166687 0.675415)"/>
</clipPath>
</defs>
</svg>
