<svg width="30" height="12" viewBox="0 0 30 12" fill="none" xmlns="http://www.w3.org/2000/svg">
<path d="M0.0738637 11V3.36364H1.20739V4.55682H1.30682C1.46591 4.14915 1.72277 3.83262 2.07741 3.60724C2.43205 3.37855 2.85795 3.2642 3.35511 3.2642C3.8589 3.2642 4.27817 3.37855 4.61293 3.60724C4.95099 3.83262 5.21449 4.14915 5.40341 4.55682H5.48295C5.6785 4.16241 5.97183 3.84919 6.36293 3.61719C6.75403 3.38187 7.22301 3.2642 7.76989 3.2642C8.45265 3.2642 9.01113 3.47798 9.44531 3.90554C9.8795 4.32978 10.0966 4.991 10.0966 5.8892V11H8.9233V5.8892C8.9233 5.32576 8.76918 4.92306 8.46094 4.68111C8.1527 4.43916 7.78977 4.31818 7.37216 4.31818C6.83523 4.31818 6.41927 4.48059 6.12429 4.8054C5.82931 5.12689 5.68182 5.53456 5.68182 6.02841V11H4.48864V5.76989C4.48864 5.3357 4.34777 4.98603 4.06605 4.72088C3.78433 4.45241 3.4214 4.31818 2.97727 4.31818C2.67235 4.31818 2.38731 4.39938 2.12216 4.56179C1.86032 4.72419 1.6482 4.94957 1.4858 5.23793C1.3267 5.52296 1.24716 5.85275 1.24716 6.22727V11H0.0738637ZM12.2418 11V3.36364H13.4151V11H12.2418ZM12.8384 2.09091C12.6097 2.09091 12.4125 2.01302 12.2468 1.85724C12.0844 1.70147 12.0032 1.5142 12.0032 1.29545C12.0032 1.0767 12.0844 0.889441 12.2468 0.733664C12.4125 0.577888 12.6097 0.5 12.8384 0.5C13.0671 0.5 13.2627 0.577888 13.4251 0.733664C13.5908 0.889441 13.6737 1.0767 13.6737 1.29545C13.6737 1.5142 13.5908 1.70147 13.4251 1.85724C13.2627 2.01302 13.0671 2.09091 12.8384 2.09091ZM16.7374 6.40625V11H15.5641V3.36364H16.6976V4.55682H16.7971C16.976 4.16903 17.2478 3.85748 17.6124 3.62216C17.977 3.38352 18.4476 3.2642 19.0243 3.2642C19.5414 3.2642 19.9938 3.37027 20.3816 3.58239C20.7694 3.79119 21.071 4.10938 21.2864 4.53693C21.5018 4.96117 21.6096 5.49811 21.6096 6.14773V11H20.4363V6.22727C20.4363 5.62737 20.2805 5.16004 19.9689 4.82528C19.6574 4.48722 19.2298 4.31818 18.6863 4.31818C18.3117 4.31818 17.977 4.39938 17.682 4.56179C17.3903 4.72419 17.16 4.96117 16.9909 5.27273C16.8219 5.58428 16.7374 5.96212 16.7374 6.40625ZM29.1626 5.07386L28.1087 5.37216C28.0424 5.1965 27.9446 5.0258 27.8153 4.86009C27.6894 4.69105 27.517 4.55185 27.2983 4.44247C27.0795 4.3331 26.7995 4.27841 26.4581 4.27841C25.9908 4.27841 25.6013 4.38613 25.2898 4.60156C24.9815 4.81368 24.8274 5.08381 24.8274 5.41193C24.8274 5.7036 24.9335 5.93395 25.1456 6.10298C25.3577 6.27202 25.6892 6.41288 26.1399 6.52557L27.2734 6.80398C27.9562 6.9697 28.465 7.22325 28.7997 7.56463C29.1345 7.9027 29.3018 8.33854 29.3018 8.87216C29.3018 9.30966 29.1759 9.70076 28.924 10.0455C28.6754 10.3902 28.3274 10.6619 27.88 10.8608C27.4325 11.0597 26.9122 11.1591 26.3189 11.1591C25.54 11.1591 24.8954 10.9901 24.3849 10.652C23.8745 10.3139 23.5514 9.82008 23.4155 9.17045L24.5291 8.89205C24.6352 9.30303 24.8357 9.61127 25.1307 9.81676C25.429 10.0223 25.8184 10.125 26.299 10.125C26.8459 10.125 27.2801 10.009 27.6016 9.77699C27.9264 9.54167 28.0888 9.25994 28.0888 8.93182C28.0888 8.66667 27.996 8.4446 27.8104 8.26562C27.6248 8.08333 27.3397 7.94744 26.9553 7.85795L25.6825 7.55966C24.9832 7.39394 24.4695 7.13707 24.1413 6.78906C23.8165 6.43774 23.6541 5.99858 23.6541 5.47159C23.6541 5.04072 23.7751 4.65956 24.017 4.32812C24.2623 3.99669 24.5954 3.73651 25.0163 3.54758C25.4406 3.35866 25.9212 3.2642 26.4581 3.2642C27.2138 3.2642 27.8071 3.42992 28.2379 3.76136C28.6721 4.0928 28.9804 4.5303 29.1626 5.07386Z" fill="#1D2939"/>
</svg>
