<svg width="18" height="15" viewBox="0 0 18 15" fill="none" xmlns="http://www.w3.org/2000/svg">
<path d="M17.6953 6.68359L15.3711 1.02344C15.2891 0.886719 15.125 0.75 14.9609 0.75C14.9062 0.75 14.8516 0.777344 14.7969 0.804688L11.5703 2.11719C11.4336 2.19922 11.2969 2.33594 11.2969 2.52734C11.2969 2.58203 11.3242 2.63672 11.3516 2.69141L11.4336 2.91016L2.27344 7.36719C2.02734 7.47656 1.94531 7.72266 2.02734 7.94141L2.24609 8.51562L0.496094 9.25391C0.359375 9.30859 0.222656 9.47266 0.222656 9.66406C0.222656 9.71875 0.25 9.77344 0.277344 9.82812L0.824219 11.1406C0.878906 11.3047 1.04297 11.4141 1.23438 11.4141C1.28906 11.4141 1.34375 11.4141 1.39844 11.3867L3.14844 10.6484L3.39453 11.2227C3.47656 11.4414 3.72266 11.5508 3.96875 11.4688L7.44141 10.2656V10.293L6.15625 14.1758C6.12891 14.2305 6.12891 14.2852 6.12891 14.3125C6.12891 14.5586 6.32031 14.75 6.56641 14.75H7.03125C7.22266 14.75 7.38672 14.6406 7.44141 14.4766L8.58984 11.0039C8.72656 11.0312 8.86328 11.0312 9 11.0312C9.10938 11.0312 9.24609 11.0312 9.38281 11.0039L10.5312 14.4766C10.5859 14.6406 10.75 14.75 10.9414 14.75H11.4062C11.6523 14.75 11.8438 14.5586 11.8438 14.3125C11.8438 14.2852 11.8438 14.2305 11.8164 14.1758L10.5312 10.293C10.7773 9.96484 10.9414 9.52734 10.9688 9.08984C10.9688 9.0625 10.9414 9.0625 10.9414 9.0625L13.5938 8.13281L13.6758 8.35156C13.7578 8.51562 13.9219 8.625 14.0859 8.625C14.1406 8.625 14.1953 8.625 14.25 8.59766L17.4766 7.25781C17.6133 7.20312 17.75 7.03906 17.75 6.84766C17.75 6.79297 17.7227 6.73828 17.6953 6.68359ZM9 9.74609C8.61719 9.74609 8.34375 9.44531 8.34375 9.08984C8.34375 8.70703 8.61719 8.43359 9 8.43359C9.35547 8.43359 9.65625 8.70703 9.65625 9.08984C9.65625 9.44531 9.35547 9.71875 9 9.74609ZM10.5039 7.83203C10.1484 7.39453 9.60156 7.09375 8.97266 7.09375C7.90625 7.09375 7.05859 7.96875 7.03125 9.03516L4.26953 9.96484L3.55859 8.21484L11.9258 4.11328L13.1016 6.92969L10.5039 7.83203ZM14.5781 7.03906L12.8828 2.99219L14.4688 2.33594L16.1641 6.38281L14.5781 7.03906Z" fill="#3C6DF5"/>
</svg>
