<svg width="24" height="24" viewBox="0 0 24 24" fill="none" xmlns="http://www.w3.org/2000/svg">
<path d="M4.29434 14.6074L16.1693 2.73242C17.1459 1.75586 18.7475 1.75586 19.724 2.73242L21.2475 4.25586C21.3647 4.37305 21.4818 4.5293 21.56 4.64648C22.224 5.62305 22.1068 6.95117 21.2475 7.81055L9.37246 19.6855C9.3334 19.7246 9.25528 19.7637 9.21621 19.8418C8.82559 20.1543 8.3959 20.3887 7.92715 20.5449L3.20059 21.9121C2.88809 22.0293 2.53653 21.9512 2.30215 21.6777C2.02871 21.4434 1.95059 21.0918 2.02871 20.7793L3.43496 16.0527C3.59121 15.5059 3.90371 14.998 4.29434 14.6074ZM5.23184 16.5996L4.3334 19.6465L7.38028 18.748C7.61465 18.6699 7.84903 18.5527 8.04434 18.3574L16.9897 9.41211L14.5287 6.99023L5.62246 15.9355C5.5834 15.9355 5.5834 15.9746 5.54434 16.0137C5.38809 16.1699 5.30996 16.3652 5.23184 16.5996Z" fill="#7C879C"/>
</svg>
