<svg width="219" height="219" viewBox="0 0 219 219" fill="none" xmlns="http://www.w3.org/2000/svg">
<path d="M216.153 53.9071L164.8 2.55312C163.394 1.14712 161.486 0.357117 159.497 0.357117C157.508 0.357117 155.6 1.14712 154.194 2.55312L4.30399 152.443C2.95399 153.795 2.16899 155.609 2.11099 157.518L0.499989 210.484C0.436989 212.551 1.23099 214.553 2.69299 216.016C4.10199 217.424 6.00999 218.212 7.99599 218.212C8.07199 218.212 8.14799 218.211 8.22499 218.208L61.189 216.595C63.098 216.537 64.913 215.753 66.264 214.403L216.154 64.5141C219.082 61.5851 219.082 56.8361 216.153 53.9071ZM57.759 201.693L15.735 202.973L17.014 160.947L108.138 69.8221L148.888 110.565L57.759 201.693Z" fill="black"/>
</svg>
