<svg width="14" height="14" viewBox="0 0 14 14" fill="none" xmlns="http://www.w3.org/2000/svg">
<path fill-rule="evenodd" clip-rule="evenodd" d="M6.99992 0.333008C7.46016 0.333008 7.83325 0.706104 7.83325 1.16634V6.16634H12.8333C13.2935 6.16634 13.6666 6.53944 13.6666 6.99967C13.6666 7.45991 13.2935 7.83301 12.8333 7.83301H7.83325V12.833C7.83325 13.2932 7.46016 13.6663 6.99992 13.6663C6.53968 13.6663 6.16658 13.2932 6.16658 12.833V7.83301H1.16659C0.706348 7.83301 0.333252 7.45991 0.333252 6.99967C0.333252 6.53944 0.706348 6.16634 1.16659 6.16634H6.16658V1.16634C6.16658 0.706104 6.53968 0.333008 6.99992 0.333008Z" fill="white"/>
</svg>
