<svg width="14" height="14" viewBox="0 0 14 14" fill="none" xmlns="http://www.w3.org/2000/svg">
<path fill-rule="evenodd" clip-rule="evenodd" d="M6.99967 0.333374C7.45991 0.333374 7.83301 0.70647 7.83301 1.16671V6.16671H12.833C13.2932 6.16671 13.6663 6.5398 13.6663 7.00004C13.6663 7.46028 13.2932 7.83337 12.833 7.83337H7.83301V12.8334C7.83301 13.2936 7.45991 13.6667 6.99967 13.6667C6.53944 13.6667 6.16634 13.2936 6.16634 12.8334V7.83337H1.16634C0.706104 7.83337 0.333008 7.46028 0.333008 7.00004C0.333008 6.5398 0.706104 6.16671 1.16634 6.16671H6.16634V1.16671C6.16634 0.70647 6.53944 0.333374 6.99967 0.333374Z" fill="#444CE7"/>
</svg>
