<svg width="24" height="24" viewBox="0 0 24 24" fill="none" xmlns="http://www.w3.org/2000/svg">
<path d="M13.625 12.3125C13.625 12.8594 13.1953 13.25 12.6875 13.25C12.1406 13.25 11.75 12.8594 11.75 12.3125V2.9375C11.75 2.42969 12.1406 2 12.6875 2C13.1953 2 13.625 2.42969 13.625 2.9375V12.3125ZM4.875 12.2344C4.875 16.375 8.19531 19.7344 12.375 19.7344C16.5156 19.7344 19.875 16.375 19.875 12.2344C19.875 9.77344 18.6641 7.58594 16.7891 6.21875C16.3984 5.90625 16.2812 5.32031 16.5938 4.89062C16.9062 4.5 17.4922 4.38281 17.9219 4.69531C20.2266 6.41406 21.75 9.14844 21.75 12.2344C21.75 17.4297 17.5312 21.6094 12.375 21.6094C7.17969 21.6094 3 17.4297 3 12.2344C3 9.14844 4.48438 6.41406 6.78906 4.69531C7.21875 4.38281 7.80469 4.5 8.11719 4.89062C8.42969 5.32031 8.3125 5.90625 7.92188 6.21875C6.04688 7.58594 4.83594 9.77344 4.83594 12.2344H4.875Z" fill="#7C879C"/>
</svg>
