<svg width="20" height="21" viewBox="0 0 20 21" fill="none" xmlns="http://www.w3.org/2000/svg">
<path d="M17.0801 4.05696C16.7871 3.73144 16.2988 3.73144 15.9733 4.02441C15.6803 4.31738 15.6478 4.80566 15.9408 5.13118C18.4473 7.83301 18.4473 12.2926 15.9408 14.9945C15.6478 15.32 15.6803 15.8083 15.9733 16.1012C16.1361 16.2314 16.3314 16.2965 16.5267 16.2965C16.722 16.2965 16.9499 16.2314 17.0801 16.0687C20.14 12.7484 20.14 7.37728 17.0801 4.05696ZM13.4017 6.59603C13.0762 6.85644 13.0436 7.37728 13.3366 7.67025C14.4759 8.97233 14.4759 11.0882 13.3366 12.3903C13.0436 12.7158 13.0762 13.2041 13.4017 13.4971C13.5319 13.5947 13.7272 13.6924 13.9225 13.6924C14.1178 13.6924 14.3457 13.5947 14.5085 13.3994C16.1361 11.5439 16.1361 8.5166 14.5085 6.66113C14.2155 6.36816 13.7272 6.33561 13.4017 6.59603ZM4.02669 4.02441C3.70117 3.73144 3.21289 3.73144 2.91992 4.05696C-0.139974 7.37728 -0.139974 12.7484 2.91992 16.0687C3.05013 16.2314 3.27799 16.2965 3.47331 16.2965C3.66862 16.2965 3.86393 16.2314 4.02669 16.1012C4.31966 15.8083 4.35221 15.32 4.05924 14.9945C1.55273 12.2926 1.55273 7.83301 4.05924 5.13118C4.35221 4.80566 4.31966 4.31738 4.02669 4.02441ZM6.59831 6.59603C6.27279 6.33561 5.7845 6.36816 5.49154 6.69368C3.86393 8.54915 3.86393 11.5765 5.49154 13.432C5.6543 13.6273 5.88216 13.7249 6.07747 13.7249C6.27279 13.7249 6.4681 13.6598 6.59831 13.5296C6.92383 13.2367 6.95638 12.7484 6.66341 12.4228C5.52409 11.1208 5.52409 9.00488 6.66341 7.7028C6.95638 7.37728 6.92383 6.889 6.59831 6.59603ZM10.0163 8.74446C9.26758 8.74446 8.68164 9.3304 8.68164 10.0465C8.68164 10.7301 9.26758 11.3486 10.0163 11.3486C10.7324 11.3486 11.3184 10.7952 11.3184 10.0791C11.3184 9.39551 10.7324 8.74446 10.0163 8.74446Z" fill="white"/>
</svg>
