<svg width="18" height="15" viewBox="0 0 18 15" fill="none" xmlns="http://www.w3.org/2000/svg">
<path d="M8.0625 0.9375C9.08789 0.9375 9.9375 1.78711 9.9375 2.8125V5.625C9.9375 6.67969 9.08789 7.5 8.0625 7.5H2.4375C1.38281 7.5 0.5625 6.67969 0.5625 5.625V2.8125C0.5625 1.78711 1.38281 0.9375 2.4375 0.9375H8.0625ZM8.0625 2.34375H2.4375C2.17383 2.34375 1.96875 2.57812 1.96875 2.8125V5.625C1.96875 5.88867 2.17383 6.09375 2.4375 6.09375H8.0625C8.29688 6.09375 8.53125 5.88867 8.53125 5.625V2.8125C8.53125 2.57812 8.29688 2.34375 8.0625 2.34375ZM15.5625 0.9375C16.5879 0.9375 17.4375 1.78711 17.4375 2.8125V9.375C17.4375 10.4297 16.5879 11.25 15.5625 11.25H13.6875C12.6328 11.25 11.8125 10.4297 11.8125 9.375V2.8125C11.8125 1.78711 12.6328 0.9375 13.6875 0.9375H15.5625ZM15.5625 2.34375H13.6875C13.4238 2.34375 13.2188 2.57812 13.2188 2.8125V9.375C13.2188 9.63867 13.4238 9.84375 13.6875 9.84375H15.5625C15.7969 9.84375 16.0312 9.63867 16.0312 9.375V2.8125C16.0312 2.57812 15.7969 2.34375 15.5625 2.34375ZM2.4375 10.7812C2.4375 9.75586 3.25781 8.90625 4.3125 8.90625H8.53125C9.55664 8.90625 10.4062 9.75586 10.4062 10.7812V12.1875C10.4062 13.2422 9.55664 14.0625 8.53125 14.0625H4.3125C3.25781 14.0625 2.4375 13.2422 2.4375 12.1875V10.7812ZM3.84375 10.7812V12.1875C3.84375 12.4512 4.04883 12.6562 4.3125 12.6562H8.53125C8.76562 12.6562 9 12.4512 9 12.1875V10.7812C9 10.5469 8.76562 10.3125 8.53125 10.3125H4.3125C4.04883 10.3125 3.84375 10.5469 3.84375 10.7812Z" fill="#808080"/>
</svg>
