<svg  viewBox="0 0 26 22" fill="none" xmlns="http://www.w3.org/2000/svg">
<path d="M6.37887 4.61325C8.13669 3.28512 10.3242 2.23044 13.0195 2.23044C16.1445 2.23044 18.6836 3.67575 20.5195 5.3945C22.3554 7.07419 23.5664 9.10544 24.1523 10.5117C24.2695 10.8242 24.2695 11.1757 24.1523 11.4882C23.6445 12.7382 22.5898 14.5351 21.0273 16.0976L25.1289 19.3398C25.5586 19.6523 25.6367 20.2382 25.2851 20.6289C24.9726 21.0586 24.3867 21.1367 23.9961 20.7851L0.871061 2.66012C0.441374 2.34762 0.363249 1.76169 0.714811 1.37106C1.02731 0.941374 1.61325 0.863249 2.00387 1.21481L6.37887 4.61325ZM7.90231 5.82419L9.69919 7.23044C10.5976 6.44919 11.7304 5.98044 13.0195 5.98044C15.7539 5.98044 18.0195 8.24606 18.0195 10.9804C18.0195 11.8398 17.7851 12.6211 17.4336 13.2851L19.5429 14.9257C20.8711 13.5976 21.8086 12.0742 22.3164 10.9804C21.7695 9.80856 20.7539 8.16794 19.2304 6.76169C17.6289 5.27731 15.5586 4.10544 13.0195 4.10544C11.0273 4.10544 9.30856 4.80856 7.90231 5.82419ZM15.9101 12.1132C16.0664 11.7617 16.1445 11.3711 16.1445 10.9804C16.1445 9.26169 14.7382 7.85544 13.0195 7.85544C12.9804 7.85544 12.9414 7.85544 12.9023 7.85544C12.9804 8.08981 13.0195 8.28512 13.0195 8.48044C13.0195 8.91012 12.9023 9.26169 12.7461 9.61325L15.9101 12.1132ZM16.3007 17.1914L17.9414 18.4804C16.4961 19.2617 14.8554 19.7304 13.0195 19.7304C9.85544 19.7304 7.31637 18.3242 5.48044 16.6054C3.6445 14.8867 2.43356 12.8554 1.84762 11.4882C1.73044 11.1757 1.73044 10.8242 1.84762 10.5117C2.23825 9.61325 2.86325 8.48044 3.76169 7.30856L5.207 8.48044C4.50387 9.37887 3.99606 10.2773 3.68356 10.9804C4.23044 12.1523 5.24606 13.832 6.7695 15.2382C8.37106 16.7226 10.4414 17.8554 13.0195 17.8554C14.1914 17.8554 15.2851 17.6211 16.3007 17.1914ZM8.0195 10.9804C8.0195 10.9023 8.0195 10.7851 8.0195 10.6679L10.207 12.3867C10.5976 13.207 11.3789 13.832 12.3164 14.0273L14.5039 15.7851C14.0351 15.9023 13.5273 15.9804 12.9804 15.9804C10.2461 15.9804 7.98044 13.7539 7.98044 10.9804H8.0195Z" fill="black"/>
</svg>
