<svg width="20" height="20" viewBox="0 0 20 20" fill="none" xmlns="http://www.w3.org/2000/svg">
<g id="Sapient Icons / telescope">
<path id="Icon" d="M19.9515 8.68422L17.2934 1.97849C17.1683 1.71807 16.8869 1.58787 16.6367 1.71807L12.9466 3.28057C12.6964 3.41078 12.5713 3.70375 12.6964 3.96417L12.7902 4.22458L2.31413 9.49802C2.03268 9.62823 1.90759 9.9212 2.03268 10.1816L2.28285 10.8652L0.281448 11.7441C0.125088 11.8092 0 12.0371 0 12.2324C0 12.2649 0 12.3626 0.031272 12.4277L0.656711 13.9902C0.719255 14.1855 0.938159 14.3157 1.12579 14.3157C1.15706 14.3157 1.25088 14.3157 1.31342 14.2832L3.31483 13.4043L3.565 14.0879C3.69009 14.3483 3.97154 14.4785 4.25299 14.3808L8.22453 12.9485C8.22453 12.9811 8.22453 12.9811 8.22453 12.9811L6.78602 17.2454C6.62966 17.636 6.84856 18.0918 7.25509 18.222C7.31764 18.2871 7.41145 18.2871 7.474 18.2871C7.75545 18.2871 8.06817 18.0918 8.16198 17.7663L9.50668 13.8274C9.66304 13.86 9.8194 13.86 9.97575 13.86C10.1321 13.86 10.2572 13.86 10.4136 13.8274L11.7583 17.7663C11.8833 18.0918 12.1961 18.2871 12.4775 18.2871C12.5401 18.2871 12.6339 18.2871 12.7277 18.2545C13.103 18.1243 13.3219 17.6686 13.1655 17.2454L11.727 12.9811C12.0397 12.5905 12.2273 12.0696 12.2273 11.5488C12.2273 11.5163 12.2273 11.5163 12.2273 11.5163L15.2294 10.4095L15.3233 10.6699C15.4483 10.9303 15.7298 11.0605 15.98 10.9629L19.6701 9.36781C19.9515 9.27016 20.0766 8.94464 19.9515 8.68422ZM9.97575 12.2975C9.53795 12.2975 9.22523 11.9394 9.22523 11.5163C9.22523 11.0605 9.53795 10.735 9.97575 10.735C10.3823 10.735 10.7263 11.0605 10.7263 11.5163C10.7263 11.9394 10.4136 12.2975 9.97575 12.2975ZM11.727 10.0514C11.2892 9.53057 10.695 9.1725 9.97575 9.1725C8.75615 9.1725 7.78672 10.2142 7.75545 11.4837L4.59698 12.5905L3.78391 10.5071L13.3531 5.62432L14.6978 8.97719L11.727 10.0514ZM16.3552 9.1074L14.4164 4.28969L16.2614 3.50844L18.169 8.32615L16.3552 9.1074Z" fill="#444CE7"/>
</g>
</svg>
