<svg width="18" height="19" viewBox="0 0 18 19" fill="none" xmlns="http://www.w3.org/2000/svg">
<path d="M17.9564 8.31551L15.5641 2.28035C15.4515 2.04597 15.1982 1.92879 14.973 2.04597L11.6519 3.45222C11.4268 3.56941 11.3142 3.83308 11.4268 4.06746L11.5112 4.30183L2.08271 9.04793C1.82941 9.16511 1.71683 9.42879 1.82941 9.66316L2.05457 10.2784L0.253303 11.0694C0.112579 11.128 0 11.3331 0 11.5089C0 11.5382 0 11.6261 0.0281448 11.6846L0.59104 13.0909C0.64733 13.2667 0.844343 13.3839 1.01321 13.3839C1.04136 13.3839 1.12579 13.3839 1.18208 13.3546L2.98335 12.5636L3.2085 13.1788C3.32108 13.4132 3.57439 13.5303 3.82769 13.4425L7.40207 12.1534C7.40207 12.1827 7.40207 12.1827 7.40207 12.1827L6.10741 16.0206C5.96669 16.3721 6.1637 16.7823 6.52959 16.8995C6.58588 16.9581 6.67031 16.9581 6.7266 16.9581C6.9799 16.9581 7.26135 16.7823 7.34578 16.4893L8.55601 12.9444C8.69673 12.9737 8.83746 12.9737 8.97818 12.9737C9.1189 12.9737 9.23148 12.9737 9.37221 12.9444L10.5824 16.4893C10.695 16.7823 10.9765 16.9581 11.2298 16.9581C11.2861 16.9581 11.3705 16.9581 11.4549 16.9288C11.7927 16.8116 11.9897 16.4014 11.8489 16.0206L10.5543 12.1827C10.8357 11.8311 11.0046 11.3624 11.0046 10.8936C11.0046 10.8643 11.0046 10.8643 11.0046 10.8643L13.7065 9.86824L13.7909 10.1026C13.9035 10.337 14.1568 10.4542 14.382 10.3663L17.7031 8.93074C17.9564 8.84285 18.0689 8.54988 17.9564 8.31551ZM8.97818 11.5675C8.58415 11.5675 8.30271 11.2452 8.30271 10.8643C8.30271 10.4542 8.58415 10.1612 8.97818 10.1612C9.34406 10.1612 9.65365 10.4542 9.65365 10.8643C9.65365 11.2452 9.37221 11.5675 8.97818 11.5675ZM10.5543 9.54597C10.1603 9.07722 9.62551 8.75496 8.97818 8.75496C7.88053 8.75496 7.00805 9.69246 6.9799 10.835L4.13728 11.8311L3.40552 9.95613L12.0178 5.5616L13.228 8.57918L10.5543 9.54597ZM14.7197 8.69636L12.9747 4.36043L14.6353 3.6573L16.3521 7.99324L14.7197 8.69636Z" fill="white"/>
</svg>
