<svg width="18" height="19" viewBox="0 0 18 19" fill="none" xmlns="http://www.w3.org/2000/svg">
<path d="M9 9.5C9 7.94727 10.2305 6.6875 11.8125 6.6875C13.3652 6.6875 14.625 7.94727 14.625 9.5C14.625 11.0527 13.3652 12.3125 11.8125 12.3125C10.2305 12.3125 9 11.0527 9 9.5ZM0.5625 9.5C0.5625 6.39453 3.05273 3.875 6.1875 3.875H11.8125C14.918 3.875 17.4375 6.39453 17.4375 9.5C17.4375 12.6055 14.918 15.125 11.8125 15.125H6.1875C3.05273 15.125 0.5625 12.6055 0.5625 9.5ZM1.96875 9.5C1.96875 11.8438 3.84375 13.7188 6.1875 13.7188H11.8125C14.127 13.7188 16.0312 11.8438 16.0312 9.5C16.0312 7.18555 14.127 5.28125 11.8125 5.28125H6.1875C3.84375 5.28125 1.96875 7.18555 1.96875 9.5Z" fill="white"/>
</svg>
