<svg width="16" height="16" viewBox="0 0 16 16" fill="none" xmlns="http://www.w3.org/2000/svg">
<path d="M14.5383 12.026L8.99139 2.54688C8.75702 2.18229 8.39244 2 8.02785 2C7.63723 2 7.27264 2.18229 7.03827 2.54688L1.46535 12.026C1.07473 12.7552 1.59556 13.6667 2.45494 13.6667H13.5747C14.4341 13.6667 14.9549 12.7552 14.5383 12.026ZM2.71535 12.4167L8.00181 3.38021L13.3143 12.4167H2.71535ZM8.02785 9.96875C7.5591 9.96875 7.19452 10.3333 7.19452 10.776C7.19452 11.2188 7.5591 11.5833 8.02785 11.5833C8.47056 11.5833 8.83514 11.2188 8.83514 10.776C8.83514 10.3333 8.47056 9.96875 8.02785 9.96875ZM7.40285 5.95833V8.45833C7.40285 8.82292 7.66327 9.08333 8.02785 9.08333C8.36639 9.08333 8.65285 8.82292 8.65285 8.45833V5.95833C8.65285 5.61979 8.36639 5.33333 8.02785 5.33333C7.66327 5.33333 7.40285 5.61979 7.40285 5.95833Z" fill="#DC6803"/>
</svg>
