<svg width="20" height="21" viewBox="0 0 20 21" fill="none" xmlns="http://www.w3.org/2000/svg">
<path fill-rule="evenodd" clip-rule="evenodd" d="M4.41009 4.91058C4.73553 4.58514 5.26317 4.58514 5.5886 4.91058L9.99935 9.32133L14.4101 4.91058C14.7355 4.58514 15.2632 4.58514 15.5886 4.91058C15.914 5.23602 15.914 5.76366 15.5886 6.08909L11.1779 10.4998L15.5886 14.9106C15.914 15.236 15.914 15.7637 15.5886 16.0891C15.2632 16.4145 14.7355 16.4145 14.4101 16.0891L9.99935 11.6783L5.5886 16.0891C5.26317 16.4145 4.73553 16.4145 4.41009 16.0891C4.08466 15.7637 4.08466 15.236 4.41009 14.9106L8.82084 10.4998L4.41009 6.08909C4.08466 5.76366 4.08466 5.23602 4.41009 4.91058Z" fill="#7C879C"/>
</svg>
