<svg width="16" height="10" viewBox="0 0 16 10" fill="none" xmlns="http://www.w3.org/2000/svg">
<path d="M10.625 2.125C10.1328 2.125 9.75 1.74219 9.75 1.25C9.75 0.785156 10.1328 0.375 10.625 0.375H15C15.4648 0.375 15.875 0.785156 15.875 1.25V5.625C15.875 6.11719 15.4648 6.5 15 6.5C14.5078 6.5 14.125 6.11719 14.125 5.625V3.38281L9.47656 8.00391C9.14844 8.35938 8.57422 8.35938 8.24609 8.00391L5.34766 5.13281L1.60156 8.87891C1.27344 9.23438 0.699219 9.23438 0.371094 8.87891C0.015625 8.55078 0.015625 7.97656 0.371094 7.64844L4.74609 3.27344C5.07422 2.91797 5.64844 2.91797 5.97656 3.27344L8.875 6.14453L12.8672 2.125H10.625Z" fill="#DC6803"/>
</svg>
