<svg width="368" height="156" viewBox="0 0 368 156" fill="none" xmlns="http://www.w3.org/2000/svg">
<g filter="url(#filter0_ii_5143_450392)">
<rect y="3" width="368" height="148" rx="8" fill="#3F4B5C"/>
<path d="M17.0462 23.8182V34H15.2017V25.6129H15.142L12.7607 27.1342V25.4439L15.2912 23.8182H17.0462Z" fill="#B8BFCC"/>
<g opacity="0.6" filter="url(#filter1_f_5143_450392)">
<circle cx="44" cy="29" r="6" fill="#32D583"/>
</g>
<g filter="url(#filter2_dii_5143_450392)">
<circle cx="44" cy="29" r="4" fill="#32D583"/>
</g>
<path d="M16.5589 82.1392C15.843 82.1392 15.2067 82.0166 14.6499 81.7713C14.0964 81.526 13.6589 81.1847 13.3374 80.7472C13.0159 80.3097 12.8452 79.8042 12.8253 79.2308H14.6946C14.7112 79.5059 14.8023 79.7462 14.968 79.9517C15.1338 80.1539 15.3542 80.3113 15.6293 80.424C15.9044 80.5367 16.2126 80.593 16.554 80.593C16.9186 80.593 17.2417 80.5301 17.5234 80.4041C17.8052 80.2749 18.0256 80.0959 18.1847 79.8672C18.3438 79.6385 18.4216 79.375 18.4183 79.0767C18.4216 78.7685 18.3421 78.4967 18.1797 78.2614C18.0173 78.026 17.782 77.8421 17.4737 77.7095C17.1688 77.5769 16.8009 77.5107 16.37 77.5107H15.4702V76.0888H16.37C16.7247 76.0888 17.0346 76.0275 17.2997 75.9048C17.5682 75.7822 17.7786 75.6098 17.9311 75.3878C18.0836 75.1624 18.1581 74.9022 18.1548 74.6072C18.1581 74.3189 18.0935 74.0687 17.9609 73.8565C17.8317 73.6411 17.6477 73.4737 17.4091 73.3544C17.1738 73.2351 16.897 73.1754 16.5788 73.1754C16.2673 73.1754 15.9789 73.2318 15.7138 73.3445C15.4486 73.4571 15.2348 73.6179 15.0724 73.8267C14.91 74.0322 14.8239 74.2775 14.8139 74.5625H13.0391C13.0523 73.9924 13.2164 73.492 13.5312 73.0611C13.8494 72.6269 14.2737 72.2888 14.804 72.0469C15.3343 71.8016 15.9292 71.679 16.5888 71.679C17.2682 71.679 17.8582 71.8066 18.3587 72.0618C18.8625 72.3137 19.2519 72.6534 19.527 73.081C19.8021 73.5085 19.9396 73.9808 19.9396 74.4979C19.9429 75.0713 19.7739 75.5518 19.4325 75.9396C19.0945 76.3274 18.6503 76.581 18.1001 76.7003V76.7798C18.8161 76.8793 19.3646 77.1444 19.7457 77.5753C20.1302 78.0028 20.3208 78.5348 20.3175 79.1712C20.3175 79.7412 20.1551 80.2517 19.8303 80.7024C19.5088 81.1499 19.0646 81.5012 18.4979 81.7564C17.9344 82.0116 17.2881 82.1392 16.5589 82.1392Z" fill="#B8BFCC"/>
<g opacity="0.6" filter="url(#filter3_f_5143_450392)">
<circle cx="44" cy="77" r="6" fill="#32D583"/>
</g>
<g filter="url(#filter4_dii_5143_450392)">
<circle cx="44" cy="77" r="4" fill="#32D583"/>
</g>
<path d="M16.4446 130.139C15.7817 130.139 15.1884 130.015 14.6648 129.766C14.1411 129.514 13.7251 129.17 13.4169 128.732C13.112 128.295 12.9496 127.794 12.9297 127.231H14.7195C14.7526 127.648 14.9332 127.99 15.2614 128.255C15.5895 128.517 15.9839 128.648 16.4446 128.648C16.8059 128.648 17.1274 128.565 17.4091 128.399C17.6908 128.233 17.9129 128.003 18.0753 127.708C18.2377 127.413 18.3172 127.077 18.3139 126.699C18.3172 126.314 18.236 125.973 18.0703 125.675C17.9046 125.376 17.6776 125.143 17.3892 124.974C17.1009 124.801 16.7694 124.715 16.3949 124.715C16.09 124.712 15.79 124.768 15.495 124.884C15.2 125 14.9664 125.153 14.794 125.342L13.1286 125.068L13.6605 119.818H19.5668V121.359H15.1868L14.8935 124.059H14.9531C15.142 123.837 15.4089 123.653 15.7536 123.507C16.0982 123.358 16.4761 123.283 16.8871 123.283C17.5036 123.283 18.0537 123.429 18.5376 123.721C19.0215 124.009 19.4027 124.407 19.6811 124.914C19.9595 125.421 20.0987 126.001 20.0987 126.654C20.0987 127.327 19.9429 127.927 19.6314 128.454C19.3232 128.978 18.8939 129.39 18.3438 129.692C17.7969 129.99 17.1638 130.139 16.4446 130.139Z" fill="#B8BFCC"/>
<g opacity="0.6" filter="url(#filter5_f_5143_450392)">
<circle cx="44" cy="125" r="6" fill="#32D583"/>
</g>
<g filter="url(#filter6_dii_5143_450392)">
<circle cx="44" cy="125" r="4" fill="#32D583"/>
</g>
<path d="M58.5149 71.6506V70.603L61.6009 65.7273H62.4744V67.2188H61.9418L59.8643 70.5107V70.5675H64.1719V71.6506H58.5149ZM61.9844 73V71.331L61.9986 70.8622V65.7273H63.2415V73H61.9844ZM67.9947 73.1385C67.4099 73.1385 66.908 72.9905 66.489 72.6946C66.0723 72.3963 65.7515 71.9666 65.5266 71.4055C65.3041 70.8421 65.1928 70.1638 65.1928 69.3707C65.1952 68.5777 65.3076 67.9029 65.5302 67.3466C65.7551 66.7879 66.0759 66.3617 66.4925 66.0682C66.9116 65.7746 67.4123 65.6278 67.9947 65.6278C68.5771 65.6278 69.0778 65.7746 69.4968 66.0682C69.9158 66.3617 70.2366 66.7879 70.4592 67.3466C70.6841 67.9053 70.7965 68.58 70.7965 69.3707C70.7965 70.1662 70.6841 70.8456 70.4592 71.4091C70.2366 71.9702 69.9158 72.3987 69.4968 72.6946C69.0801 72.9905 68.5794 73.1385 67.9947 73.1385ZM67.9947 72.027C68.4492 72.027 68.8079 71.8033 69.0707 71.3558C69.3358 70.906 69.4684 70.2443 69.4684 69.3707C69.4684 68.7931 69.408 68.3078 69.2873 67.9148C69.1665 67.5218 68.9961 67.2259 68.7759 67.027C68.5558 66.8258 68.2953 66.7251 67.9947 66.7251C67.5425 66.7251 67.185 66.95 66.9222 67.3999C66.6594 67.8473 66.5269 68.5043 66.5245 69.3707C66.5221 69.9508 66.5801 70.4384 66.6985 70.8338C66.8192 71.2292 66.9897 71.5275 67.2099 71.7287C67.43 71.9276 67.6916 72.027 67.9947 72.027ZM72.9814 73H71.5751L74.1355 65.7273H75.7619L78.3258 73H76.9196L74.9771 67.2188H74.9203L72.9814 73ZM73.0275 70.1484H76.8627V71.2067H73.0275V70.1484Z" fill="#F2F4F7"/>
<path d="M61.6044 81.7273V89H60.2869V83.0092H60.2443L58.5433 84.0959V82.8885L60.3509 81.7273H61.6044ZM63.451 89V88.0483L65.9759 85.5732C66.2173 85.3293 66.4186 85.1127 66.5795 84.9233C66.7405 84.7339 66.8613 84.5504 66.9418 84.3729C67.0223 84.1953 67.0625 84.0059 67.0625 83.8047C67.0625 83.575 67.0104 83.3786 66.9062 83.2152C66.8021 83.0495 66.6589 82.9216 66.4766 82.8317C66.2943 82.7417 66.0871 82.6967 65.8551 82.6967C65.616 82.6967 65.4065 82.7464 65.2266 82.8459C65.0466 82.9429 64.907 83.0814 64.8075 83.2614C64.7105 83.4413 64.6619 83.6555 64.6619 83.9041H63.4084C63.4084 83.4425 63.5137 83.0412 63.7244 82.7003C63.9351 82.3594 64.2251 82.0954 64.5945 81.9084C64.9661 81.7214 65.3923 81.6278 65.8729 81.6278C66.3606 81.6278 66.7891 81.719 67.1584 81.9013C67.5277 82.0836 67.8142 82.3333 68.0178 82.6506C68.2237 82.9678 68.3267 83.33 68.3267 83.7372C68.3267 84.0095 68.2746 84.277 68.1705 84.5398C68.0663 84.8026 67.8828 85.0937 67.62 85.4134C67.3596 85.733 66.9938 86.12 66.5227 86.5746L65.2692 87.8494V87.8991H68.4368V89H63.451ZM72.3501 89.1385C71.7654 89.1385 71.2635 88.9905 70.8445 88.6946C70.4278 88.3963 70.107 87.9666 69.8821 87.4055C69.6596 86.8421 69.5483 86.1638 69.5483 85.3707C69.5507 84.5777 69.6631 83.9029 69.8857 83.3466C70.1106 82.7879 70.4313 82.3617 70.848 82.0682C71.267 81.7746 71.7678 81.6278 72.3501 81.6278C72.9325 81.6278 73.4332 81.7746 73.8523 82.0682C74.2713 82.3617 74.5921 82.7879 74.8146 83.3466C75.0395 83.9053 75.152 84.58 75.152 85.3707C75.152 86.1662 75.0395 86.8456 74.8146 87.4091C74.5921 87.9702 74.2713 88.3987 73.8523 88.6946C73.4356 88.9905 72.9349 89.1385 72.3501 89.1385ZM72.3501 88.027C72.8047 88.027 73.1634 87.8033 73.4261 87.3558C73.6913 86.906 73.8239 86.2443 73.8239 85.3707C73.8239 84.7931 73.7635 84.3078 73.6428 83.9148C73.522 83.5218 73.3516 83.2259 73.1314 83.027C72.9112 82.8258 72.6508 82.7251 72.3501 82.7251C71.898 82.7251 71.5405 82.95 71.2777 83.3999C71.0149 83.8473 70.8823 84.5043 70.88 85.3707C70.8776 85.9508 70.9356 86.4384 71.054 86.8338C71.1747 87.2292 71.3452 87.5275 71.5653 87.7287C71.7855 87.9276 72.0471 88.027 72.3501 88.027ZM77.3759 81.7273L79.2686 87.4517H79.3432L81.2324 81.7273H82.6813L80.1174 89H78.4909L75.9306 81.7273H77.3759Z" fill="#F2F4F7"/>
<g filter="url(#filter7_dii_5143_450392)">
<g clip-path="url(#clip0_5143_450392)">
<rect x="102" y="19" width="57" height="32" rx="5" fill="#2F3949"/>
<g filter="url(#filter8_d_5143_450392)">
<rect x="112" y="22" width="17" height="26" rx="3" fill="#070C17"/>
</g>
</g>
<rect x="102.5" y="19.5" width="56" height="31" rx="4.5" stroke="url(#paint0_linear_5143_450392)"/>
</g>
<g filter="url(#filter9_dii_5143_450392)">
<g clip-path="url(#clip1_5143_450392)">
<rect x="102" y="61" width="57" height="32" rx="5" fill="#2F3949"/>
<g filter="url(#filter10_d_5143_450392)">
<rect x="112" y="64" width="17" height="26" rx="3" fill="#070C17"/>
</g>
</g>
<rect x="102.5" y="61.5" width="56" height="31" rx="4.5" stroke="url(#paint1_linear_5143_450392)"/>
</g>
<g filter="url(#filter11_dii_5143_450392)">
<g clip-path="url(#clip2_5143_450392)">
<rect x="102" y="103" width="57" height="32" rx="5" fill="#2F3949"/>
<g filter="url(#filter12_d_5143_450392)">
<rect x="112" y="106" width="17" height="26" rx="3" fill="#070C17"/>
</g>
</g>
<rect x="102.5" y="103.5" width="56" height="31" rx="4.5" stroke="url(#paint2_linear_5143_450392)"/>
</g>
<g filter="url(#filter13_diii_5143_450392)">
<rect x="109" y="22" width="13" height="110" rx="5" fill="#98A2B3"/>
<rect x="109.5" y="22.5" width="12" height="109" rx="4.5" stroke="url(#paint3_linear_5143_450392)"/>
</g>
<rect x="1" y="4" width="366" height="146" rx="7" stroke="#070C17" stroke-width="2"/>
</g>
<defs>
<filter id="filter0_ii_5143_450392" x="-20" y="-17" width="408" height="188" filterUnits="userSpaceOnUse" color-interpolation-filters="sRGB">
<feFlood flood-opacity="0" result="BackgroundImageFix"/>
<feBlend mode="normal" in="SourceGraphic" in2="BackgroundImageFix" result="shape"/>
<feColorMatrix in="SourceAlpha" type="matrix" values="0 0 0 0 0 0 0 0 0 0 0 0 0 0 0 0 0 0 127 0" result="hardAlpha"/>
<feOffset dx="20" dy="-20"/>
<feGaussianBlur stdDeviation="17"/>
<feComposite in2="hardAlpha" operator="arithmetic" k2="-1" k3="1"/>
<feColorMatrix type="matrix" values="0 0 0 0 0 0 0 0 0 0 0 0 0 0 0 0 0 0 0.19 0"/>
<feBlend mode="normal" in2="shape" result="effect1_innerShadow_5143_450392"/>
<feColorMatrix in="SourceAlpha" type="matrix" values="0 0 0 0 0 0 0 0 0 0 0 0 0 0 0 0 0 0 127 0" result="hardAlpha"/>
<feOffset dx="-20" dy="20"/>
<feGaussianBlur stdDeviation="22"/>
<feComposite in2="hardAlpha" operator="arithmetic" k2="-1" k3="1"/>
<feColorMatrix type="matrix" values="0 0 0 0 1 0 0 0 0 1 0 0 0 0 1 0 0 0 0.1 0"/>
<feBlend mode="normal" in2="effect1_innerShadow_5143_450392" result="effect2_innerShadow_5143_450392"/>
</filter>
<filter id="filter1_f_5143_450392" x="25" y="10" width="38" height="38" filterUnits="userSpaceOnUse" color-interpolation-filters="sRGB">
<feFlood flood-opacity="0" result="BackgroundImageFix"/>
<feBlend mode="normal" in="SourceGraphic" in2="BackgroundImageFix" result="shape"/>
<feGaussianBlur stdDeviation="6.5" result="effect1_foregroundBlur_5143_450392"/>
</filter>
<filter id="filter2_dii_5143_450392" x="34" y="19" width="20" height="20" filterUnits="userSpaceOnUse" color-interpolation-filters="sRGB">
<feFlood flood-opacity="0" result="BackgroundImageFix"/>
<feColorMatrix in="SourceAlpha" type="matrix" values="0 0 0 0 0 0 0 0 0 0 0 0 0 0 0 0 0 0 127 0" result="hardAlpha"/>
<feOffset/>
<feGaussianBlur stdDeviation="3"/>
<feComposite in2="hardAlpha" operator="out"/>
<feColorMatrix type="matrix" values="0 0 0 0 0 0 0 0 0 0 0 0 0 0 0 0 0 0 0.3 0"/>
<feBlend mode="normal" in2="BackgroundImageFix" result="effect1_dropShadow_5143_450392"/>
<feBlend mode="normal" in="SourceGraphic" in2="effect1_dropShadow_5143_450392" result="shape"/>
<feColorMatrix in="SourceAlpha" type="matrix" values="0 0 0 0 0 0 0 0 0 0 0 0 0 0 0 0 0 0 127 0" result="hardAlpha"/>
<feOffset dx="-3"/>
<feGaussianBlur stdDeviation="2.5"/>
<feComposite in2="hardAlpha" operator="arithmetic" k2="-1" k3="1"/>
<feColorMatrix type="matrix" values="0 0 0 0 1 0 0 0 0 1 0 0 0 0 1 0 0 0 0.7 0"/>
<feBlend mode="normal" in2="shape" result="effect2_innerShadow_5143_450392"/>
<feColorMatrix in="SourceAlpha" type="matrix" values="0 0 0 0 0 0 0 0 0 0 0 0 0 0 0 0 0 0 127 0" result="hardAlpha"/>
<feOffset dx="2"/>
<feGaussianBlur stdDeviation="1.5"/>
<feComposite in2="hardAlpha" operator="arithmetic" k2="-1" k3="1"/>
<feColorMatrix type="matrix" values="0 0 0 0 0 0 0 0 0 0 0 0 0 0 0 0 0 0 0.4 0"/>
<feBlend mode="normal" in2="effect2_innerShadow_5143_450392" result="effect3_innerShadow_5143_450392"/>
</filter>
<filter id="filter3_f_5143_450392" x="25" y="58" width="38" height="38" filterUnits="userSpaceOnUse" color-interpolation-filters="sRGB">
<feFlood flood-opacity="0" result="BackgroundImageFix"/>
<feBlend mode="normal" in="SourceGraphic" in2="BackgroundImageFix" result="shape"/>
<feGaussianBlur stdDeviation="6.5" result="effect1_foregroundBlur_5143_450392"/>
</filter>
<filter id="filter4_dii_5143_450392" x="34" y="67" width="20" height="20" filterUnits="userSpaceOnUse" color-interpolation-filters="sRGB">
<feFlood flood-opacity="0" result="BackgroundImageFix"/>
<feColorMatrix in="SourceAlpha" type="matrix" values="0 0 0 0 0 0 0 0 0 0 0 0 0 0 0 0 0 0 127 0" result="hardAlpha"/>
<feOffset/>
<feGaussianBlur stdDeviation="3"/>
<feComposite in2="hardAlpha" operator="out"/>
<feColorMatrix type="matrix" values="0 0 0 0 0 0 0 0 0 0 0 0 0 0 0 0 0 0 0.3 0"/>
<feBlend mode="normal" in2="BackgroundImageFix" result="effect1_dropShadow_5143_450392"/>
<feBlend mode="normal" in="SourceGraphic" in2="effect1_dropShadow_5143_450392" result="shape"/>
<feColorMatrix in="SourceAlpha" type="matrix" values="0 0 0 0 0 0 0 0 0 0 0 0 0 0 0 0 0 0 127 0" result="hardAlpha"/>
<feOffset dx="-3"/>
<feGaussianBlur stdDeviation="2.5"/>
<feComposite in2="hardAlpha" operator="arithmetic" k2="-1" k3="1"/>
<feColorMatrix type="matrix" values="0 0 0 0 1 0 0 0 0 1 0 0 0 0 1 0 0 0 0.7 0"/>
<feBlend mode="normal" in2="shape" result="effect2_innerShadow_5143_450392"/>
<feColorMatrix in="SourceAlpha" type="matrix" values="0 0 0 0 0 0 0 0 0 0 0 0 0 0 0 0 0 0 127 0" result="hardAlpha"/>
<feOffset dx="2"/>
<feGaussianBlur stdDeviation="1.5"/>
<feComposite in2="hardAlpha" operator="arithmetic" k2="-1" k3="1"/>
<feColorMatrix type="matrix" values="0 0 0 0 0 0 0 0 0 0 0 0 0 0 0 0 0 0 0.4 0"/>
<feBlend mode="normal" in2="effect2_innerShadow_5143_450392" result="effect3_innerShadow_5143_450392"/>
</filter>
<filter id="filter5_f_5143_450392" x="25" y="106" width="38" height="38" filterUnits="userSpaceOnUse" color-interpolation-filters="sRGB">
<feFlood flood-opacity="0" result="BackgroundImageFix"/>
<feBlend mode="normal" in="SourceGraphic" in2="BackgroundImageFix" result="shape"/>
<feGaussianBlur stdDeviation="6.5" result="effect1_foregroundBlur_5143_450392"/>
</filter>
<filter id="filter6_dii_5143_450392" x="34" y="115" width="20" height="20" filterUnits="userSpaceOnUse" color-interpolation-filters="sRGB">
<feFlood flood-opacity="0" result="BackgroundImageFix"/>
<feColorMatrix in="SourceAlpha" type="matrix" values="0 0 0 0 0 0 0 0 0 0 0 0 0 0 0 0 0 0 127 0" result="hardAlpha"/>
<feOffset/>
<feGaussianBlur stdDeviation="3"/>
<feComposite in2="hardAlpha" operator="out"/>
<feColorMatrix type="matrix" values="0 0 0 0 0 0 0 0 0 0 0 0 0 0 0 0 0 0 0.3 0"/>
<feBlend mode="normal" in2="BackgroundImageFix" result="effect1_dropShadow_5143_450392"/>
<feBlend mode="normal" in="SourceGraphic" in2="effect1_dropShadow_5143_450392" result="shape"/>
<feColorMatrix in="SourceAlpha" type="matrix" values="0 0 0 0 0 0 0 0 0 0 0 0 0 0 0 0 0 0 127 0" result="hardAlpha"/>
<feOffset dx="-3"/>
<feGaussianBlur stdDeviation="2.5"/>
<feComposite in2="hardAlpha" operator="arithmetic" k2="-1" k3="1"/>
<feColorMatrix type="matrix" values="0 0 0 0 1 0 0 0 0 1 0 0 0 0 1 0 0 0 0.7 0"/>
<feBlend mode="normal" in2="shape" result="effect2_innerShadow_5143_450392"/>
<feColorMatrix in="SourceAlpha" type="matrix" values="0 0 0 0 0 0 0 0 0 0 0 0 0 0 0 0 0 0 127 0" result="hardAlpha"/>
<feOffset dx="2"/>
<feGaussianBlur stdDeviation="1.5"/>
<feComposite in2="hardAlpha" operator="arithmetic" k2="-1" k3="1"/>
<feColorMatrix type="matrix" values="0 0 0 0 0 0 0 0 0 0 0 0 0 0 0 0 0 0 0.4 0"/>
<feBlend mode="normal" in2="effect2_innerShadow_5143_450392" result="effect3_innerShadow_5143_450392"/>
</filter>
<filter id="filter7_dii_5143_450392" x="83" y="0" width="97" height="72" filterUnits="userSpaceOnUse" color-interpolation-filters="sRGB">
<feFlood flood-opacity="0" result="BackgroundImageFix"/>
<feColorMatrix in="SourceAlpha" type="matrix" values="0 0 0 0 0 0 0 0 0 0 0 0 0 0 0 0 0 0 127 0" result="hardAlpha"/>
<feOffset dx="1" dy="1"/>
<feGaussianBlur stdDeviation="10"/>
<feComposite in2="hardAlpha" operator="out"/>
<feColorMatrix type="matrix" values="0 0 0 0 1 0 0 0 0 1 0 0 0 0 1 0 0 0 0.09 0"/>
<feBlend mode="normal" in2="BackgroundImageFix" result="effect1_dropShadow_5143_450392"/>
<feBlend mode="normal" in="SourceGraphic" in2="effect1_dropShadow_5143_450392" result="shape"/>
<feColorMatrix in="SourceAlpha" type="matrix" values="0 0 0 0 0 0 0 0 0 0 0 0 0 0 0 0 0 0 127 0" result="hardAlpha"/>
<feOffset dx="-6" dy="10"/>
<feGaussianBlur stdDeviation="5"/>
<feComposite in2="hardAlpha" operator="arithmetic" k2="-1" k3="1"/>
<feColorMatrix type="matrix" values="0 0 0 0 0 0 0 0 0 0 0 0 0 0 0 0 0 0 0.45 0"/>
<feBlend mode="normal" in2="shape" result="effect2_innerShadow_5143_450392"/>
<feColorMatrix in="SourceAlpha" type="matrix" values="0 0 0 0 0 0 0 0 0 0 0 0 0 0 0 0 0 0 127 0" result="hardAlpha"/>
<feOffset dx="-2" dy="2"/>
<feGaussianBlur stdDeviation="1"/>
<feComposite in2="hardAlpha" operator="arithmetic" k2="-1" k3="1"/>
<feColorMatrix type="matrix" values="0 0 0 0 0 0 0 0 0 0 0 0 0 0 0 0 0 0 1 0"/>
<feBlend mode="normal" in2="effect2_innerShadow_5143_450392" result="effect3_innerShadow_5143_450392"/>
</filter>
<filter id="filter8_d_5143_450392" x="107" y="19" width="25" height="34" filterUnits="userSpaceOnUse" color-interpolation-filters="sRGB">
<feFlood flood-opacity="0" result="BackgroundImageFix"/>
<feColorMatrix in="SourceAlpha" type="matrix" values="0 0 0 0 0 0 0 0 0 0 0 0 0 0 0 0 0 0 127 0" result="hardAlpha"/>
<feOffset dx="-1" dy="1"/>
<feGaussianBlur stdDeviation="2"/>
<feComposite in2="hardAlpha" operator="out"/>
<feColorMatrix type="matrix" values="0 0 0 0 0 0 0 0 0 0 0 0 0 0 0 0 0 0 0.45 0"/>
<feBlend mode="normal" in2="BackgroundImageFix" result="effect1_dropShadow_5143_450392"/>
<feBlend mode="normal" in="SourceGraphic" in2="effect1_dropShadow_5143_450392" result="shape"/>
</filter>
<filter id="filter9_dii_5143_450392" x="83" y="42" width="97" height="72" filterUnits="userSpaceOnUse" color-interpolation-filters="sRGB">
<feFlood flood-opacity="0" result="BackgroundImageFix"/>
<feColorMatrix in="SourceAlpha" type="matrix" values="0 0 0 0 0 0 0 0 0 0 0 0 0 0 0 0 0 0 127 0" result="hardAlpha"/>
<feOffset dx="1" dy="1"/>
<feGaussianBlur stdDeviation="10"/>
<feComposite in2="hardAlpha" operator="out"/>
<feColorMatrix type="matrix" values="0 0 0 0 1 0 0 0 0 1 0 0 0 0 1 0 0 0 0.09 0"/>
<feBlend mode="normal" in2="BackgroundImageFix" result="effect1_dropShadow_5143_450392"/>
<feBlend mode="normal" in="SourceGraphic" in2="effect1_dropShadow_5143_450392" result="shape"/>
<feColorMatrix in="SourceAlpha" type="matrix" values="0 0 0 0 0 0 0 0 0 0 0 0 0 0 0 0 0 0 127 0" result="hardAlpha"/>
<feOffset dx="-6" dy="10"/>
<feGaussianBlur stdDeviation="5"/>
<feComposite in2="hardAlpha" operator="arithmetic" k2="-1" k3="1"/>
<feColorMatrix type="matrix" values="0 0 0 0 0 0 0 0 0 0 0 0 0 0 0 0 0 0 0.45 0"/>
<feBlend mode="normal" in2="shape" result="effect2_innerShadow_5143_450392"/>
<feColorMatrix in="SourceAlpha" type="matrix" values="0 0 0 0 0 0 0 0 0 0 0 0 0 0 0 0 0 0 127 0" result="hardAlpha"/>
<feOffset dx="-2" dy="2"/>
<feGaussianBlur stdDeviation="1"/>
<feComposite in2="hardAlpha" operator="arithmetic" k2="-1" k3="1"/>
<feColorMatrix type="matrix" values="0 0 0 0 0 0 0 0 0 0 0 0 0 0 0 0 0 0 1 0"/>
<feBlend mode="normal" in2="effect2_innerShadow_5143_450392" result="effect3_innerShadow_5143_450392"/>
</filter>
<filter id="filter10_d_5143_450392" x="107" y="61" width="25" height="34" filterUnits="userSpaceOnUse" color-interpolation-filters="sRGB">
<feFlood flood-opacity="0" result="BackgroundImageFix"/>
<feColorMatrix in="SourceAlpha" type="matrix" values="0 0 0 0 0 0 0 0 0 0 0 0 0 0 0 0 0 0 127 0" result="hardAlpha"/>
<feOffset dx="-1" dy="1"/>
<feGaussianBlur stdDeviation="2"/>
<feComposite in2="hardAlpha" operator="out"/>
<feColorMatrix type="matrix" values="0 0 0 0 0 0 0 0 0 0 0 0 0 0 0 0 0 0 0.45 0"/>
<feBlend mode="normal" in2="BackgroundImageFix" result="effect1_dropShadow_5143_450392"/>
<feBlend mode="normal" in="SourceGraphic" in2="effect1_dropShadow_5143_450392" result="shape"/>
</filter>
<filter id="filter11_dii_5143_450392" x="83" y="84" width="97" height="72" filterUnits="userSpaceOnUse" color-interpolation-filters="sRGB">
<feFlood flood-opacity="0" result="BackgroundImageFix"/>
<feColorMatrix in="SourceAlpha" type="matrix" values="0 0 0 0 0 0 0 0 0 0 0 0 0 0 0 0 0 0 127 0" result="hardAlpha"/>
<feOffset dx="1" dy="1"/>
<feGaussianBlur stdDeviation="10"/>
<feComposite in2="hardAlpha" operator="out"/>
<feColorMatrix type="matrix" values="0 0 0 0 1 0 0 0 0 1 0 0 0 0 1 0 0 0 0.09 0"/>
<feBlend mode="normal" in2="BackgroundImageFix" result="effect1_dropShadow_5143_450392"/>
<feBlend mode="normal" in="SourceGraphic" in2="effect1_dropShadow_5143_450392" result="shape"/>
<feColorMatrix in="SourceAlpha" type="matrix" values="0 0 0 0 0 0 0 0 0 0 0 0 0 0 0 0 0 0 127 0" result="hardAlpha"/>
<feOffset dx="-6" dy="10"/>
<feGaussianBlur stdDeviation="5"/>
<feComposite in2="hardAlpha" operator="arithmetic" k2="-1" k3="1"/>
<feColorMatrix type="matrix" values="0 0 0 0 0 0 0 0 0 0 0 0 0 0 0 0 0 0 0.45 0"/>
<feBlend mode="normal" in2="shape" result="effect2_innerShadow_5143_450392"/>
<feColorMatrix in="SourceAlpha" type="matrix" values="0 0 0 0 0 0 0 0 0 0 0 0 0 0 0 0 0 0 127 0" result="hardAlpha"/>
<feOffset dx="-2" dy="2"/>
<feGaussianBlur stdDeviation="1"/>
<feComposite in2="hardAlpha" operator="arithmetic" k2="-1" k3="1"/>
<feColorMatrix type="matrix" values="0 0 0 0 0 0 0 0 0 0 0 0 0 0 0 0 0 0 1 0"/>
<feBlend mode="normal" in2="effect2_innerShadow_5143_450392" result="effect3_innerShadow_5143_450392"/>
</filter>
<filter id="filter12_d_5143_450392" x="107" y="103" width="25" height="34" filterUnits="userSpaceOnUse" color-interpolation-filters="sRGB">
<feFlood flood-opacity="0" result="BackgroundImageFix"/>
<feColorMatrix in="SourceAlpha" type="matrix" values="0 0 0 0 0 0 0 0 0 0 0 0 0 0 0 0 0 0 127 0" result="hardAlpha"/>
<feOffset dx="-1" dy="1"/>
<feGaussianBlur stdDeviation="2"/>
<feComposite in2="hardAlpha" operator="out"/>
<feColorMatrix type="matrix" values="0 0 0 0 0 0 0 0 0 0 0 0 0 0 0 0 0 0 0.45 0"/>
<feBlend mode="normal" in2="BackgroundImageFix" result="effect1_dropShadow_5143_450392"/>
<feBlend mode="normal" in="SourceGraphic" in2="effect1_dropShadow_5143_450392" result="shape"/>
</filter>
<filter id="filter13_diii_5143_450392" x="103" y="22" width="25" height="120" filterUnits="userSpaceOnUse" color-interpolation-filters="sRGB">
<feFlood flood-opacity="0" result="BackgroundImageFix"/>
<feColorMatrix in="SourceAlpha" type="matrix" values="0 0 0 0 0 0 0 0 0 0 0 0 0 0 0 0 0 0 127 0" result="hardAlpha"/>
<feOffset dx="-2" dy="4"/>
<feGaussianBlur stdDeviation="2"/>
<feComposite in2="hardAlpha" operator="out"/>
<feColorMatrix type="matrix" values="0 0 0 0 0 0 0 0 0 0 0 0 0 0 0 0 0 0 0.7 0"/>
<feBlend mode="normal" in2="BackgroundImageFix" result="effect1_dropShadow_5143_450392"/>
<feBlend mode="normal" in="SourceGraphic" in2="effect1_dropShadow_5143_450392" result="shape"/>
<feColorMatrix in="SourceAlpha" type="matrix" values="0 0 0 0 0 0 0 0 0 0 0 0 0 0 0 0 0 0 127 0" result="hardAlpha"/>
<feOffset dx="6" dy="10"/>
<feGaussianBlur stdDeviation="5"/>
<feComposite in2="hardAlpha" operator="arithmetic" k2="-1" k3="1"/>
<feColorMatrix type="matrix" values="0 0 0 0 0 0 0 0 0 0 0 0 0 0 0 0 0 0 0.25 0"/>
<feBlend mode="normal" in2="shape" result="effect2_innerShadow_5143_450392"/>
<feColorMatrix in="SourceAlpha" type="matrix" values="0 0 0 0 0 0 0 0 0 0 0 0 0 0 0 0 0 0 127 0" result="hardAlpha"/>
<feOffset dx="4" dy="4"/>
<feGaussianBlur stdDeviation="3.5"/>
<feComposite in2="hardAlpha" operator="arithmetic" k2="-1" k3="1"/>
<feColorMatrix type="matrix" values="0 0 0 0 0 0 0 0 0 0 0 0 0 0 0 0 0 0 0.4 0"/>
<feBlend mode="normal" in2="effect2_innerShadow_5143_450392" result="effect3_innerShadow_5143_450392"/>
<feColorMatrix in="SourceAlpha" type="matrix" values="0 0 0 0 0 0 0 0 0 0 0 0 0 0 0 0 0 0 127 0" result="hardAlpha"/>
<feOffset dx="-2"/>
<feGaussianBlur stdDeviation="3.5"/>
<feComposite in2="hardAlpha" operator="arithmetic" k2="-1" k3="1"/>
<feColorMatrix type="matrix" values="0 0 0 0 0 0 0 0 0 0 0 0 0 0 0 0 0 0 0.25 0"/>
<feBlend mode="normal" in2="effect3_innerShadow_5143_450392" result="effect4_innerShadow_5143_450392"/>
</filter>
<linearGradient id="paint0_linear_5143_450392" x1="102" y1="49.5" x2="155" y2="25" gradientUnits="userSpaceOnUse">
<stop stop-color="#070C17"/>
<stop offset="1" stop-color="#667085"/>
</linearGradient>
<linearGradient id="paint1_linear_5143_450392" x1="102" y1="91.5" x2="155" y2="67" gradientUnits="userSpaceOnUse">
<stop stop-color="#070C17"/>
<stop offset="1" stop-color="#667085"/>
</linearGradient>
<linearGradient id="paint2_linear_5143_450392" x1="102" y1="133.5" x2="155" y2="109" gradientUnits="userSpaceOnUse">
<stop stop-color="#070C17"/>
<stop offset="1" stop-color="#667085"/>
</linearGradient>
<linearGradient id="paint3_linear_5143_450392" x1="111" y1="108" x2="115.478" y2="108.091" gradientUnits="userSpaceOnUse">
<stop stop-color="#3F4B5C"/>
<stop offset="1" stop-color="#98A2B3"/>
</linearGradient>
<clipPath id="clip0_5143_450392">
<rect x="102" y="19" width="57" height="32" rx="5" fill="white"/>
</clipPath>
<clipPath id="clip1_5143_450392">
<rect x="102" y="61" width="57" height="32" rx="5" fill="white"/>
</clipPath>
<clipPath id="clip2_5143_450392">
<rect x="102" y="103" width="57" height="32" rx="5" fill="white"/>
</clipPath>
</defs>
</svg>
