<svg width="92.6" height="97.2" viewBox="0 0 92.6 97.2" xmlns="http://www.w3.org/2000/svg"><g id="svgGroup" stroke-linecap="round" fill-rule="evenodd" font-size="9pt" stroke="#000" stroke-width="0mm" fill="#959dad" style="stroke:#000;stroke-width:0mm;fill:#959dad"><path d="M 42.1 69 L 35.9 75 L 9 47.3 L 9 74 L 0 74 L 0 0 L 9 0 L 9 42.3 L 32.5 21 L 37.7 26.7 L 17.6 44.5 L 42.1 69 Z M 52 92.8 L 55.3 85 A 20.562 20.562 0 0 0 59.117 87.373 A 24.737 24.737 0 0 0 60.9 88.15 Q 63.659 89.228 67.459 89.376 A 31.788 31.788 0 0 0 68.7 89.4 A 21.701 21.701 0 0 0 73.221 88.957 Q 76.122 88.339 78.322 86.859 A 12.576 12.576 0 0 0 79.85 85.65 A 11.352 11.352 0 0 0 82.757 81.157 Q 83.9 78.056 83.9 73.7 L 83.9 67.3 Q 81.9 69.7 78.15 71.85 Q 74.4 74 69.2 74 Q 63.3 74 58 70.95 A 22.236 22.236 0 0 1 50.708 64.112 A 27.437 27.437 0 0 1 49.4 62 A 25.181 25.181 0 0 1 46.687 54.376 A 35.033 35.033 0 0 1 46.1 47.8 A 32.06 32.06 0 0 1 47.017 39.992 A 26.682 26.682 0 0 1 49.35 33.9 A 25.706 25.706 0 0 1 55.414 26.278 A 24.448 24.448 0 0 1 58.1 24.3 Q 63.6 20.8 70.2 20.8 A 22.366 22.366 0 0 1 75.02 21.301 A 18.715 18.715 0 0 1 78.2 22.3 A 25.705 25.705 0 0 1 82.028 24.268 A 20.998 20.998 0 0 1 84.4 26 L 84.4 22 L 92.6 22 L 92.6 72.8 Q 92.6 81.4 89.6 86.8 Q 86.6 92.2 81.25 94.7 A 25.811 25.811 0 0 1 74.646 96.721 A 35.243 35.243 0 0 1 68.7 97.2 Q 64.1 97.2 59.75 96.1 A 27.232 27.232 0 0 1 54.45 94.183 A 23.518 23.518 0 0 1 52 92.8 Z M 83.6 60 L 83.6 32.8 Q 81.434 31.225 78.397 29.941 A 36.018 36.018 0 0 0 78.3 29.9 A 16.249 16.249 0 0 0 74.496 28.849 A 22.135 22.135 0 0 0 71.1 28.6 Q 67 28.6 63.4 30.8 Q 59.8 33 57.55 37.15 Q 55.3 41.3 55.3 47.3 A 24.32 24.32 0 0 0 55.778 52.236 A 18.311 18.311 0 0 0 57.55 57.2 A 18.576 18.576 0 0 0 60.461 61.275 A 15.802 15.802 0 0 0 63.4 63.7 Q 67 66 71.2 66 A 15.276 15.276 0 0 0 75.778 65.332 A 13.606 13.606 0 0 0 78.4 64.2 A 20.855 20.855 0 0 0 81.381 62.184 A 16.309 16.309 0 0 0 83.6 60 Z" vector-effect="non-scaling-stroke"/></g></svg>