<svg width="189.1" height="75" viewBox="0 0 189.1 75" xmlns="http://www.w3.org/2000/svg"><g id="svgGroup" stroke-linecap="round" fill-rule="evenodd" font-size="9pt" stroke="#000" stroke-width="0mm" fill="#959dad" style="stroke:#000;stroke-width:0mm;fill:#959dad"><path d="M 75.4 74 L 63.6 74 L 44.6 6.3 L 54 3.3 L 69.8 63.9 L 84.7 11.3 L 96.6 11.3 L 111.4 63.9 L 127.1 3.6 L 135.9 6.3 L 117 74 L 105.2 74 L 90.4 21.4 L 75.4 74 Z M 154.4 74 L 145.4 74 L 145.4 0 L 154.4 0 L 154.4 30.3 Q 157.2 26.2 161.5 23.5 A 17.572 17.572 0 0 1 168.625 20.991 A 22.595 22.595 0 0 1 171.6 20.8 A 23.225 23.225 0 0 1 176.665 21.318 Q 181.759 22.456 184.75 26.1 Q 188.875 31.126 189.088 39.209 A 33.764 33.764 0 0 1 189.1 40.1 L 189.1 74 L 180.1 74 L 180.1 41.1 Q 180.1 35.5 177.5 32.1 A 8.42 8.42 0 0 0 171.342 28.753 A 11.979 11.979 0 0 0 170.2 28.7 A 13.23 13.23 0 0 0 163.487 30.566 A 17.586 17.586 0 0 0 161.45 31.95 Q 157.3 35.2 154.4 39.6 L 154.4 74 Z M 42.1 69 L 35.9 75 L 9 47.3 L 9 74 L 0 74 L 0 0 L 9 0 L 9 42.3 L 32.5 21 L 37.7 26.7 L 17.6 44.5 L 42.1 69 Z" vector-effect="non-scaling-stroke"/></g></svg>