<svg width="10" height="12" viewBox="0 0 10 12" fill="none" xmlns="http://www.w3.org/2000/svg">
<path d="M5.24432 9.09091V8.55398C5.24432 8.18277 5.32055 7.84304 5.47301 7.5348C5.62879 7.22325 5.85417 6.97467 6.14915 6.78906C6.44744 6.60014 6.80871 6.50568 7.23295 6.50568C7.66383 6.50568 8.0251 6.60014 8.31676 6.78906C8.60843 6.97467 8.82884 7.22325 8.97798 7.5348C9.12713 7.84304 9.2017 8.18277 9.2017 8.55398V9.09091C9.2017 9.46212 9.12547 9.8035 8.97301 10.1151C8.82386 10.4233 8.6018 10.6719 8.30682 10.8608C8.01515 11.0464 7.6572 11.1392 7.23295 11.1392C6.80208 11.1392 6.43916 11.0464 6.14418 10.8608C5.8492 10.6719 5.62547 10.4233 5.47301 10.1151C5.32055 9.8035 5.24432 9.46212 5.24432 9.09091ZM6.25852 8.55398V9.09091C6.25852 9.39915 6.33144 9.6759 6.47727 9.92116C6.62311 10.1631 6.875 10.2841 7.23295 10.2841C7.58097 10.2841 7.82623 10.1631 7.96875 9.92116C8.11458 9.6759 8.1875 9.39915 8.1875 9.09091V8.55398C8.1875 8.24574 8.1179 7.97064 7.97869 7.72869C7.83949 7.48343 7.59091 7.3608 7.23295 7.3608C6.88494 7.3608 6.63471 7.48343 6.48224 7.72869C6.3331 7.97064 6.25852 8.24574 6.25852 8.55398ZM0.173295 3.2642V2.72727C0.173295 2.35606 0.249527 2.01634 0.401989 1.7081C0.557765 1.39654 0.783144 1.14796 1.07812 0.962358C1.37642 0.773437 1.73769 0.678977 2.16193 0.678977C2.5928 0.678977 2.95407 0.773437 3.24574 0.962358C3.53741 1.14796 3.75781 1.39654 3.90696 1.7081C4.05611 2.01634 4.13068 2.35606 4.13068 2.72727V3.2642C4.13068 3.63542 4.05445 3.9768 3.90199 4.28835C3.75284 4.59659 3.53078 4.84517 3.2358 5.03409C2.94413 5.2197 2.58617 5.3125 2.16193 5.3125C1.73106 5.3125 1.36813 5.2197 1.07315 5.03409C0.778172 4.84517 0.554451 4.59659 0.401989 4.28835C0.249527 3.9768 0.173295 3.63542 0.173295 3.2642ZM1.1875 2.72727V3.2642C1.1875 3.57244 1.26042 3.8492 1.40625 4.09446C1.55208 4.33641 1.80398 4.45739 2.16193 4.45739C2.50994 4.45739 2.75521 4.33641 2.89773 4.09446C3.04356 3.8492 3.11648 3.57244 3.11648 3.2642V2.72727C3.11648 2.41903 3.04688 2.14394 2.90767 1.90199C2.76847 1.65672 2.51989 1.53409 2.16193 1.53409C1.81392 1.53409 1.56368 1.65672 1.41122 1.90199C1.26207 2.14394 1.1875 2.41903 1.1875 2.72727ZM0.551136 11L7.55114 0.818182H8.68466L1.68466 11H0.551136Z" fill="#626B7F"/>
</svg>
