<svg width="19" height="16" viewBox="0 0 19 16" fill="none" xmlns="http://www.w3.org/2000/svg">
<path d="M4.03125 5C4.03125 4.41895 4.50977 3.90625 5.125 3.90625H9.5C10.0811 3.90625 10.5938 4.41895 10.5938 5V8.28125C10.5938 8.89648 10.0811 9.375 9.5 9.375H5.125C4.50977 9.375 4.03125 8.89648 4.03125 8.28125V5ZM9.5 10.4688C10.6963 10.4688 11.6875 9.51172 11.6875 8.28125V7.1875H13.875C14.4561 7.1875 14.9688 7.7002 14.9688 8.28125V11.5625C14.9688 12.1777 14.4561 12.6562 13.875 12.6562H9.5C8.88477 12.6562 8.40625 12.1777 8.40625 11.5625V10.4688H9.5ZM1.29688 3.49609C0.955078 3.18848 0.75 2.77832 0.75 2.26562C0.75 1.37695 1.46777 0.625 2.39062 0.625C2.86914 0.625 3.2793 0.864258 3.58691 1.17188H15.3789C15.6865 0.864258 16.0967 0.625 16.6094 0.625C17.498 0.625 18.25 1.37695 18.25 2.26562C18.25 2.77832 18.0107 3.18848 17.7031 3.49609V13.1006C18.0107 13.374 18.25 13.8184 18.25 14.2969C18.25 15.2197 17.498 15.9375 16.6094 15.9375C16.0967 15.9375 15.6865 15.7324 15.3789 15.3906H3.58691C3.2793 15.7324 2.86914 15.9375 2.39062 15.9375C1.46777 15.9375 0.75 15.2197 0.75 14.2969C0.75 13.8184 0.955078 13.374 1.29688 13.1006V3.49609ZM2.9375 3.83789V12.7588C3.38184 12.9297 3.75781 13.3057 3.92871 13.75H15.0371C15.208 13.3057 15.584 12.9297 16.0625 12.7588V3.83789C15.584 3.66699 15.208 3.29102 15.0371 2.8125H3.92871C3.75781 3.29102 3.38184 3.66699 2.9375 3.83789Z" fill="#444CE7"/>
</svg>
