<svg width="14" height="14" viewBox="0 0 14 14" fill="none" xmlns="http://www.w3.org/2000/svg">
<path d="M1.86257 8.73893L9.77923 0.822266C10.4303 0.171224 11.498 0.171224 12.149 0.822266L13.1646 1.83789C13.2428 1.91602 13.3209 2.02018 13.373 2.09831C13.8157 2.74935 13.7376 3.63477 13.1646 4.20768L5.24798 12.1243C5.22194 12.1504 5.16986 12.1764 5.14382 12.2285C4.8834 12.4368 4.59694 12.5931 4.28444 12.6973L1.1334 13.6087C0.925067 13.6868 0.690692 13.6348 0.534442 13.4525C0.35215 13.2962 0.300067 13.0618 0.35215 12.8535L1.28965 9.70247C1.39382 9.33789 1.60215 8.99935 1.86257 8.73893ZM2.48757 10.0671L1.88861 12.0983L3.91986 11.4993C4.07611 11.4473 4.23236 11.3691 4.36257 11.2389L10.3261 5.27539L8.68548 3.66081L2.74798 9.62435C2.72194 9.62435 2.72194 9.65039 2.6959 9.67643C2.59173 9.7806 2.53965 9.91081 2.48757 10.0671Z" fill="#626B7F"/>
</svg>
