<svg width="25" height="25" viewBox="0 0 25 25" fill="none" xmlns="http://www.w3.org/2000/svg">
<rect x="0.5" y="0.5" width="24" height="24" rx="2.5" fill="#F9FAFB"/>
<path d="M4.625 8.78125C4.07812 8.48047 3.75 7.90625 3.75 7.25C3.75 6.29297 4.51562 5.5 5.5 5.5C6.12891 5.5 6.70312 5.85547 7.00391 6.375H12.7188C13.0195 5.85547 13.5938 5.5 14.25 5.5C15.207 5.5 16 6.29297 16 7.25C16 7.90625 15.6445 8.48047 15.125 8.78125V11.8711C15.6445 12.1719 16 12.7461 16 13.375C16 14.3594 15.207 15.125 14.25 15.125C13.5938 15.125 13.0195 14.7969 12.7188 14.25H7.00391C6.70312 14.7969 6.12891 15.125 5.5 15.125C4.51562 15.125 3.75 14.3594 3.75 13.375C3.75 12.7461 4.07812 12.1719 4.625 11.8711V8.78125ZM6.375 8.78125V11.8711C6.62109 12.0352 6.83984 12.2539 7.00391 12.5H12.7188C12.8828 12.2539 13.1016 12.0352 13.375 11.8711V8.78125C13.1016 8.61719 12.8828 8.39844 12.7188 8.125H7.00391C6.83984 8.39844 6.62109 8.61719 6.375 8.78125ZM12.2539 18.625C11.9531 19.1719 11.3789 19.5 10.75 19.5C9.76562 19.5 9 18.7344 9 17.75C9 17.1211 9.32812 16.5469 9.875 16.2461V15.125H11.625V16.2461C11.8711 16.4102 12.0898 16.6289 12.2539 16.875H17.9688C18.1328 16.6289 18.3516 16.4102 18.625 16.2461V13.1562C18.3516 12.9922 18.1328 12.7734 17.9688 12.5H16.7109C16.5742 12.0898 16.3008 11.7344 16 11.4336V10.75H17.9688C18.2695 10.2305 18.8438 9.875 19.5 9.875C20.457 9.875 21.25 10.668 21.25 11.625C21.25 12.2812 20.8945 12.8555 20.375 13.1562V16.2461C20.8945 16.5469 21.25 17.1211 21.25 17.75C21.25 18.7344 20.457 19.5 19.5 19.5C18.8438 19.5 18.2695 19.1719 17.9688 18.625H12.2539Z" fill="#7C879C"/>
<rect x="0.5" y="0.5" width="24" height="24" rx="2.5" stroke="#EAECF0"/>
</svg>
