<svg width="20" height="16" viewBox="0 0 20 16" fill="none" xmlns="http://www.w3.org/2000/svg">
<path d="M5.55745 4.03288C7.26359 2.71538 9.71803 2.83249 11.2745 4.35493C12.5616 5.61387 12.8609 7.51692 12.1425 9.06863L13.5194 10.1226L16.363 7.34125C17.4705 6.2287 17.4705 4.47204 16.363 3.35949C15.2854 2.33477 13.5793 2.27622 12.4419 3.24238L12.2623 3.38877C11.9629 3.65227 11.514 3.62299 11.2446 3.33021C10.9752 3.03743 11.0051 2.59827 11.3044 2.33477L11.484 2.18838C13.1902 0.724499 15.7643 0.812332 17.3807 2.36405C19.0569 4.0036 19.0569 6.66787 17.3807 8.33669L14.6568 11.001L18.8773 14.2508C19.2065 14.485 19.2664 14.9242 18.997 15.2169C18.7576 15.539 18.3086 15.5976 18.0093 15.3341L0.289382 1.74922C-0.0398722 1.515 -0.0997366 1.07583 0.169653 0.783054C0.409111 0.461 0.858094 0.402444 1.15742 0.665943L5.55745 4.03288ZM6.75474 4.94048L10.9752 8.16103C11.2745 7.19486 11.035 6.11159 10.2568 5.35037C9.29898 4.41349 7.8323 4.2671 6.75474 4.94048ZM7.89216 11.6451C6.9942 10.7667 6.57515 9.59563 6.63501 8.42453L8.25135 9.68347C8.40101 10.0348 8.61054 10.3569 8.90986 10.6496C9.35884 11.1181 9.95749 11.3816 10.5561 11.4401L12.1725 12.6991C10.7058 13.1382 9.05952 12.7869 7.89216 11.6451ZM3.49213 5.99448L4.62955 6.87281L2.80369 8.65875C1.6962 9.7713 1.6962 11.528 2.80369 12.6405C3.88125 13.6652 5.58738 13.7238 6.72481 12.7576L6.9044 12.6112C7.20372 12.3477 7.65271 12.377 7.9221 12.6698C8.19149 12.9626 8.16155 13.4017 7.86223 13.6652L7.68264 13.8116C5.9765 15.2755 3.40233 15.1877 1.78599 13.636C0.109789 11.9964 0.109789 9.30286 1.78599 7.66331L3.49213 5.99448Z" fill="#B42318"/>
</svg>
